%TF.GenerationSoftware,KiCad,Pcbnew,5.1.9+dfsg1-1+deb11u1*%
%TF.CreationDate,2024-07-25T19:41:34+02:00*%
%TF.ProjectId,label1,6c616265-6c31-42e6-9b69-6361645f7063,rev?*%
%TF.SameCoordinates,Original*%
%TF.FileFunction,Soldermask,Bot*%
%TF.FilePolarity,Negative*%
%FSLAX46Y46*%
G04 Gerber Fmt 4.6, Leading zero omitted, Abs format (unit mm)*
G04 Created by KiCad (PCBNEW 5.1.9+dfsg1-1+deb11u1) date 2024-07-25 19:41:34*
%MOMM*%
%LPD*%
G01*
G04 APERTURE LIST*
%ADD10C,2.500000*%
%ADD11C,0.100000*%
G04 APERTURE END LIST*
%TO.C,REF\u002A\u002A*%
G36*
G01*
X60802586Y-36045227D02*
X60802586Y-36045227D01*
G75*
G02*
X59989414Y-36045227I-406586J406586D01*
G01*
X59812638Y-35868451D01*
G75*
G02*
X59812638Y-35055279I406586J406586D01*
G01*
X59812638Y-35055279D01*
G75*
G02*
X60625810Y-35055279I406586J-406586D01*
G01*
X60802586Y-35232055D01*
G75*
G02*
X60802586Y-36045227I-406586J-406586D01*
G01*
G37*
G36*
G01*
X60095479Y-35338120D02*
X60095479Y-35338120D01*
G75*
G02*
X59282307Y-35338120I-406586J406586D01*
G01*
X59105531Y-35161344D01*
G75*
G02*
X59105531Y-34348172I406586J406586D01*
G01*
X59105531Y-34348172D01*
G75*
G02*
X59918703Y-34348172I406586J-406586D01*
G01*
X60095479Y-34524948D01*
G75*
G02*
X60095479Y-35338120I-406586J-406586D01*
G01*
G37*
G36*
G01*
X59388372Y-34631013D02*
X59388372Y-34631013D01*
G75*
G02*
X58575200Y-34631013I-406586J406586D01*
G01*
X58398424Y-34454237D01*
G75*
G02*
X58398424Y-33641065I406586J406586D01*
G01*
X58398424Y-33641065D01*
G75*
G02*
X59211596Y-33641065I406586J-406586D01*
G01*
X59388372Y-33817841D01*
G75*
G02*
X59388372Y-34631013I-406586J-406586D01*
G01*
G37*
G36*
G01*
X60095479Y-33923906D02*
X60095479Y-33923906D01*
G75*
G02*
X59282307Y-33923906I-406586J406586D01*
G01*
X59105531Y-33747130D01*
G75*
G02*
X59105531Y-32933958I406586J406586D01*
G01*
X59105531Y-32933958D01*
G75*
G02*
X59918703Y-32933958I406586J-406586D01*
G01*
X60095479Y-33110734D01*
G75*
G02*
X60095479Y-33923906I-406586J-406586D01*
G01*
G37*
G36*
G01*
X60802586Y-33216799D02*
X60802586Y-33216799D01*
G75*
G02*
X59989414Y-33216799I-406586J406586D01*
G01*
X59812638Y-33040023D01*
G75*
G02*
X59812638Y-32226851I406586J406586D01*
G01*
X59812638Y-32226851D01*
G75*
G02*
X60625810Y-32226851I406586J-406586D01*
G01*
X60802586Y-32403627D01*
G75*
G02*
X60802586Y-33216799I-406586J-406586D01*
G01*
G37*
G36*
G01*
X61509693Y-32509693D02*
X61509693Y-32509693D01*
G75*
G02*
X60696521Y-32509693I-406586J406586D01*
G01*
X60519745Y-32332917D01*
G75*
G02*
X60519745Y-31519745I406586J406586D01*
G01*
X60519745Y-31519745D01*
G75*
G02*
X61332917Y-31519745I406586J-406586D01*
G01*
X61509693Y-31696521D01*
G75*
G02*
X61509693Y-32509693I-406586J-406586D01*
G01*
G37*
G36*
G01*
X62216799Y-31802586D02*
X62216799Y-31802586D01*
G75*
G02*
X61403627Y-31802586I-406586J406586D01*
G01*
X61226851Y-31625810D01*
G75*
G02*
X61226851Y-30812638I406586J406586D01*
G01*
X61226851Y-30812638D01*
G75*
G02*
X62040023Y-30812638I406586J-406586D01*
G01*
X62216799Y-30989414D01*
G75*
G02*
X62216799Y-31802586I-406586J-406586D01*
G01*
G37*
G36*
G01*
X62923906Y-31095479D02*
X62923906Y-31095479D01*
G75*
G02*
X62110734Y-31095479I-406586J406586D01*
G01*
X61933958Y-30918703D01*
G75*
G02*
X61933958Y-30105531I406586J406586D01*
G01*
X61933958Y-30105531D01*
G75*
G02*
X62747130Y-30105531I406586J-406586D01*
G01*
X62923906Y-30282307D01*
G75*
G02*
X62923906Y-31095479I-406586J-406586D01*
G01*
G37*
G36*
G01*
X63631013Y-30388372D02*
X63631013Y-30388372D01*
G75*
G02*
X62817841Y-30388372I-406586J406586D01*
G01*
X62641065Y-30211596D01*
G75*
G02*
X62641065Y-29398424I406586J406586D01*
G01*
X62641065Y-29398424D01*
G75*
G02*
X63454237Y-29398424I406586J-406586D01*
G01*
X63631013Y-29575200D01*
G75*
G02*
X63631013Y-30388372I-406586J-406586D01*
G01*
G37*
G36*
G01*
X64338120Y-31095479D02*
X64338120Y-31095479D01*
G75*
G02*
X63524948Y-31095479I-406586J406586D01*
G01*
X63348172Y-30918703D01*
G75*
G02*
X63348172Y-30105531I406586J406586D01*
G01*
X63348172Y-30105531D01*
G75*
G02*
X64161344Y-30105531I406586J-406586D01*
G01*
X64338120Y-30282307D01*
G75*
G02*
X64338120Y-31095479I-406586J-406586D01*
G01*
G37*
G36*
G01*
X65045227Y-31802586D02*
X65045227Y-31802586D01*
G75*
G02*
X64232055Y-31802586I-406586J406586D01*
G01*
X64055279Y-31625810D01*
G75*
G02*
X64055279Y-30812638I406586J406586D01*
G01*
X64055279Y-30812638D01*
G75*
G02*
X64868451Y-30812638I406586J-406586D01*
G01*
X65045227Y-30989414D01*
G75*
G02*
X65045227Y-31802586I-406586J-406586D01*
G01*
G37*
G36*
G01*
X66105887Y-35691673D02*
X66105887Y-35691673D01*
G75*
G02*
X65292715Y-35691673I-406586J406586D01*
G01*
X65115939Y-35514897D01*
G75*
G02*
X65115939Y-34701725I406586J406586D01*
G01*
X65115939Y-34701725D01*
G75*
G02*
X65929111Y-34701725I406586J-406586D01*
G01*
X66105887Y-34878501D01*
G75*
G02*
X66105887Y-35691673I-406586J-406586D01*
G01*
G37*
G36*
G01*
X66812993Y-36398780D02*
X66812993Y-36398780D01*
G75*
G02*
X65999821Y-36398780I-406586J406586D01*
G01*
X65823045Y-36222004D01*
G75*
G02*
X65823045Y-35408832I406586J406586D01*
G01*
X65823045Y-35408832D01*
G75*
G02*
X66636217Y-35408832I406586J-406586D01*
G01*
X66812993Y-35585608D01*
G75*
G02*
X66812993Y-36398780I-406586J-406586D01*
G01*
G37*
G36*
G01*
X67520100Y-37105887D02*
X67520100Y-37105887D01*
G75*
G02*
X66706928Y-37105887I-406586J406586D01*
G01*
X66530152Y-36929111D01*
G75*
G02*
X66530152Y-36115939I406586J406586D01*
G01*
X66530152Y-36115939D01*
G75*
G02*
X67343324Y-36115939I406586J-406586D01*
G01*
X67520100Y-36292715D01*
G75*
G02*
X67520100Y-37105887I-406586J-406586D01*
G01*
G37*
G36*
G01*
X67166547Y-33923906D02*
X67166547Y-33923906D01*
G75*
G02*
X66353375Y-33923906I-406586J406586D01*
G01*
X66176599Y-33747130D01*
G75*
G02*
X66176599Y-32933958I406586J406586D01*
G01*
X66176599Y-32933958D01*
G75*
G02*
X66989771Y-32933958I406586J-406586D01*
G01*
X67166547Y-33110734D01*
G75*
G02*
X67166547Y-33923906I-406586J-406586D01*
G01*
G37*
G36*
G01*
X66459440Y-34631013D02*
X66459440Y-34631013D01*
G75*
G02*
X65646268Y-34631013I-406586J406586D01*
G01*
X65469492Y-34454237D01*
G75*
G02*
X65469492Y-33641065I406586J406586D01*
G01*
X65469492Y-33641065D01*
G75*
G02*
X66282664Y-33641065I406586J-406586D01*
G01*
X66459440Y-33817841D01*
G75*
G02*
X66459440Y-34631013I-406586J-406586D01*
G01*
G37*
G36*
G01*
X65752333Y-35338120D02*
X65752333Y-35338120D01*
G75*
G02*
X64939161Y-35338120I-406586J406586D01*
G01*
X64762385Y-35161344D01*
G75*
G02*
X64762385Y-34348172I406586J406586D01*
G01*
X64762385Y-34348172D01*
G75*
G02*
X65575557Y-34348172I406586J-406586D01*
G01*
X65752333Y-34524948D01*
G75*
G02*
X65752333Y-35338120I-406586J-406586D01*
G01*
G37*
G36*
G01*
X65045227Y-36045227D02*
X65045227Y-36045227D01*
G75*
G02*
X64232055Y-36045227I-406586J406586D01*
G01*
X64055279Y-35868451D01*
G75*
G02*
X64055279Y-35055279I406586J406586D01*
G01*
X64055279Y-35055279D01*
G75*
G02*
X64868451Y-35055279I406586J-406586D01*
G01*
X65045227Y-35232055D01*
G75*
G02*
X65045227Y-36045227I-406586J-406586D01*
G01*
G37*
G36*
G01*
X64338120Y-36752333D02*
X64338120Y-36752333D01*
G75*
G02*
X63524948Y-36752333I-406586J406586D01*
G01*
X63348172Y-36575557D01*
G75*
G02*
X63348172Y-35762385I406586J406586D01*
G01*
X63348172Y-35762385D01*
G75*
G02*
X64161344Y-35762385I406586J-406586D01*
G01*
X64338120Y-35939161D01*
G75*
G02*
X64338120Y-36752333I-406586J-406586D01*
G01*
G37*
G36*
G01*
X63631013Y-37459440D02*
X63631013Y-37459440D01*
G75*
G02*
X62817841Y-37459440I-406586J406586D01*
G01*
X62641065Y-37282664D01*
G75*
G02*
X62641065Y-36469492I406586J406586D01*
G01*
X62641065Y-36469492D01*
G75*
G02*
X63454237Y-36469492I406586J-406586D01*
G01*
X63631013Y-36646268D01*
G75*
G02*
X63631013Y-37459440I-406586J-406586D01*
G01*
G37*
G36*
G01*
X63277460Y-38520100D02*
X63277460Y-38520100D01*
G75*
G02*
X62464288Y-38520100I-406586J406586D01*
G01*
X62287512Y-38343324D01*
G75*
G02*
X62287512Y-37530152I406586J406586D01*
G01*
X62287512Y-37530152D01*
G75*
G02*
X63100684Y-37530152I406586J-406586D01*
G01*
X63277460Y-37706928D01*
G75*
G02*
X63277460Y-38520100I-406586J-406586D01*
G01*
G37*
G36*
G01*
X63984566Y-39227207D02*
X63984566Y-39227207D01*
G75*
G02*
X63171394Y-39227207I-406586J406586D01*
G01*
X62994618Y-39050431D01*
G75*
G02*
X62994618Y-38237259I406586J406586D01*
G01*
X62994618Y-38237259D01*
G75*
G02*
X63807790Y-38237259I406586J-406586D01*
G01*
X63984566Y-38414035D01*
G75*
G02*
X63984566Y-39227207I-406586J-406586D01*
G01*
G37*
G36*
G01*
X64691673Y-39934314D02*
X64691673Y-39934314D01*
G75*
G02*
X63878501Y-39934314I-406586J406586D01*
G01*
X63701725Y-39757538D01*
G75*
G02*
X63701725Y-38944366I406586J406586D01*
G01*
X63701725Y-38944366D01*
G75*
G02*
X64514897Y-38944366I406586J-406586D01*
G01*
X64691673Y-39121142D01*
G75*
G02*
X64691673Y-39934314I-406586J-406586D01*
G01*
G37*
G36*
G01*
X65752333Y-39580760D02*
X65752333Y-39580760D01*
G75*
G02*
X64939161Y-39580760I-406586J406586D01*
G01*
X64762385Y-39403984D01*
G75*
G02*
X64762385Y-38590812I406586J406586D01*
G01*
X64762385Y-38590812D01*
G75*
G02*
X65575557Y-38590812I406586J-406586D01*
G01*
X65752333Y-38767588D01*
G75*
G02*
X65752333Y-39580760I-406586J-406586D01*
G01*
G37*
G36*
G01*
X66459440Y-38873654D02*
X66459440Y-38873654D01*
G75*
G02*
X65646268Y-38873654I-406586J406586D01*
G01*
X65469492Y-38696878D01*
G75*
G02*
X65469492Y-37883706I406586J406586D01*
G01*
X65469492Y-37883706D01*
G75*
G02*
X66282664Y-37883706I406586J-406586D01*
G01*
X66459440Y-38060482D01*
G75*
G02*
X66459440Y-38873654I-406586J-406586D01*
G01*
G37*
G36*
G01*
X67166547Y-38166547D02*
X67166547Y-38166547D01*
G75*
G02*
X66353375Y-38166547I-406586J406586D01*
G01*
X66176599Y-37989771D01*
G75*
G02*
X66176599Y-37176599I406586J406586D01*
G01*
X66176599Y-37176599D01*
G75*
G02*
X66989771Y-37176599I406586J-406586D01*
G01*
X67166547Y-37353375D01*
G75*
G02*
X67166547Y-38166547I-406586J-406586D01*
G01*
G37*
G36*
G01*
X67696877Y-41525304D02*
X67696877Y-41525304D01*
G75*
G02*
X66883705Y-41525304I-406586J406586D01*
G01*
X66706929Y-41348528D01*
G75*
G02*
X66706929Y-40535356I406586J406586D01*
G01*
X66706929Y-40535356D01*
G75*
G02*
X67520101Y-40535356I406586J-406586D01*
G01*
X67696877Y-40712132D01*
G75*
G02*
X67696877Y-41525304I-406586J-406586D01*
G01*
G37*
G36*
G01*
X68403984Y-40818197D02*
X68403984Y-40818197D01*
G75*
G02*
X67590812Y-40818197I-406586J406586D01*
G01*
X67414036Y-40641421D01*
G75*
G02*
X67414036Y-39828249I406586J406586D01*
G01*
X67414036Y-39828249D01*
G75*
G02*
X68227208Y-39828249I406586J-406586D01*
G01*
X68403984Y-40005025D01*
G75*
G02*
X68403984Y-40818197I-406586J-406586D01*
G01*
G37*
G36*
G01*
X69111091Y-40111091D02*
X69111091Y-40111091D01*
G75*
G02*
X68297919Y-40111091I-406586J406586D01*
G01*
X68121143Y-39934315D01*
G75*
G02*
X68121143Y-39121143I406586J406586D01*
G01*
X68121143Y-39121143D01*
G75*
G02*
X68934315Y-39121143I406586J-406586D01*
G01*
X69111091Y-39297919D01*
G75*
G02*
X69111091Y-40111091I-406586J-406586D01*
G01*
G37*
G36*
G01*
X70171751Y-39757537D02*
X70171751Y-39757537D01*
G75*
G02*
X69358579Y-39757537I-406586J406586D01*
G01*
X69181803Y-39580761D01*
G75*
G02*
X69181803Y-38767589I406586J406586D01*
G01*
X69181803Y-38767589D01*
G75*
G02*
X69994975Y-38767589I406586J-406586D01*
G01*
X70171751Y-38944365D01*
G75*
G02*
X70171751Y-39757537I-406586J-406586D01*
G01*
G37*
G36*
G01*
X70878857Y-40464644D02*
X70878857Y-40464644D01*
G75*
G02*
X70065685Y-40464644I-406586J406586D01*
G01*
X69888909Y-40287868D01*
G75*
G02*
X69888909Y-39474696I406586J406586D01*
G01*
X69888909Y-39474696D01*
G75*
G02*
X70702081Y-39474696I406586J-406586D01*
G01*
X70878857Y-39651472D01*
G75*
G02*
X70878857Y-40464644I-406586J-406586D01*
G01*
G37*
G36*
G01*
X71585964Y-41171751D02*
X71585964Y-41171751D01*
G75*
G02*
X70772792Y-41171751I-406586J406586D01*
G01*
X70596016Y-40994975D01*
G75*
G02*
X70596016Y-40181803I406586J406586D01*
G01*
X70596016Y-40181803D01*
G75*
G02*
X71409188Y-40181803I406586J-406586D01*
G01*
X71585964Y-40358579D01*
G75*
G02*
X71585964Y-41171751I-406586J-406586D01*
G01*
G37*
G36*
G01*
X67343324Y-42585964D02*
X67343324Y-42585964D01*
G75*
G02*
X66530152Y-42585964I-406586J406586D01*
G01*
X66353376Y-42409188D01*
G75*
G02*
X66353376Y-41596016I406586J406586D01*
G01*
X66353376Y-41596016D01*
G75*
G02*
X67166548Y-41596016I406586J-406586D01*
G01*
X67343324Y-41772792D01*
G75*
G02*
X67343324Y-42585964I-406586J-406586D01*
G01*
G37*
G36*
G01*
X68050430Y-43293071D02*
X68050430Y-43293071D01*
G75*
G02*
X67237258Y-43293071I-406586J406586D01*
G01*
X67060482Y-43116295D01*
G75*
G02*
X67060482Y-42303123I406586J406586D01*
G01*
X67060482Y-42303123D01*
G75*
G02*
X67873654Y-42303123I406586J-406586D01*
G01*
X68050430Y-42479899D01*
G75*
G02*
X68050430Y-43293071I-406586J-406586D01*
G01*
G37*
G36*
G01*
X68757537Y-44000178D02*
X68757537Y-44000178D01*
G75*
G02*
X67944365Y-44000178I-406586J406586D01*
G01*
X67767589Y-43823402D01*
G75*
G02*
X67767589Y-43010230I406586J406586D01*
G01*
X67767589Y-43010230D01*
G75*
G02*
X68580761Y-43010230I406586J-406586D01*
G01*
X68757537Y-43187006D01*
G75*
G02*
X68757537Y-44000178I-406586J-406586D01*
G01*
G37*
G36*
G01*
X69818197Y-43646624D02*
X69818197Y-43646624D01*
G75*
G02*
X69005025Y-43646624I-406586J406586D01*
G01*
X68828249Y-43469848D01*
G75*
G02*
X68828249Y-42656676I406586J406586D01*
G01*
X68828249Y-42656676D01*
G75*
G02*
X69641421Y-42656676I406586J-406586D01*
G01*
X69818197Y-42833452D01*
G75*
G02*
X69818197Y-43646624I-406586J-406586D01*
G01*
G37*
G36*
G01*
X70525304Y-42939518D02*
X70525304Y-42939518D01*
G75*
G02*
X69712132Y-42939518I-406586J406586D01*
G01*
X69535356Y-42762742D01*
G75*
G02*
X69535356Y-41949570I406586J406586D01*
G01*
X69535356Y-41949570D01*
G75*
G02*
X70348528Y-41949570I406586J-406586D01*
G01*
X70525304Y-42126346D01*
G75*
G02*
X70525304Y-42939518I-406586J-406586D01*
G01*
G37*
G36*
G01*
X71232411Y-42232411D02*
X71232411Y-42232411D01*
G75*
G02*
X70419239Y-42232411I-406586J406586D01*
G01*
X70242463Y-42055635D01*
G75*
G02*
X70242463Y-41242463I406586J406586D01*
G01*
X70242463Y-41242463D01*
G75*
G02*
X71055635Y-41242463I406586J-406586D01*
G01*
X71232411Y-41419239D01*
G75*
G02*
X71232411Y-42232411I-406586J-406586D01*
G01*
G37*
G36*
G01*
X71939518Y-41525304D02*
X71939518Y-41525304D01*
G75*
G02*
X71126346Y-41525304I-406586J406586D01*
G01*
X70949570Y-41348528D01*
G75*
G02*
X70949570Y-40535356I406586J406586D01*
G01*
X70949570Y-40535356D01*
G75*
G02*
X71762742Y-40535356I406586J-406586D01*
G01*
X71939518Y-40712132D01*
G75*
G02*
X71939518Y-41525304I-406586J-406586D01*
G01*
G37*
G36*
G01*
X72646624Y-40818197D02*
X72646624Y-40818197D01*
G75*
G02*
X71833452Y-40818197I-406586J406586D01*
G01*
X71656676Y-40641421D01*
G75*
G02*
X71656676Y-39828249I406586J406586D01*
G01*
X71656676Y-39828249D01*
G75*
G02*
X72469848Y-39828249I406586J-406586D01*
G01*
X72646624Y-40005025D01*
G75*
G02*
X72646624Y-40818197I-406586J-406586D01*
G01*
G37*
G36*
G01*
X73353731Y-40111091D02*
X73353731Y-40111091D01*
G75*
G02*
X72540559Y-40111091I-406586J406586D01*
G01*
X72363783Y-39934315D01*
G75*
G02*
X72363783Y-39121143I406586J406586D01*
G01*
X72363783Y-39121143D01*
G75*
G02*
X73176955Y-39121143I406586J-406586D01*
G01*
X73353731Y-39297919D01*
G75*
G02*
X73353731Y-40111091I-406586J-406586D01*
G01*
G37*
G36*
G01*
X71055634Y-46298275D02*
X71055634Y-46298275D01*
G75*
G02*
X70242462Y-46298275I-406586J406586D01*
G01*
X70065686Y-46121499D01*
G75*
G02*
X70065686Y-45308327I406586J406586D01*
G01*
X70065686Y-45308327D01*
G75*
G02*
X70878858Y-45308327I406586J-406586D01*
G01*
X71055634Y-45485103D01*
G75*
G02*
X71055634Y-46298275I-406586J-406586D01*
G01*
G37*
G36*
G01*
X71762741Y-47005382D02*
X71762741Y-47005382D01*
G75*
G02*
X70949569Y-47005382I-406586J406586D01*
G01*
X70772793Y-46828606D01*
G75*
G02*
X70772793Y-46015434I406586J406586D01*
G01*
X70772793Y-46015434D01*
G75*
G02*
X71585965Y-46015434I406586J-406586D01*
G01*
X71762741Y-46192210D01*
G75*
G02*
X71762741Y-47005382I-406586J-406586D01*
G01*
G37*
G36*
G01*
X72469848Y-47712488D02*
X72469848Y-47712488D01*
G75*
G02*
X71656676Y-47712488I-406586J406586D01*
G01*
X71479900Y-47535712D01*
G75*
G02*
X71479900Y-46722540I406586J406586D01*
G01*
X71479900Y-46722540D01*
G75*
G02*
X72293072Y-46722540I406586J-406586D01*
G01*
X72469848Y-46899316D01*
G75*
G02*
X72469848Y-47712488I-406586J-406586D01*
G01*
G37*
G36*
G01*
X73530508Y-47358935D02*
X73530508Y-47358935D01*
G75*
G02*
X72717336Y-47358935I-406586J406586D01*
G01*
X72540560Y-47182159D01*
G75*
G02*
X72540560Y-46368987I406586J406586D01*
G01*
X72540560Y-46368987D01*
G75*
G02*
X73353732Y-46368987I406586J-406586D01*
G01*
X73530508Y-46545763D01*
G75*
G02*
X73530508Y-47358935I-406586J-406586D01*
G01*
G37*
G36*
G01*
X74237615Y-46651828D02*
X74237615Y-46651828D01*
G75*
G02*
X73424443Y-46651828I-406586J406586D01*
G01*
X73247667Y-46475052D01*
G75*
G02*
X73247667Y-45661880I406586J406586D01*
G01*
X73247667Y-45661880D01*
G75*
G02*
X74060839Y-45661880I406586J-406586D01*
G01*
X74237615Y-45838656D01*
G75*
G02*
X74237615Y-46651828I-406586J-406586D01*
G01*
G37*
G36*
G01*
X74944721Y-45944721D02*
X74944721Y-45944721D01*
G75*
G02*
X74131549Y-45944721I-406586J406586D01*
G01*
X73954773Y-45767945D01*
G75*
G02*
X73954773Y-44954773I406586J406586D01*
G01*
X73954773Y-44954773D01*
G75*
G02*
X74767945Y-44954773I406586J-406586D01*
G01*
X74944721Y-45131549D01*
G75*
G02*
X74944721Y-45944721I-406586J-406586D01*
G01*
G37*
G36*
G01*
X74591168Y-44176955D02*
X74591168Y-44176955D01*
G75*
G02*
X73777996Y-44176955I-406586J406586D01*
G01*
X73601220Y-44000179D01*
G75*
G02*
X73601220Y-43187007I406586J406586D01*
G01*
X73601220Y-43187007D01*
G75*
G02*
X74414392Y-43187007I406586J-406586D01*
G01*
X74591168Y-43363783D01*
G75*
G02*
X74591168Y-44176955I-406586J-406586D01*
G01*
G37*
G36*
G01*
X75298275Y-44884061D02*
X75298275Y-44884061D01*
G75*
G02*
X74485103Y-44884061I-406586J406586D01*
G01*
X74308327Y-44707285D01*
G75*
G02*
X74308327Y-43894113I406586J406586D01*
G01*
X74308327Y-43894113D01*
G75*
G02*
X75121499Y-43894113I406586J-406586D01*
G01*
X75298275Y-44070889D01*
G75*
G02*
X75298275Y-44884061I-406586J-406586D01*
G01*
G37*
G36*
G01*
X76005382Y-45591168D02*
X76005382Y-45591168D01*
G75*
G02*
X75192210Y-45591168I-406586J406586D01*
G01*
X75015434Y-45414392D01*
G75*
G02*
X75015434Y-44601220I406586J406586D01*
G01*
X75015434Y-44601220D01*
G75*
G02*
X75828606Y-44601220I406586J-406586D01*
G01*
X76005382Y-44777996D01*
G75*
G02*
X76005382Y-45591168I-406586J-406586D01*
G01*
G37*
G36*
G01*
X76358935Y-44530508D02*
X76358935Y-44530508D01*
G75*
G02*
X75545763Y-44530508I-406586J406586D01*
G01*
X75368987Y-44353732D01*
G75*
G02*
X75368987Y-43540560I406586J406586D01*
G01*
X75368987Y-43540560D01*
G75*
G02*
X76182159Y-43540560I406586J-406586D01*
G01*
X76358935Y-43717336D01*
G75*
G02*
X76358935Y-44530508I-406586J-406586D01*
G01*
G37*
G36*
G01*
X77066042Y-43823401D02*
X77066042Y-43823401D01*
G75*
G02*
X76252870Y-43823401I-406586J406586D01*
G01*
X76076094Y-43646625D01*
G75*
G02*
X76076094Y-42833453I406586J406586D01*
G01*
X76076094Y-42833453D01*
G75*
G02*
X76889266Y-42833453I406586J-406586D01*
G01*
X77066042Y-43010229D01*
G75*
G02*
X77066042Y-43823401I-406586J-406586D01*
G01*
G37*
G36*
G01*
X77066042Y-50894469D02*
X77066042Y-50894469D01*
G75*
G02*
X76252870Y-50894469I-406586J406586D01*
G01*
X76076094Y-50717693D01*
G75*
G02*
X76076094Y-49904521I406586J406586D01*
G01*
X76076094Y-49904521D01*
G75*
G02*
X76889266Y-49904521I406586J-406586D01*
G01*
X77066042Y-50081297D01*
G75*
G02*
X77066042Y-50894469I-406586J-406586D01*
G01*
G37*
G36*
G01*
X74944721Y-50187362D02*
X74944721Y-50187362D01*
G75*
G02*
X74131549Y-50187362I-406586J406586D01*
G01*
X73954773Y-50010586D01*
G75*
G02*
X73954773Y-49197414I406586J406586D01*
G01*
X73954773Y-49197414D01*
G75*
G02*
X74767945Y-49197414I406586J-406586D01*
G01*
X74944721Y-49374190D01*
G75*
G02*
X74944721Y-50187362I-406586J-406586D01*
G01*
G37*
G36*
G01*
X75651828Y-50894469D02*
X75651828Y-50894469D01*
G75*
G02*
X74838656Y-50894469I-406586J406586D01*
G01*
X74661880Y-50717693D01*
G75*
G02*
X74661880Y-49904521I406586J406586D01*
G01*
X74661880Y-49904521D01*
G75*
G02*
X75475052Y-49904521I406586J-406586D01*
G01*
X75651828Y-50081297D01*
G75*
G02*
X75651828Y-50894469I-406586J-406586D01*
G01*
G37*
G36*
G01*
X76358935Y-51601576D02*
X76358935Y-51601576D01*
G75*
G02*
X75545763Y-51601576I-406586J406586D01*
G01*
X75368987Y-51424800D01*
G75*
G02*
X75368987Y-50611628I406586J406586D01*
G01*
X75368987Y-50611628D01*
G75*
G02*
X76182159Y-50611628I406586J-406586D01*
G01*
X76358935Y-50788404D01*
G75*
G02*
X76358935Y-51601576I-406586J-406586D01*
G01*
G37*
G36*
G01*
X77773149Y-50187362D02*
X77773149Y-50187362D01*
G75*
G02*
X76959977Y-50187362I-406586J406586D01*
G01*
X76783201Y-50010586D01*
G75*
G02*
X76783201Y-49197414I406586J406586D01*
G01*
X76783201Y-49197414D01*
G75*
G02*
X77596373Y-49197414I406586J-406586D01*
G01*
X77773149Y-49374190D01*
G75*
G02*
X77773149Y-50187362I-406586J-406586D01*
G01*
G37*
G36*
G01*
X79187362Y-45944721D02*
X79187362Y-45944721D01*
G75*
G02*
X78374190Y-45944721I-406586J406586D01*
G01*
X78197414Y-45767945D01*
G75*
G02*
X78197414Y-44954773I406586J406586D01*
G01*
X78197414Y-44954773D01*
G75*
G02*
X79010586Y-44954773I406586J-406586D01*
G01*
X79187362Y-45131549D01*
G75*
G02*
X79187362Y-45944721I-406586J-406586D01*
G01*
G37*
G36*
G01*
X79894469Y-46651828D02*
X79894469Y-46651828D01*
G75*
G02*
X79081297Y-46651828I-406586J406586D01*
G01*
X78904521Y-46475052D01*
G75*
G02*
X78904521Y-45661880I406586J406586D01*
G01*
X78904521Y-45661880D01*
G75*
G02*
X79717693Y-45661880I406586J-406586D01*
G01*
X79894469Y-45838656D01*
G75*
G02*
X79894469Y-46651828I-406586J-406586D01*
G01*
G37*
G36*
G01*
X80601576Y-47358935D02*
X80601576Y-47358935D01*
G75*
G02*
X79788404Y-47358935I-406586J406586D01*
G01*
X79611628Y-47182159D01*
G75*
G02*
X79611628Y-46368987I406586J406586D01*
G01*
X79611628Y-46368987D01*
G75*
G02*
X80424800Y-46368987I406586J-406586D01*
G01*
X80601576Y-46545763D01*
G75*
G02*
X80601576Y-47358935I-406586J-406586D01*
G01*
G37*
G36*
G01*
X79894469Y-48066042D02*
X79894469Y-48066042D01*
G75*
G02*
X79081297Y-48066042I-406586J406586D01*
G01*
X78904521Y-47889266D01*
G75*
G02*
X78904521Y-47076094I406586J406586D01*
G01*
X78904521Y-47076094D01*
G75*
G02*
X79717693Y-47076094I406586J-406586D01*
G01*
X79894469Y-47252870D01*
G75*
G02*
X79894469Y-48066042I-406586J-406586D01*
G01*
G37*
G36*
G01*
X79187362Y-48773149D02*
X79187362Y-48773149D01*
G75*
G02*
X78374190Y-48773149I-406586J406586D01*
G01*
X78197414Y-48596373D01*
G75*
G02*
X78197414Y-47783201I406586J406586D01*
G01*
X78197414Y-47783201D01*
G75*
G02*
X79010586Y-47783201I406586J-406586D01*
G01*
X79187362Y-47959977D01*
G75*
G02*
X79187362Y-48773149I-406586J-406586D01*
G01*
G37*
G36*
G01*
X78480255Y-49480255D02*
X78480255Y-49480255D01*
G75*
G02*
X77667083Y-49480255I-406586J406586D01*
G01*
X77490307Y-49303479D01*
G75*
G02*
X77490307Y-48490307I406586J406586D01*
G01*
X77490307Y-48490307D01*
G75*
G02*
X78303479Y-48490307I406586J-406586D01*
G01*
X78480255Y-48667083D01*
G75*
G02*
X78480255Y-49480255I-406586J-406586D01*
G01*
G37*
%TD*%
D10*
%TO.C,J2*%
X78242102Y-35352102D03*
D11*
G36*
X72882233Y-31760000D02*
G01*
X74650000Y-29992233D01*
X76417767Y-31760000D01*
X74650000Y-33527767D01*
X72882233Y-31760000D01*
G37*
%TD*%
%TO.C,J1*%
G36*
G01*
X49491062Y-67693144D02*
X49491062Y-67693144D01*
G75*
G02*
X49491062Y-66491062I601041J601041D01*
G01*
X49491062Y-66491062D01*
G75*
G02*
X50693144Y-66491062I601041J-601041D01*
G01*
X50693144Y-66491062D01*
G75*
G02*
X50693144Y-67693144I-601041J-601041D01*
G01*
X50693144Y-67693144D01*
G75*
G02*
X49491062Y-67693144I-601041J601041D01*
G01*
G37*
G36*
G01*
X47695011Y-65897093D02*
X47695011Y-65897093D01*
G75*
G02*
X47695011Y-64695011I601041J601041D01*
G01*
X47695011Y-64695011D01*
G75*
G02*
X48897093Y-64695011I601041J-601041D01*
G01*
X48897093Y-64695011D01*
G75*
G02*
X48897093Y-65897093I-601041J-601041D01*
G01*
X48897093Y-65897093D01*
G75*
G02*
X47695011Y-65897093I-601041J601041D01*
G01*
G37*
G36*
G01*
X45898959Y-64101041D02*
X45898959Y-64101041D01*
G75*
G02*
X45898959Y-62898959I601041J601041D01*
G01*
X45898959Y-62898959D01*
G75*
G02*
X47101041Y-62898959I601041J-601041D01*
G01*
X47101041Y-62898959D01*
G75*
G02*
X47101041Y-64101041I-601041J-601041D01*
G01*
X47101041Y-64101041D01*
G75*
G02*
X45898959Y-64101041I-601041J601041D01*
G01*
G37*
G36*
G01*
X44102908Y-62304990D02*
X44102908Y-62304990D01*
G75*
G02*
X44102908Y-61102908I601041J601041D01*
G01*
X44102908Y-61102908D01*
G75*
G02*
X45304990Y-61102908I601041J-601041D01*
G01*
X45304990Y-61102908D01*
G75*
G02*
X45304990Y-62304990I-601041J-601041D01*
G01*
X45304990Y-62304990D01*
G75*
G02*
X44102908Y-62304990I-601041J601041D01*
G01*
G37*
G36*
X42907898Y-61109980D02*
G01*
X41705816Y-59907898D01*
X42907898Y-58705816D01*
X44109980Y-59907898D01*
X42907898Y-61109980D01*
G37*
%TD*%
M02*
