%TF.GenerationSoftware,KiCad,Pcbnew,5.1.9+dfsg1-1+deb11u1*%
%TF.CreationDate,2024-07-25T19:41:34+02:00*%
%TF.ProjectId,label1,6c616265-6c31-42e6-9b69-6361645f7063,rev?*%
%TF.SameCoordinates,Original*%
%TF.FileFunction,Paste,Top*%
%TF.FilePolarity,Positive*%
%FSLAX46Y46*%
G04 Gerber Fmt 4.6, Leading zero omitted, Abs format (unit mm)*
G04 Created by KiCad (PCBNEW 5.1.9+dfsg1-1+deb11u1) date 2024-07-25 19:41:34*
%MOMM*%
%LPD*%
G01*
G04 APERTURE LIST*
%ADD10C,0.100000*%
%ADD11R,2.000000X2.800000*%
%ADD12R,1.000000X2.800000*%
%ADD13R,1.100000X2.600000*%
%ADD14R,2.600000X1.100000*%
%ADD15R,0.800000X1.900000*%
G04 APERTURE END LIST*
D10*
%TO.C,U2*%
G36*
X47274659Y-71710732D02*
G01*
X48688873Y-73124946D01*
X47840345Y-73973474D01*
X46426131Y-72559260D01*
X47274659Y-71710732D01*
G37*
G36*
X49070710Y-69914680D02*
G01*
X50484924Y-71328894D01*
X49636396Y-72177422D01*
X48222182Y-70763208D01*
X49070710Y-69914680D01*
G37*
G36*
X50866762Y-68118629D02*
G01*
X52280976Y-69532843D01*
X51432448Y-70381371D01*
X50018234Y-68967157D01*
X50866762Y-68118629D01*
G37*
%TD*%
D11*
%TO.C,D41*%
X34250000Y-54000000D03*
D12*
X32250000Y-54000000D03*
%TD*%
D10*
%TO.C,U1*%
G36*
X36868450Y-69596016D02*
G01*
X36302765Y-70161701D01*
X35383526Y-69242462D01*
X35949211Y-68676777D01*
X36868450Y-69596016D01*
G37*
G36*
X37773547Y-68690919D02*
G01*
X37207862Y-69256604D01*
X36288623Y-68337365D01*
X36854308Y-67771680D01*
X37773547Y-68690919D01*
G37*
G36*
X38664502Y-67799965D02*
G01*
X38098817Y-68365650D01*
X37179578Y-67446411D01*
X37745263Y-66880726D01*
X38664502Y-67799965D01*
G37*
G36*
X39562527Y-66901939D02*
G01*
X38996842Y-67467624D01*
X38077603Y-66548385D01*
X38643288Y-65982700D01*
X39562527Y-66901939D01*
G37*
G36*
X40467624Y-65996842D02*
G01*
X39901939Y-66562527D01*
X38982700Y-65643288D01*
X39548385Y-65077603D01*
X40467624Y-65996842D01*
G37*
G36*
X41365650Y-65098817D02*
G01*
X40799965Y-65664502D01*
X39880726Y-64745263D01*
X40446411Y-64179578D01*
X41365650Y-65098817D01*
G37*
G36*
X42256604Y-64207862D02*
G01*
X41690919Y-64773547D01*
X40771680Y-63854308D01*
X41337365Y-63288623D01*
X42256604Y-64207862D01*
G37*
G36*
X43161701Y-63302765D02*
G01*
X42596016Y-63868450D01*
X41676777Y-62949211D01*
X42242462Y-62383526D01*
X43161701Y-63302765D01*
G37*
G36*
X47616474Y-67757538D02*
G01*
X47050789Y-68323223D01*
X46131550Y-67403984D01*
X46697235Y-66838299D01*
X47616474Y-67757538D01*
G37*
G36*
X46711377Y-68662635D02*
G01*
X46145692Y-69228320D01*
X45226453Y-68309081D01*
X45792138Y-67743396D01*
X46711377Y-68662635D01*
G37*
G36*
X45820422Y-69553589D02*
G01*
X45254737Y-70119274D01*
X44335498Y-69200035D01*
X44901183Y-68634350D01*
X45820422Y-69553589D01*
G37*
G36*
X44922397Y-70451615D02*
G01*
X44356712Y-71017300D01*
X43437473Y-70098061D01*
X44003158Y-69532376D01*
X44922397Y-70451615D01*
G37*
G36*
X44017300Y-71356712D02*
G01*
X43451615Y-71922397D01*
X42532376Y-71003158D01*
X43098061Y-70437473D01*
X44017300Y-71356712D01*
G37*
G36*
X43119274Y-72254737D02*
G01*
X42553589Y-72820422D01*
X41634350Y-71901183D01*
X42200035Y-71335498D01*
X43119274Y-72254737D01*
G37*
G36*
X42228320Y-73145692D02*
G01*
X41662635Y-73711377D01*
X40743396Y-72792138D01*
X41309081Y-72226453D01*
X42228320Y-73145692D01*
G37*
G36*
X41323223Y-74050789D02*
G01*
X40757538Y-74616474D01*
X39838299Y-73697235D01*
X40403984Y-73131550D01*
X41323223Y-74050789D01*
G37*
%TD*%
D13*
%TO.C,D4*%
X66750000Y-82250000D03*
X68500000Y-82250000D03*
X70250000Y-82250000D03*
X70250000Y-87750000D03*
X68500000Y-87750000D03*
X66750000Y-87750000D03*
%TD*%
%TO.C,R1*%
G36*
G01*
X31500000Y-66549600D02*
X31500000Y-67450400D01*
G75*
G02*
X31250400Y-67700000I-249600J0D01*
G01*
X30549600Y-67700000D01*
G75*
G02*
X30300000Y-67450400I0J249600D01*
G01*
X30300000Y-66549600D01*
G75*
G02*
X30549600Y-66300000I249600J0D01*
G01*
X31250400Y-66300000D01*
G75*
G02*
X31500000Y-66549600I0J-249600D01*
G01*
G37*
G36*
G01*
X33700000Y-66549600D02*
X33700000Y-67450400D01*
G75*
G02*
X33450400Y-67700000I-249600J0D01*
G01*
X32749600Y-67700000D01*
G75*
G02*
X32500000Y-67450400I0J249600D01*
G01*
X32500000Y-66549600D01*
G75*
G02*
X32749600Y-66300000I249600J0D01*
G01*
X33450400Y-66300000D01*
G75*
G02*
X33700000Y-66549600I0J-249600D01*
G01*
G37*
%TD*%
%TO.C,R9*%
G36*
G01*
X33827966Y-75535072D02*
X34464928Y-76172034D01*
G75*
G02*
X34464928Y-76525022I-176494J-176494D01*
G01*
X33969388Y-77020562D01*
G75*
G02*
X33616400Y-77020562I-176494J176494D01*
G01*
X32979438Y-76383600D01*
G75*
G02*
X32979438Y-76030612I176494J176494D01*
G01*
X33474978Y-75535072D01*
G75*
G02*
X33827966Y-75535072I176494J-176494D01*
G01*
G37*
G36*
G01*
X35383600Y-73979438D02*
X36020562Y-74616400D01*
G75*
G02*
X36020562Y-74969388I-176494J-176494D01*
G01*
X35525022Y-75464928D01*
G75*
G02*
X35172034Y-75464928I-176494J176494D01*
G01*
X34535072Y-74827966D01*
G75*
G02*
X34535072Y-74474978I176494J176494D01*
G01*
X35030612Y-73979438D01*
G75*
G02*
X35383600Y-73979438I176494J-176494D01*
G01*
G37*
%TD*%
%TO.C,R8*%
G36*
G01*
X42549600Y-78500000D02*
X43450400Y-78500000D01*
G75*
G02*
X43700000Y-78749600I0J-249600D01*
G01*
X43700000Y-79450400D01*
G75*
G02*
X43450400Y-79700000I-249600J0D01*
G01*
X42549600Y-79700000D01*
G75*
G02*
X42300000Y-79450400I0J249600D01*
G01*
X42300000Y-78749600D01*
G75*
G02*
X42549600Y-78500000I249600J0D01*
G01*
G37*
G36*
G01*
X42549600Y-76300000D02*
X43450400Y-76300000D01*
G75*
G02*
X43700000Y-76549600I0J-249600D01*
G01*
X43700000Y-77250400D01*
G75*
G02*
X43450400Y-77500000I-249600J0D01*
G01*
X42549600Y-77500000D01*
G75*
G02*
X42300000Y-77250400I0J249600D01*
G01*
X42300000Y-76549600D01*
G75*
G02*
X42549600Y-76300000I249600J0D01*
G01*
G37*
%TD*%
%TO.C,R7*%
G36*
G01*
X40549600Y-78500000D02*
X41450400Y-78500000D01*
G75*
G02*
X41700000Y-78749600I0J-249600D01*
G01*
X41700000Y-79450400D01*
G75*
G02*
X41450400Y-79700000I-249600J0D01*
G01*
X40549600Y-79700000D01*
G75*
G02*
X40300000Y-79450400I0J249600D01*
G01*
X40300000Y-78749600D01*
G75*
G02*
X40549600Y-78500000I249600J0D01*
G01*
G37*
G36*
G01*
X40549600Y-76300000D02*
X41450400Y-76300000D01*
G75*
G02*
X41700000Y-76549600I0J-249600D01*
G01*
X41700000Y-77250400D01*
G75*
G02*
X41450400Y-77500000I-249600J0D01*
G01*
X40549600Y-77500000D01*
G75*
G02*
X40300000Y-77250400I0J249600D01*
G01*
X40300000Y-76549600D01*
G75*
G02*
X40549600Y-76300000I249600J0D01*
G01*
G37*
%TD*%
%TO.C,R6*%
G36*
G01*
X38549600Y-78500000D02*
X39450400Y-78500000D01*
G75*
G02*
X39700000Y-78749600I0J-249600D01*
G01*
X39700000Y-79450400D01*
G75*
G02*
X39450400Y-79700000I-249600J0D01*
G01*
X38549600Y-79700000D01*
G75*
G02*
X38300000Y-79450400I0J249600D01*
G01*
X38300000Y-78749600D01*
G75*
G02*
X38549600Y-78500000I249600J0D01*
G01*
G37*
G36*
G01*
X38549600Y-76300000D02*
X39450400Y-76300000D01*
G75*
G02*
X39700000Y-76549600I0J-249600D01*
G01*
X39700000Y-77250400D01*
G75*
G02*
X39450400Y-77500000I-249600J0D01*
G01*
X38549600Y-77500000D01*
G75*
G02*
X38300000Y-77250400I0J249600D01*
G01*
X38300000Y-76549600D01*
G75*
G02*
X38549600Y-76300000I249600J0D01*
G01*
G37*
%TD*%
%TO.C,R5*%
G36*
G01*
X35327966Y-77035072D02*
X35964928Y-77672034D01*
G75*
G02*
X35964928Y-78025022I-176494J-176494D01*
G01*
X35469388Y-78520562D01*
G75*
G02*
X35116400Y-78520562I-176494J176494D01*
G01*
X34479438Y-77883600D01*
G75*
G02*
X34479438Y-77530612I176494J176494D01*
G01*
X34974978Y-77035072D01*
G75*
G02*
X35327966Y-77035072I176494J-176494D01*
G01*
G37*
G36*
G01*
X36883600Y-75479438D02*
X37520562Y-76116400D01*
G75*
G02*
X37520562Y-76469388I-176494J-176494D01*
G01*
X37025022Y-76964928D01*
G75*
G02*
X36672034Y-76964928I-176494J176494D01*
G01*
X36035072Y-76327966D01*
G75*
G02*
X36035072Y-75974978I176494J176494D01*
G01*
X36530612Y-75479438D01*
G75*
G02*
X36883600Y-75479438I176494J-176494D01*
G01*
G37*
%TD*%
%TO.C,R4*%
G36*
G01*
X32327966Y-74035072D02*
X32964928Y-74672034D01*
G75*
G02*
X32964928Y-75025022I-176494J-176494D01*
G01*
X32469388Y-75520562D01*
G75*
G02*
X32116400Y-75520562I-176494J176494D01*
G01*
X31479438Y-74883600D01*
G75*
G02*
X31479438Y-74530612I176494J176494D01*
G01*
X31974978Y-74035072D01*
G75*
G02*
X32327966Y-74035072I176494J-176494D01*
G01*
G37*
G36*
G01*
X33883600Y-72479438D02*
X34520562Y-73116400D01*
G75*
G02*
X34520562Y-73469388I-176494J-176494D01*
G01*
X34025022Y-73964928D01*
G75*
G02*
X33672034Y-73964928I-176494J176494D01*
G01*
X33035072Y-73327966D01*
G75*
G02*
X33035072Y-72974978I176494J176494D01*
G01*
X33530612Y-72479438D01*
G75*
G02*
X33883600Y-72479438I176494J-176494D01*
G01*
G37*
%TD*%
%TO.C,R3*%
G36*
G01*
X31500000Y-70549600D02*
X31500000Y-71450400D01*
G75*
G02*
X31250400Y-71700000I-249600J0D01*
G01*
X30549600Y-71700000D01*
G75*
G02*
X30300000Y-71450400I0J249600D01*
G01*
X30300000Y-70549600D01*
G75*
G02*
X30549600Y-70300000I249600J0D01*
G01*
X31250400Y-70300000D01*
G75*
G02*
X31500000Y-70549600I0J-249600D01*
G01*
G37*
G36*
G01*
X33700000Y-70549600D02*
X33700000Y-71450400D01*
G75*
G02*
X33450400Y-71700000I-249600J0D01*
G01*
X32749600Y-71700000D01*
G75*
G02*
X32500000Y-71450400I0J249600D01*
G01*
X32500000Y-70549600D01*
G75*
G02*
X32749600Y-70300000I249600J0D01*
G01*
X33450400Y-70300000D01*
G75*
G02*
X33700000Y-70549600I0J-249600D01*
G01*
G37*
%TD*%
%TO.C,R2*%
G36*
G01*
X31500000Y-68549600D02*
X31500000Y-69450400D01*
G75*
G02*
X31250400Y-69700000I-249600J0D01*
G01*
X30549600Y-69700000D01*
G75*
G02*
X30300000Y-69450400I0J249600D01*
G01*
X30300000Y-68549600D01*
G75*
G02*
X30549600Y-68300000I249600J0D01*
G01*
X31250400Y-68300000D01*
G75*
G02*
X31500000Y-68549600I0J-249600D01*
G01*
G37*
G36*
G01*
X33700000Y-68549600D02*
X33700000Y-69450400D01*
G75*
G02*
X33450400Y-69700000I-249600J0D01*
G01*
X32749600Y-69700000D01*
G75*
G02*
X32500000Y-69450400I0J249600D01*
G01*
X32500000Y-68549600D01*
G75*
G02*
X32749600Y-68300000I249600J0D01*
G01*
X33450400Y-68300000D01*
G75*
G02*
X33700000Y-68549600I0J-249600D01*
G01*
G37*
%TD*%
%TO.C,D24*%
X79250000Y-27750000D03*
X77500000Y-27750000D03*
X75750000Y-27750000D03*
X75750000Y-22250000D03*
X77500000Y-22250000D03*
X79250000Y-22250000D03*
%TD*%
D14*
%TO.C,D23*%
X87750000Y-30750000D03*
X87750000Y-32500000D03*
X87750000Y-34250000D03*
X82250000Y-34250000D03*
X82250000Y-32500000D03*
X82250000Y-30750000D03*
%TD*%
D13*
%TO.C,D22*%
X66750000Y-22250000D03*
X68500000Y-22250000D03*
X70250000Y-22250000D03*
X70250000Y-27750000D03*
X68500000Y-27750000D03*
X66750000Y-27750000D03*
%TD*%
D14*
%TO.C,D21*%
X82250000Y-43250000D03*
X82250000Y-41500000D03*
X82250000Y-39750000D03*
X87750000Y-39750000D03*
X87750000Y-41500000D03*
X87750000Y-43250000D03*
%TD*%
D13*
%TO.C,D20*%
X61250000Y-27750000D03*
X59500000Y-27750000D03*
X57750000Y-27750000D03*
X57750000Y-22250000D03*
X59500000Y-22250000D03*
X61250000Y-22250000D03*
%TD*%
D14*
%TO.C,D19*%
X87750000Y-48750000D03*
X87750000Y-50500000D03*
X87750000Y-52250000D03*
X82250000Y-52250000D03*
X82250000Y-50500000D03*
X82250000Y-48750000D03*
%TD*%
D13*
%TO.C,D18*%
X48750000Y-22250000D03*
X50500000Y-22250000D03*
X52250000Y-22250000D03*
X52250000Y-27750000D03*
X50500000Y-27750000D03*
X48750000Y-27750000D03*
%TD*%
D14*
%TO.C,D17*%
X82250000Y-61250000D03*
X82250000Y-59500000D03*
X82250000Y-57750000D03*
X87750000Y-57750000D03*
X87750000Y-59500000D03*
X87750000Y-61250000D03*
%TD*%
D13*
%TO.C,D16*%
X43250000Y-27750000D03*
X41500000Y-27750000D03*
X39750000Y-27750000D03*
X39750000Y-22250000D03*
X41500000Y-22250000D03*
X43250000Y-22250000D03*
%TD*%
D14*
%TO.C,D15*%
X87750000Y-66750000D03*
X87750000Y-68500000D03*
X87750000Y-70250000D03*
X82250000Y-70250000D03*
X82250000Y-68500000D03*
X82250000Y-66750000D03*
%TD*%
D13*
%TO.C,D14*%
X30750000Y-22250000D03*
X32500000Y-22250000D03*
X34250000Y-22250000D03*
X34250000Y-27750000D03*
X32500000Y-27750000D03*
X30750000Y-27750000D03*
%TD*%
D14*
%TO.C,D13*%
X82250000Y-79250000D03*
X82250000Y-77500000D03*
X82250000Y-75750000D03*
X87750000Y-75750000D03*
X87750000Y-77500000D03*
X87750000Y-79250000D03*
%TD*%
D13*
%TO.C,D12*%
X30750000Y-82250000D03*
X32500000Y-82250000D03*
X34250000Y-82250000D03*
X34250000Y-87750000D03*
X32500000Y-87750000D03*
X30750000Y-87750000D03*
%TD*%
D14*
%TO.C,D11*%
X22250000Y-79250000D03*
X22250000Y-77500000D03*
X22250000Y-75750000D03*
X27750000Y-75750000D03*
X27750000Y-77500000D03*
X27750000Y-79250000D03*
%TD*%
D13*
%TO.C,D10*%
X43250000Y-87750000D03*
X41500000Y-87750000D03*
X39750000Y-87750000D03*
X39750000Y-82250000D03*
X41500000Y-82250000D03*
X43250000Y-82250000D03*
%TD*%
D14*
%TO.C,D9*%
X27750000Y-66750000D03*
X27750000Y-68500000D03*
X27750000Y-70250000D03*
X22250000Y-70250000D03*
X22250000Y-68500000D03*
X22250000Y-66750000D03*
%TD*%
D13*
%TO.C,D8*%
X48750000Y-82250000D03*
X50500000Y-82250000D03*
X52250000Y-82250000D03*
X52250000Y-87750000D03*
X50500000Y-87750000D03*
X48750000Y-87750000D03*
%TD*%
D14*
%TO.C,D7*%
X22250000Y-61250000D03*
X22250000Y-59500000D03*
X22250000Y-57750000D03*
X27750000Y-57750000D03*
X27750000Y-59500000D03*
X27750000Y-61250000D03*
%TD*%
D13*
%TO.C,D6*%
X61250000Y-87750000D03*
X59500000Y-87750000D03*
X57750000Y-87750000D03*
X57750000Y-82250000D03*
X59500000Y-82250000D03*
X61250000Y-82250000D03*
%TD*%
D14*
%TO.C,D5*%
X27750000Y-48750000D03*
X27750000Y-50500000D03*
X27750000Y-52250000D03*
X22250000Y-52250000D03*
X22250000Y-50500000D03*
X22250000Y-48750000D03*
%TD*%
%TO.C,D3*%
X22250000Y-43250000D03*
X22250000Y-41500000D03*
X22250000Y-39750000D03*
X27750000Y-39750000D03*
X27750000Y-41500000D03*
X27750000Y-43250000D03*
%TD*%
D13*
%TO.C,D2*%
X79250000Y-87750000D03*
X77500000Y-87750000D03*
X75750000Y-87750000D03*
X75750000Y-82250000D03*
X77500000Y-82250000D03*
X79250000Y-82250000D03*
%TD*%
D14*
%TO.C,D1*%
X27750000Y-30750000D03*
X27750000Y-32500000D03*
X27750000Y-34250000D03*
X22250000Y-34250000D03*
X22250000Y-32500000D03*
X22250000Y-30750000D03*
%TD*%
D15*
%TO.C,Q1*%
X32250000Y-58250000D03*
X33200000Y-61250000D03*
X31300000Y-61250000D03*
%TD*%
%TO.C,C1*%
G36*
G01*
X37250000Y-60549600D02*
X37250000Y-61450400D01*
G75*
G02*
X37000400Y-61700000I-249600J0D01*
G01*
X36299600Y-61700000D01*
G75*
G02*
X36050000Y-61450400I0J249600D01*
G01*
X36050000Y-60549600D01*
G75*
G02*
X36299600Y-60300000I249600J0D01*
G01*
X37000400Y-60300000D01*
G75*
G02*
X37250000Y-60549600I0J-249600D01*
G01*
G37*
G36*
G01*
X39450000Y-60549600D02*
X39450000Y-61450400D01*
G75*
G02*
X39200400Y-61700000I-249600J0D01*
G01*
X38499600Y-61700000D01*
G75*
G02*
X38250000Y-61450400I0J249600D01*
G01*
X38250000Y-60549600D01*
G75*
G02*
X38499600Y-60300000I249600J0D01*
G01*
X39200400Y-60300000D01*
G75*
G02*
X39450000Y-60549600I0J-249600D01*
G01*
G37*
%TD*%
%TO.C,R13*%
G36*
G01*
X36850000Y-57374999D02*
X36850000Y-58625001D01*
G75*
G02*
X36600001Y-58875000I-249999J0D01*
G01*
X35799999Y-58875000D01*
G75*
G02*
X35550000Y-58625001I0J249999D01*
G01*
X35550000Y-57374999D01*
G75*
G02*
X35799999Y-57125000I249999J0D01*
G01*
X36600001Y-57125000D01*
G75*
G02*
X36850000Y-57374999I0J-249999D01*
G01*
G37*
G36*
G01*
X39950000Y-57374999D02*
X39950000Y-58625001D01*
G75*
G02*
X39700001Y-58875000I-249999J0D01*
G01*
X38899999Y-58875000D01*
G75*
G02*
X38650000Y-58625001I0J249999D01*
G01*
X38650000Y-57374999D01*
G75*
G02*
X38899999Y-57125000I249999J0D01*
G01*
X39700001Y-57125000D01*
G75*
G02*
X39950000Y-57374999I0J-249999D01*
G01*
G37*
%TD*%
%TO.C,R12*%
G36*
G01*
X34199851Y-64187111D02*
X33562889Y-63550149D01*
G75*
G02*
X33562889Y-63197161I176494J176494D01*
G01*
X34058429Y-62701621D01*
G75*
G02*
X34411417Y-62701621I176494J-176494D01*
G01*
X35048379Y-63338583D01*
G75*
G02*
X35048379Y-63691571I-176494J-176494D01*
G01*
X34552839Y-64187111D01*
G75*
G02*
X34199851Y-64187111I-176494J176494D01*
G01*
G37*
G36*
G01*
X32644217Y-65742745D02*
X32007255Y-65105783D01*
G75*
G02*
X32007255Y-64752795I176494J176494D01*
G01*
X32502795Y-64257255D01*
G75*
G02*
X32855783Y-64257255I176494J-176494D01*
G01*
X33492745Y-64894217D01*
G75*
G02*
X33492745Y-65247205I-176494J-176494D01*
G01*
X32997205Y-65742745D01*
G75*
G02*
X32644217Y-65742745I-176494J176494D01*
G01*
G37*
%TD*%
M02*
