%TF.GenerationSoftware,KiCad,Pcbnew,5.1.9+dfsg1-1+deb11u1*%
%TF.CreationDate,2024-07-25T19:41:34+02:00*%
%TF.ProjectId,label1,6c616265-6c31-42e6-9b69-6361645f7063,rev?*%
%TF.SameCoordinates,Original*%
%TF.FileFunction,Legend,Top*%
%TF.FilePolarity,Positive*%
%FSLAX46Y46*%
G04 Gerber Fmt 4.6, Leading zero omitted, Abs format (unit mm)*
G04 Created by KiCad (PCBNEW 5.1.9+dfsg1-1+deb11u1) date 2024-07-25 19:41:34*
%MOMM*%
%LPD*%
G01*
G04 APERTURE LIST*
%ADD10C,0.100000*%
%ADD11C,0.120000*%
G04 APERTURE END LIST*
D10*
G36*
X80000000Y-65000000D02*
G01*
X80000000Y-80000000D01*
X65000000Y-80000000D01*
X30000000Y-45000000D01*
X30000000Y-30000000D01*
X45000000Y-30000000D01*
X80000000Y-65000000D01*
G37*
X80000000Y-65000000D02*
X80000000Y-80000000D01*
X65000000Y-80000000D01*
X30000000Y-45000000D01*
X30000000Y-30000000D01*
X45000000Y-30000000D01*
X80000000Y-65000000D01*
D11*
X85000000Y-29250000D02*
X86000000Y-29250000D01*
%TO.C,U2*%
X52128427Y-70692498D02*
G75*
G03*
X52128427Y-70692498I-300000J0D01*
G01*
X54489087Y-74581585D02*
G75*
G03*
X54489087Y-74581585I-1600000J0D01*
G01*
X57131728Y-74581585D02*
X52889087Y-78824226D01*
X52889087Y-78824226D02*
X48010051Y-73945189D01*
X48505025Y-71187473D02*
X47698924Y-71993574D01*
X52252691Y-69702549D02*
X57131728Y-74581585D01*
X50301076Y-69391422D02*
X49494975Y-70197523D01*
%TO.C,D41*%
X35500000Y-55000000D02*
X35300000Y-55200000D01*
X34700000Y-55800000D02*
X35000000Y-55500000D01*
X31900000Y-52400000D02*
X31900000Y-52500000D01*
X35100000Y-52400000D02*
X35100000Y-52500000D01*
X31900000Y-55600000D02*
X31900000Y-55500000D01*
X34900000Y-55600000D02*
X31900000Y-55600000D01*
X31900000Y-52400000D02*
X35100000Y-52400000D01*
X33200000Y-53600000D02*
X32800000Y-54000000D01*
X32800000Y-54000000D02*
X33200000Y-54400000D01*
X33200000Y-54400000D02*
X33200000Y-53600000D01*
%TO.C,U1*%
X39520102Y-72530509D02*
G75*
G03*
X39520102Y-72530509I-353554J0D01*
G01*
X36055278Y-70762742D02*
X39272614Y-73980078D01*
X43762742Y-63055278D02*
X36055278Y-70762742D01*
X46980078Y-66272614D02*
X43762742Y-63055278D01*
X39272614Y-73980078D02*
X46980078Y-66272614D01*
D10*
%TO.C,D4*%
G36*
X67300000Y-85500000D02*
G01*
X66800000Y-86500000D01*
X66300000Y-85500000D01*
X67300000Y-85500000D01*
G37*
X67300000Y-85500000D02*
X66800000Y-86500000D01*
X66300000Y-85500000D01*
X67300000Y-85500000D01*
D11*
X66100000Y-82400000D02*
X65900000Y-82400000D01*
X66100000Y-87600000D02*
X65900000Y-87600000D01*
X70900000Y-87600000D02*
X71100000Y-87600000D01*
X70900000Y-82400000D02*
X71100000Y-82400000D01*
X67400000Y-82400000D02*
X67850000Y-82400000D01*
X69150000Y-82400000D02*
X69600000Y-82400000D01*
X69150000Y-87600000D02*
X69600000Y-87600000D01*
X67400000Y-87600000D02*
X67850000Y-87600000D01*
X71100000Y-87600000D02*
X71100000Y-82400000D01*
X65900000Y-87600000D02*
X65900000Y-82400000D01*
%TO.C,R1*%
X32227064Y-67735000D02*
X31772936Y-67735000D01*
X32227064Y-66265000D02*
X31772936Y-66265000D01*
%TO.C,R9*%
X35180282Y-75859165D02*
X34859165Y-76180282D01*
X34140835Y-74819718D02*
X33819718Y-75140835D01*
%TO.C,R8*%
X43735000Y-77772936D02*
X43735000Y-78227064D01*
X42265000Y-77772936D02*
X42265000Y-78227064D01*
%TO.C,R7*%
X41735000Y-77772936D02*
X41735000Y-78227064D01*
X40265000Y-77772936D02*
X40265000Y-78227064D01*
%TO.C,R6*%
X39735000Y-77772936D02*
X39735000Y-78227064D01*
X38265000Y-77772936D02*
X38265000Y-78227064D01*
%TO.C,R5*%
X36680282Y-77359165D02*
X36359165Y-77680282D01*
X35640835Y-76319718D02*
X35319718Y-76640835D01*
%TO.C,R4*%
X33680282Y-74359165D02*
X33359165Y-74680282D01*
X32640835Y-73319718D02*
X32319718Y-73640835D01*
%TO.C,R3*%
X32227064Y-71735000D02*
X31772936Y-71735000D01*
X32227064Y-70265000D02*
X31772936Y-70265000D01*
%TO.C,R2*%
X32227064Y-69735000D02*
X31772936Y-69735000D01*
X32227064Y-68265000D02*
X31772936Y-68265000D01*
D10*
%TO.C,D24*%
G36*
X78700000Y-24500000D02*
G01*
X79200000Y-23500000D01*
X79700000Y-24500000D01*
X78700000Y-24500000D01*
G37*
X78700000Y-24500000D02*
X79200000Y-23500000D01*
X79700000Y-24500000D01*
X78700000Y-24500000D01*
D11*
X79900000Y-27600000D02*
X80100000Y-27600000D01*
X79900000Y-22400000D02*
X80100000Y-22400000D01*
X75100000Y-22400000D02*
X74900000Y-22400000D01*
X75100000Y-27600000D02*
X74900000Y-27600000D01*
X78600000Y-27600000D02*
X78150000Y-27600000D01*
X76850000Y-27600000D02*
X76400000Y-27600000D01*
X76850000Y-22400000D02*
X76400000Y-22400000D01*
X78600000Y-22400000D02*
X78150000Y-22400000D01*
X74900000Y-22400000D02*
X74900000Y-27600000D01*
X80100000Y-22400000D02*
X80100000Y-27600000D01*
D10*
%TO.C,D23*%
G36*
X84500000Y-31300000D02*
G01*
X83500000Y-30800000D01*
X84500000Y-30300000D01*
X84500000Y-31300000D01*
G37*
X84500000Y-31300000D02*
X83500000Y-30800000D01*
X84500000Y-30300000D01*
X84500000Y-31300000D01*
D11*
X87600000Y-30100000D02*
X87600000Y-29900000D01*
X82400000Y-30100000D02*
X82400000Y-29900000D01*
X82400000Y-34900000D02*
X82400000Y-35100000D01*
X87600000Y-34900000D02*
X87600000Y-35100000D01*
X87600000Y-31400000D02*
X87600000Y-31850000D01*
X87600000Y-33150000D02*
X87600000Y-33600000D01*
X82400000Y-33150000D02*
X82400000Y-33600000D01*
X82400000Y-31400000D02*
X82400000Y-31850000D01*
X82400000Y-35100000D02*
X87600000Y-35100000D01*
X82400000Y-29900000D02*
X87600000Y-29900000D01*
D10*
%TO.C,D22*%
G36*
X67300000Y-25500000D02*
G01*
X66800000Y-26500000D01*
X66300000Y-25500000D01*
X67300000Y-25500000D01*
G37*
X67300000Y-25500000D02*
X66800000Y-26500000D01*
X66300000Y-25500000D01*
X67300000Y-25500000D01*
D11*
X66100000Y-22400000D02*
X65900000Y-22400000D01*
X66100000Y-27600000D02*
X65900000Y-27600000D01*
X70900000Y-27600000D02*
X71100000Y-27600000D01*
X70900000Y-22400000D02*
X71100000Y-22400000D01*
X67400000Y-22400000D02*
X67850000Y-22400000D01*
X69150000Y-22400000D02*
X69600000Y-22400000D01*
X69150000Y-27600000D02*
X69600000Y-27600000D01*
X67400000Y-27600000D02*
X67850000Y-27600000D01*
X71100000Y-27600000D02*
X71100000Y-22400000D01*
X65900000Y-27600000D02*
X65900000Y-22400000D01*
D10*
%TO.C,D21*%
G36*
X85500000Y-42700000D02*
G01*
X86500000Y-43200000D01*
X85500000Y-43700000D01*
X85500000Y-42700000D01*
G37*
X85500000Y-42700000D02*
X86500000Y-43200000D01*
X85500000Y-43700000D01*
X85500000Y-42700000D01*
D11*
X82400000Y-43900000D02*
X82400000Y-44100000D01*
X87600000Y-43900000D02*
X87600000Y-44100000D01*
X87600000Y-39100000D02*
X87600000Y-38900000D01*
X82400000Y-39100000D02*
X82400000Y-38900000D01*
X82400000Y-42600000D02*
X82400000Y-42150000D01*
X82400000Y-40850000D02*
X82400000Y-40400000D01*
X87600000Y-40850000D02*
X87600000Y-40400000D01*
X87600000Y-42600000D02*
X87600000Y-42150000D01*
X87600000Y-38900000D02*
X82400000Y-38900000D01*
X87600000Y-44100000D02*
X82400000Y-44100000D01*
D10*
%TO.C,D20*%
G36*
X60700000Y-24500000D02*
G01*
X61200000Y-23500000D01*
X61700000Y-24500000D01*
X60700000Y-24500000D01*
G37*
X60700000Y-24500000D02*
X61200000Y-23500000D01*
X61700000Y-24500000D01*
X60700000Y-24500000D01*
D11*
X61900000Y-27600000D02*
X62100000Y-27600000D01*
X61900000Y-22400000D02*
X62100000Y-22400000D01*
X57100000Y-22400000D02*
X56900000Y-22400000D01*
X57100000Y-27600000D02*
X56900000Y-27600000D01*
X60600000Y-27600000D02*
X60150000Y-27600000D01*
X58850000Y-27600000D02*
X58400000Y-27600000D01*
X58850000Y-22400000D02*
X58400000Y-22400000D01*
X60600000Y-22400000D02*
X60150000Y-22400000D01*
X56900000Y-22400000D02*
X56900000Y-27600000D01*
X62100000Y-22400000D02*
X62100000Y-27600000D01*
D10*
%TO.C,D19*%
G36*
X84500000Y-49300000D02*
G01*
X83500000Y-48800000D01*
X84500000Y-48300000D01*
X84500000Y-49300000D01*
G37*
X84500000Y-49300000D02*
X83500000Y-48800000D01*
X84500000Y-48300000D01*
X84500000Y-49300000D01*
D11*
X87600000Y-48100000D02*
X87600000Y-47900000D01*
X82400000Y-48100000D02*
X82400000Y-47900000D01*
X82400000Y-52900000D02*
X82400000Y-53100000D01*
X87600000Y-52900000D02*
X87600000Y-53100000D01*
X87600000Y-49400000D02*
X87600000Y-49850000D01*
X87600000Y-51150000D02*
X87600000Y-51600000D01*
X82400000Y-51150000D02*
X82400000Y-51600000D01*
X82400000Y-49400000D02*
X82400000Y-49850000D01*
X82400000Y-53100000D02*
X87600000Y-53100000D01*
X82400000Y-47900000D02*
X87600000Y-47900000D01*
D10*
%TO.C,D18*%
G36*
X49300000Y-25500000D02*
G01*
X48800000Y-26500000D01*
X48300000Y-25500000D01*
X49300000Y-25500000D01*
G37*
X49300000Y-25500000D02*
X48800000Y-26500000D01*
X48300000Y-25500000D01*
X49300000Y-25500000D01*
D11*
X48100000Y-22400000D02*
X47900000Y-22400000D01*
X48100000Y-27600000D02*
X47900000Y-27600000D01*
X52900000Y-27600000D02*
X53100000Y-27600000D01*
X52900000Y-22400000D02*
X53100000Y-22400000D01*
X49400000Y-22400000D02*
X49850000Y-22400000D01*
X51150000Y-22400000D02*
X51600000Y-22400000D01*
X51150000Y-27600000D02*
X51600000Y-27600000D01*
X49400000Y-27600000D02*
X49850000Y-27600000D01*
X53100000Y-27600000D02*
X53100000Y-22400000D01*
X47900000Y-27600000D02*
X47900000Y-22400000D01*
D10*
%TO.C,D17*%
G36*
X85500000Y-60700000D02*
G01*
X86500000Y-61200000D01*
X85500000Y-61700000D01*
X85500000Y-60700000D01*
G37*
X85500000Y-60700000D02*
X86500000Y-61200000D01*
X85500000Y-61700000D01*
X85500000Y-60700000D01*
D11*
X82400000Y-61900000D02*
X82400000Y-62100000D01*
X87600000Y-61900000D02*
X87600000Y-62100000D01*
X87600000Y-57100000D02*
X87600000Y-56900000D01*
X82400000Y-57100000D02*
X82400000Y-56900000D01*
X82400000Y-60600000D02*
X82400000Y-60150000D01*
X82400000Y-58850000D02*
X82400000Y-58400000D01*
X87600000Y-58850000D02*
X87600000Y-58400000D01*
X87600000Y-60600000D02*
X87600000Y-60150000D01*
X87600000Y-56900000D02*
X82400000Y-56900000D01*
X87600000Y-62100000D02*
X82400000Y-62100000D01*
D10*
%TO.C,D16*%
G36*
X42700000Y-24500000D02*
G01*
X43200000Y-23500000D01*
X43700000Y-24500000D01*
X42700000Y-24500000D01*
G37*
X42700000Y-24500000D02*
X43200000Y-23500000D01*
X43700000Y-24500000D01*
X42700000Y-24500000D01*
D11*
X43900000Y-27600000D02*
X44100000Y-27600000D01*
X43900000Y-22400000D02*
X44100000Y-22400000D01*
X39100000Y-22400000D02*
X38900000Y-22400000D01*
X39100000Y-27600000D02*
X38900000Y-27600000D01*
X42600000Y-27600000D02*
X42150000Y-27600000D01*
X40850000Y-27600000D02*
X40400000Y-27600000D01*
X40850000Y-22400000D02*
X40400000Y-22400000D01*
X42600000Y-22400000D02*
X42150000Y-22400000D01*
X38900000Y-22400000D02*
X38900000Y-27600000D01*
X44100000Y-22400000D02*
X44100000Y-27600000D01*
D10*
%TO.C,D15*%
G36*
X84500000Y-67300000D02*
G01*
X83500000Y-66800000D01*
X84500000Y-66300000D01*
X84500000Y-67300000D01*
G37*
X84500000Y-67300000D02*
X83500000Y-66800000D01*
X84500000Y-66300000D01*
X84500000Y-67300000D01*
D11*
X87600000Y-66100000D02*
X87600000Y-65900000D01*
X82400000Y-66100000D02*
X82400000Y-65900000D01*
X82400000Y-70900000D02*
X82400000Y-71100000D01*
X87600000Y-70900000D02*
X87600000Y-71100000D01*
X87600000Y-67400000D02*
X87600000Y-67850000D01*
X87600000Y-69150000D02*
X87600000Y-69600000D01*
X82400000Y-69150000D02*
X82400000Y-69600000D01*
X82400000Y-67400000D02*
X82400000Y-67850000D01*
X82400000Y-71100000D02*
X87600000Y-71100000D01*
X82400000Y-65900000D02*
X87600000Y-65900000D01*
D10*
%TO.C,D14*%
G36*
X31300000Y-25500000D02*
G01*
X30800000Y-26500000D01*
X30300000Y-25500000D01*
X31300000Y-25500000D01*
G37*
X31300000Y-25500000D02*
X30800000Y-26500000D01*
X30300000Y-25500000D01*
X31300000Y-25500000D01*
D11*
X30100000Y-22400000D02*
X29900000Y-22400000D01*
X30100000Y-27600000D02*
X29900000Y-27600000D01*
X34900000Y-27600000D02*
X35100000Y-27600000D01*
X34900000Y-22400000D02*
X35100000Y-22400000D01*
X31400000Y-22400000D02*
X31850000Y-22400000D01*
X33150000Y-22400000D02*
X33600000Y-22400000D01*
X33150000Y-27600000D02*
X33600000Y-27600000D01*
X31400000Y-27600000D02*
X31850000Y-27600000D01*
X35100000Y-27600000D02*
X35100000Y-22400000D01*
X29900000Y-27600000D02*
X29900000Y-22400000D01*
D10*
%TO.C,D13*%
G36*
X85500000Y-78700000D02*
G01*
X86500000Y-79200000D01*
X85500000Y-79700000D01*
X85500000Y-78700000D01*
G37*
X85500000Y-78700000D02*
X86500000Y-79200000D01*
X85500000Y-79700000D01*
X85500000Y-78700000D01*
D11*
X82400000Y-79900000D02*
X82400000Y-80100000D01*
X87600000Y-79900000D02*
X87600000Y-80100000D01*
X87600000Y-75100000D02*
X87600000Y-74900000D01*
X82400000Y-75100000D02*
X82400000Y-74900000D01*
X82400000Y-78600000D02*
X82400000Y-78150000D01*
X82400000Y-76850000D02*
X82400000Y-76400000D01*
X87600000Y-76850000D02*
X87600000Y-76400000D01*
X87600000Y-78600000D02*
X87600000Y-78150000D01*
X87600000Y-74900000D02*
X82400000Y-74900000D01*
X87600000Y-80100000D02*
X82400000Y-80100000D01*
D10*
%TO.C,D12*%
G36*
X31300000Y-85500000D02*
G01*
X30800000Y-86500000D01*
X30300000Y-85500000D01*
X31300000Y-85500000D01*
G37*
X31300000Y-85500000D02*
X30800000Y-86500000D01*
X30300000Y-85500000D01*
X31300000Y-85500000D01*
D11*
X30100000Y-82400000D02*
X29900000Y-82400000D01*
X30100000Y-87600000D02*
X29900000Y-87600000D01*
X34900000Y-87600000D02*
X35100000Y-87600000D01*
X34900000Y-82400000D02*
X35100000Y-82400000D01*
X31400000Y-82400000D02*
X31850000Y-82400000D01*
X33150000Y-82400000D02*
X33600000Y-82400000D01*
X33150000Y-87600000D02*
X33600000Y-87600000D01*
X31400000Y-87600000D02*
X31850000Y-87600000D01*
X35100000Y-87600000D02*
X35100000Y-82400000D01*
X29900000Y-87600000D02*
X29900000Y-82400000D01*
D10*
%TO.C,D11*%
G36*
X25500000Y-78700000D02*
G01*
X26500000Y-79200000D01*
X25500000Y-79700000D01*
X25500000Y-78700000D01*
G37*
X25500000Y-78700000D02*
X26500000Y-79200000D01*
X25500000Y-79700000D01*
X25500000Y-78700000D01*
D11*
X22400000Y-79900000D02*
X22400000Y-80100000D01*
X27600000Y-79900000D02*
X27600000Y-80100000D01*
X27600000Y-75100000D02*
X27600000Y-74900000D01*
X22400000Y-75100000D02*
X22400000Y-74900000D01*
X22400000Y-78600000D02*
X22400000Y-78150000D01*
X22400000Y-76850000D02*
X22400000Y-76400000D01*
X27600000Y-76850000D02*
X27600000Y-76400000D01*
X27600000Y-78600000D02*
X27600000Y-78150000D01*
X27600000Y-74900000D02*
X22400000Y-74900000D01*
X27600000Y-80100000D02*
X22400000Y-80100000D01*
D10*
%TO.C,D10*%
G36*
X42700000Y-84500000D02*
G01*
X43200000Y-83500000D01*
X43700000Y-84500000D01*
X42700000Y-84500000D01*
G37*
X42700000Y-84500000D02*
X43200000Y-83500000D01*
X43700000Y-84500000D01*
X42700000Y-84500000D01*
D11*
X43900000Y-87600000D02*
X44100000Y-87600000D01*
X43900000Y-82400000D02*
X44100000Y-82400000D01*
X39100000Y-82400000D02*
X38900000Y-82400000D01*
X39100000Y-87600000D02*
X38900000Y-87600000D01*
X42600000Y-87600000D02*
X42150000Y-87600000D01*
X40850000Y-87600000D02*
X40400000Y-87600000D01*
X40850000Y-82400000D02*
X40400000Y-82400000D01*
X42600000Y-82400000D02*
X42150000Y-82400000D01*
X38900000Y-82400000D02*
X38900000Y-87600000D01*
X44100000Y-82400000D02*
X44100000Y-87600000D01*
D10*
%TO.C,D9*%
G36*
X24500000Y-67300000D02*
G01*
X23500000Y-66800000D01*
X24500000Y-66300000D01*
X24500000Y-67300000D01*
G37*
X24500000Y-67300000D02*
X23500000Y-66800000D01*
X24500000Y-66300000D01*
X24500000Y-67300000D01*
D11*
X27600000Y-66100000D02*
X27600000Y-65900000D01*
X22400000Y-66100000D02*
X22400000Y-65900000D01*
X22400000Y-70900000D02*
X22400000Y-71100000D01*
X27600000Y-70900000D02*
X27600000Y-71100000D01*
X27600000Y-67400000D02*
X27600000Y-67850000D01*
X27600000Y-69150000D02*
X27600000Y-69600000D01*
X22400000Y-69150000D02*
X22400000Y-69600000D01*
X22400000Y-67400000D02*
X22400000Y-67850000D01*
X22400000Y-71100000D02*
X27600000Y-71100000D01*
X22400000Y-65900000D02*
X27600000Y-65900000D01*
D10*
%TO.C,D8*%
G36*
X49300000Y-85500000D02*
G01*
X48800000Y-86500000D01*
X48300000Y-85500000D01*
X49300000Y-85500000D01*
G37*
X49300000Y-85500000D02*
X48800000Y-86500000D01*
X48300000Y-85500000D01*
X49300000Y-85500000D01*
D11*
X48100000Y-82400000D02*
X47900000Y-82400000D01*
X48100000Y-87600000D02*
X47900000Y-87600000D01*
X52900000Y-87600000D02*
X53100000Y-87600000D01*
X52900000Y-82400000D02*
X53100000Y-82400000D01*
X49400000Y-82400000D02*
X49850000Y-82400000D01*
X51150000Y-82400000D02*
X51600000Y-82400000D01*
X51150000Y-87600000D02*
X51600000Y-87600000D01*
X49400000Y-87600000D02*
X49850000Y-87600000D01*
X53100000Y-87600000D02*
X53100000Y-82400000D01*
X47900000Y-87600000D02*
X47900000Y-82400000D01*
D10*
%TO.C,D7*%
G36*
X25500000Y-60700000D02*
G01*
X26500000Y-61200000D01*
X25500000Y-61700000D01*
X25500000Y-60700000D01*
G37*
X25500000Y-60700000D02*
X26500000Y-61200000D01*
X25500000Y-61700000D01*
X25500000Y-60700000D01*
D11*
X22400000Y-61900000D02*
X22400000Y-62100000D01*
X27600000Y-61900000D02*
X27600000Y-62100000D01*
X27600000Y-57100000D02*
X27600000Y-56900000D01*
X22400000Y-57100000D02*
X22400000Y-56900000D01*
X22400000Y-60600000D02*
X22400000Y-60150000D01*
X22400000Y-58850000D02*
X22400000Y-58400000D01*
X27600000Y-58850000D02*
X27600000Y-58400000D01*
X27600000Y-60600000D02*
X27600000Y-60150000D01*
X27600000Y-56900000D02*
X22400000Y-56900000D01*
X27600000Y-62100000D02*
X22400000Y-62100000D01*
D10*
%TO.C,D6*%
G36*
X60700000Y-84500000D02*
G01*
X61200000Y-83500000D01*
X61700000Y-84500000D01*
X60700000Y-84500000D01*
G37*
X60700000Y-84500000D02*
X61200000Y-83500000D01*
X61700000Y-84500000D01*
X60700000Y-84500000D01*
D11*
X61900000Y-87600000D02*
X62100000Y-87600000D01*
X61900000Y-82400000D02*
X62100000Y-82400000D01*
X57100000Y-82400000D02*
X56900000Y-82400000D01*
X57100000Y-87600000D02*
X56900000Y-87600000D01*
X60600000Y-87600000D02*
X60150000Y-87600000D01*
X58850000Y-87600000D02*
X58400000Y-87600000D01*
X58850000Y-82400000D02*
X58400000Y-82400000D01*
X60600000Y-82400000D02*
X60150000Y-82400000D01*
X56900000Y-82400000D02*
X56900000Y-87600000D01*
X62100000Y-82400000D02*
X62100000Y-87600000D01*
D10*
%TO.C,D5*%
G36*
X24500000Y-49300000D02*
G01*
X23500000Y-48800000D01*
X24500000Y-48300000D01*
X24500000Y-49300000D01*
G37*
X24500000Y-49300000D02*
X23500000Y-48800000D01*
X24500000Y-48300000D01*
X24500000Y-49300000D01*
D11*
X27600000Y-48100000D02*
X27600000Y-47900000D01*
X22400000Y-48100000D02*
X22400000Y-47900000D01*
X22400000Y-52900000D02*
X22400000Y-53100000D01*
X27600000Y-52900000D02*
X27600000Y-53100000D01*
X27600000Y-49400000D02*
X27600000Y-49850000D01*
X27600000Y-51150000D02*
X27600000Y-51600000D01*
X22400000Y-51150000D02*
X22400000Y-51600000D01*
X22400000Y-49400000D02*
X22400000Y-49850000D01*
X22400000Y-53100000D02*
X27600000Y-53100000D01*
X22400000Y-47900000D02*
X27600000Y-47900000D01*
D10*
%TO.C,D3*%
G36*
X25500000Y-42700000D02*
G01*
X26500000Y-43200000D01*
X25500000Y-43700000D01*
X25500000Y-42700000D01*
G37*
X25500000Y-42700000D02*
X26500000Y-43200000D01*
X25500000Y-43700000D01*
X25500000Y-42700000D01*
D11*
X22400000Y-43900000D02*
X22400000Y-44100000D01*
X27600000Y-43900000D02*
X27600000Y-44100000D01*
X27600000Y-39100000D02*
X27600000Y-38900000D01*
X22400000Y-39100000D02*
X22400000Y-38900000D01*
X22400000Y-42600000D02*
X22400000Y-42150000D01*
X22400000Y-40850000D02*
X22400000Y-40400000D01*
X27600000Y-40850000D02*
X27600000Y-40400000D01*
X27600000Y-42600000D02*
X27600000Y-42150000D01*
X27600000Y-38900000D02*
X22400000Y-38900000D01*
X27600000Y-44100000D02*
X22400000Y-44100000D01*
D10*
%TO.C,D2*%
G36*
X78700000Y-84500000D02*
G01*
X79200000Y-83500000D01*
X79700000Y-84500000D01*
X78700000Y-84500000D01*
G37*
X78700000Y-84500000D02*
X79200000Y-83500000D01*
X79700000Y-84500000D01*
X78700000Y-84500000D01*
D11*
X79900000Y-87600000D02*
X80100000Y-87600000D01*
X79900000Y-82400000D02*
X80100000Y-82400000D01*
X75100000Y-82400000D02*
X74900000Y-82400000D01*
X75100000Y-87600000D02*
X74900000Y-87600000D01*
X78600000Y-87600000D02*
X78150000Y-87600000D01*
X76850000Y-87600000D02*
X76400000Y-87600000D01*
X76850000Y-82400000D02*
X76400000Y-82400000D01*
X78600000Y-82400000D02*
X78150000Y-82400000D01*
X74900000Y-82400000D02*
X74900000Y-87600000D01*
X80100000Y-82400000D02*
X80100000Y-87600000D01*
D10*
%TO.C,D1*%
G36*
X24500000Y-31300000D02*
G01*
X23500000Y-30800000D01*
X24500000Y-30300000D01*
X24500000Y-31300000D01*
G37*
X24500000Y-31300000D02*
X23500000Y-30800000D01*
X24500000Y-30300000D01*
X24500000Y-31300000D01*
D11*
X27600000Y-30100000D02*
X27600000Y-29900000D01*
X22400000Y-30100000D02*
X22400000Y-29900000D01*
X22400000Y-34900000D02*
X22400000Y-35100000D01*
X27600000Y-34900000D02*
X27600000Y-35100000D01*
X27600000Y-31400000D02*
X27600000Y-31850000D01*
X27600000Y-33150000D02*
X27600000Y-33600000D01*
X22400000Y-33150000D02*
X22400000Y-33600000D01*
X22400000Y-31400000D02*
X22400000Y-31850000D01*
X22400000Y-35100000D02*
X27600000Y-35100000D01*
X22400000Y-29900000D02*
X27600000Y-29900000D01*
%TO.C,Q1*%
X33830000Y-58990000D02*
X33830000Y-60450000D01*
X30670000Y-58990000D02*
X30670000Y-62150000D01*
X30670000Y-58990000D02*
X31600000Y-58990000D01*
X33830000Y-58990000D02*
X32900000Y-58990000D01*
%TO.C,C1*%
X37600000Y-60600000D02*
X37600000Y-61450000D01*
X37900000Y-61450000D02*
X37900000Y-60600000D01*
%TO.C,R13*%
X38477064Y-57090000D02*
X37022936Y-57090000D01*
X38477064Y-58910000D02*
X37022936Y-58910000D01*
%TO.C,J2*%
X79922103Y-35352102D02*
G75*
G03*
X79922103Y-35352102I-1680001J0D01*
G01*
X71397309Y-31335736D02*
X78666367Y-38604794D01*
X74225736Y-28507309D02*
X81494794Y-35776367D01*
X74225736Y-28507309D02*
X71397309Y-31335736D01*
X81494794Y-35776367D02*
X78666367Y-38604794D01*
X71892284Y-30840761D02*
X71892284Y-31830711D01*
X73482518Y-32969035D02*
G75*
G02*
X73042746Y-32251439I1167482J1209035D01*
G01*
X73042716Y-31268656D02*
G75*
G02*
X74158561Y-30152746I1607284J-491344D01*
G01*
X75141344Y-30152716D02*
G75*
G02*
X76257254Y-31268561I-491344J-1607284D01*
G01*
X76257284Y-32251344D02*
G75*
G02*
X75141439Y-33367254I-1607284J491344D01*
G01*
X74158816Y-33366591D02*
G75*
G02*
X73462061Y-32947939I491184J1606591D01*
G01*
%TO.C,J1*%
X50092103Y-68973007D02*
X51973007Y-67092103D01*
X42865472Y-61746376D02*
X50092103Y-68973007D01*
X44746376Y-59865472D02*
X51973007Y-67092103D01*
X42865472Y-61746376D02*
X44746376Y-59865472D01*
X41967446Y-60848350D02*
X41026994Y-59907898D01*
X41026994Y-59907898D02*
X41967446Y-58967446D01*
%TO.C,R12*%
X32847535Y-63863018D02*
X33168652Y-63541901D01*
X33886982Y-64902465D02*
X34208099Y-64581348D01*
%TD*%
M02*
