%TF.GenerationSoftware,KiCad,Pcbnew,5.1.9+dfsg1-1+deb11u1*%
%TF.CreationDate,2024-07-25T19:41:34+02:00*%
%TF.ProjectId,label1,6c616265-6c31-42e6-9b69-6361645f7063,rev?*%
%TF.SameCoordinates,Original*%
%TF.FileFunction,Soldermask,Top*%
%TF.FilePolarity,Negative*%
%FSLAX46Y46*%
G04 Gerber Fmt 4.6, Leading zero omitted, Abs format (unit mm)*
G04 Created by KiCad (PCBNEW 5.1.9+dfsg1-1+deb11u1) date 2024-07-25 19:41:34*
%MOMM*%
%LPD*%
G01*
G04 APERTURE LIST*
%ADD10C,0.100000*%
%ADD11R,2.000000X2.800000*%
%ADD12R,1.000000X2.800000*%
%ADD13R,1.100000X2.600000*%
%ADD14R,2.600000X1.100000*%
%ADD15R,0.800000X1.900000*%
%ADD16C,2.500000*%
G04 APERTURE END LIST*
%TO.C,REF\u002A\u002A*%
G36*
G01*
X70954773Y-52197414D02*
X70954773Y-52197414D01*
G75*
G02*
X71767945Y-52197414I406586J-406586D01*
G01*
X71944721Y-52374190D01*
G75*
G02*
X71944721Y-53187362I-406586J-406586D01*
G01*
X71944721Y-53187362D01*
G75*
G02*
X71131549Y-53187362I-406586J406586D01*
G01*
X70954773Y-53010586D01*
G75*
G02*
X70954773Y-52197414I406586J406586D01*
G01*
G37*
G36*
G01*
X71661880Y-52904521D02*
X71661880Y-52904521D01*
G75*
G02*
X72475052Y-52904521I406586J-406586D01*
G01*
X72651828Y-53081297D01*
G75*
G02*
X72651828Y-53894469I-406586J-406586D01*
G01*
X72651828Y-53894469D01*
G75*
G02*
X71838656Y-53894469I-406586J406586D01*
G01*
X71661880Y-53717693D01*
G75*
G02*
X71661880Y-52904521I406586J406586D01*
G01*
G37*
G36*
G01*
X72368987Y-53611628D02*
X72368987Y-53611628D01*
G75*
G02*
X73182159Y-53611628I406586J-406586D01*
G01*
X73358935Y-53788404D01*
G75*
G02*
X73358935Y-54601576I-406586J-406586D01*
G01*
X73358935Y-54601576D01*
G75*
G02*
X72545763Y-54601576I-406586J406586D01*
G01*
X72368987Y-54424800D01*
G75*
G02*
X72368987Y-53611628I406586J406586D01*
G01*
G37*
G36*
G01*
X73076094Y-52904521D02*
X73076094Y-52904521D01*
G75*
G02*
X73889266Y-52904521I406586J-406586D01*
G01*
X74066042Y-53081297D01*
G75*
G02*
X74066042Y-53894469I-406586J-406586D01*
G01*
X74066042Y-53894469D01*
G75*
G02*
X73252870Y-53894469I-406586J406586D01*
G01*
X73076094Y-53717693D01*
G75*
G02*
X73076094Y-52904521I406586J406586D01*
G01*
G37*
G36*
G01*
X73783201Y-52197414D02*
X73783201Y-52197414D01*
G75*
G02*
X74596373Y-52197414I406586J-406586D01*
G01*
X74773149Y-52374190D01*
G75*
G02*
X74773149Y-53187362I-406586J-406586D01*
G01*
X74773149Y-53187362D01*
G75*
G02*
X73959977Y-53187362I-406586J406586D01*
G01*
X73783201Y-53010586D01*
G75*
G02*
X73783201Y-52197414I406586J406586D01*
G01*
G37*
G36*
G01*
X74490307Y-51490307D02*
X74490307Y-51490307D01*
G75*
G02*
X75303479Y-51490307I406586J-406586D01*
G01*
X75480255Y-51667083D01*
G75*
G02*
X75480255Y-52480255I-406586J-406586D01*
G01*
X75480255Y-52480255D01*
G75*
G02*
X74667083Y-52480255I-406586J406586D01*
G01*
X74490307Y-52303479D01*
G75*
G02*
X74490307Y-51490307I406586J406586D01*
G01*
G37*
G36*
G01*
X75197414Y-50783201D02*
X75197414Y-50783201D01*
G75*
G02*
X76010586Y-50783201I406586J-406586D01*
G01*
X76187362Y-50959977D01*
G75*
G02*
X76187362Y-51773149I-406586J-406586D01*
G01*
X76187362Y-51773149D01*
G75*
G02*
X75374190Y-51773149I-406586J406586D01*
G01*
X75197414Y-51596373D01*
G75*
G02*
X75197414Y-50783201I406586J406586D01*
G01*
G37*
G36*
G01*
X75904521Y-50076094D02*
X75904521Y-50076094D01*
G75*
G02*
X76717693Y-50076094I406586J-406586D01*
G01*
X76894469Y-50252870D01*
G75*
G02*
X76894469Y-51066042I-406586J-406586D01*
G01*
X76894469Y-51066042D01*
G75*
G02*
X76081297Y-51066042I-406586J406586D01*
G01*
X75904521Y-50889266D01*
G75*
G02*
X75904521Y-50076094I406586J406586D01*
G01*
G37*
G36*
G01*
X76611628Y-49368987D02*
X76611628Y-49368987D01*
G75*
G02*
X77424800Y-49368987I406586J-406586D01*
G01*
X77601576Y-49545763D01*
G75*
G02*
X77601576Y-50358935I-406586J-406586D01*
G01*
X77601576Y-50358935D01*
G75*
G02*
X76788404Y-50358935I-406586J406586D01*
G01*
X76611628Y-50182159D01*
G75*
G02*
X76611628Y-49368987I406586J406586D01*
G01*
G37*
G36*
G01*
X75904521Y-48661880D02*
X75904521Y-48661880D01*
G75*
G02*
X76717693Y-48661880I406586J-406586D01*
G01*
X76894469Y-48838656D01*
G75*
G02*
X76894469Y-49651828I-406586J-406586D01*
G01*
X76894469Y-49651828D01*
G75*
G02*
X76081297Y-49651828I-406586J406586D01*
G01*
X75904521Y-49475052D01*
G75*
G02*
X75904521Y-48661880I406586J406586D01*
G01*
G37*
G36*
G01*
X75197414Y-47954773D02*
X75197414Y-47954773D01*
G75*
G02*
X76010586Y-47954773I406586J-406586D01*
G01*
X76187362Y-48131549D01*
G75*
G02*
X76187362Y-48944721I-406586J-406586D01*
G01*
X76187362Y-48944721D01*
G75*
G02*
X75374190Y-48944721I-406586J406586D01*
G01*
X75197414Y-48767945D01*
G75*
G02*
X75197414Y-47954773I406586J406586D01*
G01*
G37*
G36*
G01*
X71308327Y-46894113D02*
X71308327Y-46894113D01*
G75*
G02*
X72121499Y-46894113I406586J-406586D01*
G01*
X72298275Y-47070889D01*
G75*
G02*
X72298275Y-47884061I-406586J-406586D01*
G01*
X72298275Y-47884061D01*
G75*
G02*
X71485103Y-47884061I-406586J406586D01*
G01*
X71308327Y-47707285D01*
G75*
G02*
X71308327Y-46894113I406586J406586D01*
G01*
G37*
G36*
G01*
X70601220Y-46187007D02*
X70601220Y-46187007D01*
G75*
G02*
X71414392Y-46187007I406586J-406586D01*
G01*
X71591168Y-46363783D01*
G75*
G02*
X71591168Y-47176955I-406586J-406586D01*
G01*
X71591168Y-47176955D01*
G75*
G02*
X70777996Y-47176955I-406586J406586D01*
G01*
X70601220Y-47000179D01*
G75*
G02*
X70601220Y-46187007I406586J406586D01*
G01*
G37*
G36*
G01*
X69894113Y-45479900D02*
X69894113Y-45479900D01*
G75*
G02*
X70707285Y-45479900I406586J-406586D01*
G01*
X70884061Y-45656676D01*
G75*
G02*
X70884061Y-46469848I-406586J-406586D01*
G01*
X70884061Y-46469848D01*
G75*
G02*
X70070889Y-46469848I-406586J406586D01*
G01*
X69894113Y-46293072D01*
G75*
G02*
X69894113Y-45479900I406586J406586D01*
G01*
G37*
G36*
G01*
X73076094Y-45833453D02*
X73076094Y-45833453D01*
G75*
G02*
X73889266Y-45833453I406586J-406586D01*
G01*
X74066042Y-46010229D01*
G75*
G02*
X74066042Y-46823401I-406586J-406586D01*
G01*
X74066042Y-46823401D01*
G75*
G02*
X73252870Y-46823401I-406586J406586D01*
G01*
X73076094Y-46646625D01*
G75*
G02*
X73076094Y-45833453I406586J406586D01*
G01*
G37*
G36*
G01*
X72368987Y-46540560D02*
X72368987Y-46540560D01*
G75*
G02*
X73182159Y-46540560I406586J-406586D01*
G01*
X73358935Y-46717336D01*
G75*
G02*
X73358935Y-47530508I-406586J-406586D01*
G01*
X73358935Y-47530508D01*
G75*
G02*
X72545763Y-47530508I-406586J406586D01*
G01*
X72368987Y-47353732D01*
G75*
G02*
X72368987Y-46540560I406586J406586D01*
G01*
G37*
G36*
G01*
X71661880Y-47247667D02*
X71661880Y-47247667D01*
G75*
G02*
X72475052Y-47247667I406586J-406586D01*
G01*
X72651828Y-47424443D01*
G75*
G02*
X72651828Y-48237615I-406586J-406586D01*
G01*
X72651828Y-48237615D01*
G75*
G02*
X71838656Y-48237615I-406586J406586D01*
G01*
X71661880Y-48060839D01*
G75*
G02*
X71661880Y-47247667I406586J406586D01*
G01*
G37*
G36*
G01*
X70954773Y-47954773D02*
X70954773Y-47954773D01*
G75*
G02*
X71767945Y-47954773I406586J-406586D01*
G01*
X71944721Y-48131549D01*
G75*
G02*
X71944721Y-48944721I-406586J-406586D01*
G01*
X71944721Y-48944721D01*
G75*
G02*
X71131549Y-48944721I-406586J406586D01*
G01*
X70954773Y-48767945D01*
G75*
G02*
X70954773Y-47954773I406586J406586D01*
G01*
G37*
G36*
G01*
X70247667Y-48661880D02*
X70247667Y-48661880D01*
G75*
G02*
X71060839Y-48661880I406586J-406586D01*
G01*
X71237615Y-48838656D01*
G75*
G02*
X71237615Y-49651828I-406586J-406586D01*
G01*
X71237615Y-49651828D01*
G75*
G02*
X70424443Y-49651828I-406586J406586D01*
G01*
X70247667Y-49475052D01*
G75*
G02*
X70247667Y-48661880I406586J406586D01*
G01*
G37*
G36*
G01*
X69540560Y-49368987D02*
X69540560Y-49368987D01*
G75*
G02*
X70353732Y-49368987I406586J-406586D01*
G01*
X70530508Y-49545763D01*
G75*
G02*
X70530508Y-50358935I-406586J-406586D01*
G01*
X70530508Y-50358935D01*
G75*
G02*
X69717336Y-50358935I-406586J406586D01*
G01*
X69540560Y-50182159D01*
G75*
G02*
X69540560Y-49368987I406586J406586D01*
G01*
G37*
G36*
G01*
X68479900Y-49722540D02*
X68479900Y-49722540D01*
G75*
G02*
X69293072Y-49722540I406586J-406586D01*
G01*
X69469848Y-49899316D01*
G75*
G02*
X69469848Y-50712488I-406586J-406586D01*
G01*
X69469848Y-50712488D01*
G75*
G02*
X68656676Y-50712488I-406586J406586D01*
G01*
X68479900Y-50535712D01*
G75*
G02*
X68479900Y-49722540I406586J406586D01*
G01*
G37*
G36*
G01*
X67772793Y-49015434D02*
X67772793Y-49015434D01*
G75*
G02*
X68585965Y-49015434I406586J-406586D01*
G01*
X68762741Y-49192210D01*
G75*
G02*
X68762741Y-50005382I-406586J-406586D01*
G01*
X68762741Y-50005382D01*
G75*
G02*
X67949569Y-50005382I-406586J406586D01*
G01*
X67772793Y-49828606D01*
G75*
G02*
X67772793Y-49015434I406586J406586D01*
G01*
G37*
G36*
G01*
X67065686Y-48308327D02*
X67065686Y-48308327D01*
G75*
G02*
X67878858Y-48308327I406586J-406586D01*
G01*
X68055634Y-48485103D01*
G75*
G02*
X68055634Y-49298275I-406586J-406586D01*
G01*
X68055634Y-49298275D01*
G75*
G02*
X67242462Y-49298275I-406586J406586D01*
G01*
X67065686Y-49121499D01*
G75*
G02*
X67065686Y-48308327I406586J406586D01*
G01*
G37*
G36*
G01*
X67419240Y-47247667D02*
X67419240Y-47247667D01*
G75*
G02*
X68232412Y-47247667I406586J-406586D01*
G01*
X68409188Y-47424443D01*
G75*
G02*
X68409188Y-48237615I-406586J-406586D01*
G01*
X68409188Y-48237615D01*
G75*
G02*
X67596016Y-48237615I-406586J406586D01*
G01*
X67419240Y-48060839D01*
G75*
G02*
X67419240Y-47247667I406586J406586D01*
G01*
G37*
G36*
G01*
X68126346Y-46540560D02*
X68126346Y-46540560D01*
G75*
G02*
X68939518Y-46540560I406586J-406586D01*
G01*
X69116294Y-46717336D01*
G75*
G02*
X69116294Y-47530508I-406586J-406586D01*
G01*
X69116294Y-47530508D01*
G75*
G02*
X68303122Y-47530508I-406586J406586D01*
G01*
X68126346Y-47353732D01*
G75*
G02*
X68126346Y-46540560I406586J406586D01*
G01*
G37*
G36*
G01*
X68833453Y-45833453D02*
X68833453Y-45833453D01*
G75*
G02*
X69646625Y-45833453I406586J-406586D01*
G01*
X69823401Y-46010229D01*
G75*
G02*
X69823401Y-46823401I-406586J-406586D01*
G01*
X69823401Y-46823401D01*
G75*
G02*
X69010229Y-46823401I-406586J406586D01*
G01*
X68833453Y-46646625D01*
G75*
G02*
X68833453Y-45833453I406586J406586D01*
G01*
G37*
G36*
G01*
X65474696Y-45303123D02*
X65474696Y-45303123D01*
G75*
G02*
X66287868Y-45303123I406586J-406586D01*
G01*
X66464644Y-45479899D01*
G75*
G02*
X66464644Y-46293071I-406586J-406586D01*
G01*
X66464644Y-46293071D01*
G75*
G02*
X65651472Y-46293071I-406586J406586D01*
G01*
X65474696Y-46116295D01*
G75*
G02*
X65474696Y-45303123I406586J406586D01*
G01*
G37*
G36*
G01*
X66181803Y-44596016D02*
X66181803Y-44596016D01*
G75*
G02*
X66994975Y-44596016I406586J-406586D01*
G01*
X67171751Y-44772792D01*
G75*
G02*
X67171751Y-45585964I-406586J-406586D01*
G01*
X67171751Y-45585964D01*
G75*
G02*
X66358579Y-45585964I-406586J406586D01*
G01*
X66181803Y-45409188D01*
G75*
G02*
X66181803Y-44596016I406586J406586D01*
G01*
G37*
G36*
G01*
X66888909Y-43888909D02*
X66888909Y-43888909D01*
G75*
G02*
X67702081Y-43888909I406586J-406586D01*
G01*
X67878857Y-44065685D01*
G75*
G02*
X67878857Y-44878857I-406586J-406586D01*
G01*
X67878857Y-44878857D01*
G75*
G02*
X67065685Y-44878857I-406586J406586D01*
G01*
X66888909Y-44702081D01*
G75*
G02*
X66888909Y-43888909I406586J406586D01*
G01*
G37*
G36*
G01*
X67242463Y-42828249D02*
X67242463Y-42828249D01*
G75*
G02*
X68055635Y-42828249I406586J-406586D01*
G01*
X68232411Y-43005025D01*
G75*
G02*
X68232411Y-43818197I-406586J-406586D01*
G01*
X68232411Y-43818197D01*
G75*
G02*
X67419239Y-43818197I-406586J406586D01*
G01*
X67242463Y-43641421D01*
G75*
G02*
X67242463Y-42828249I406586J406586D01*
G01*
G37*
G36*
G01*
X66535356Y-42121143D02*
X66535356Y-42121143D01*
G75*
G02*
X67348528Y-42121143I406586J-406586D01*
G01*
X67525304Y-42297919D01*
G75*
G02*
X67525304Y-43111091I-406586J-406586D01*
G01*
X67525304Y-43111091D01*
G75*
G02*
X66712132Y-43111091I-406586J406586D01*
G01*
X66535356Y-42934315D01*
G75*
G02*
X66535356Y-42121143I406586J406586D01*
G01*
G37*
G36*
G01*
X65828249Y-41414036D02*
X65828249Y-41414036D01*
G75*
G02*
X66641421Y-41414036I406586J-406586D01*
G01*
X66818197Y-41590812D01*
G75*
G02*
X66818197Y-42403984I-406586J-406586D01*
G01*
X66818197Y-42403984D01*
G75*
G02*
X66005025Y-42403984I-406586J406586D01*
G01*
X65828249Y-42227208D01*
G75*
G02*
X65828249Y-41414036I406586J406586D01*
G01*
G37*
G36*
G01*
X64414036Y-45656676D02*
X64414036Y-45656676D01*
G75*
G02*
X65227208Y-45656676I406586J-406586D01*
G01*
X65403984Y-45833452D01*
G75*
G02*
X65403984Y-46646624I-406586J-406586D01*
G01*
X65403984Y-46646624D01*
G75*
G02*
X64590812Y-46646624I-406586J406586D01*
G01*
X64414036Y-46469848D01*
G75*
G02*
X64414036Y-45656676I406586J406586D01*
G01*
G37*
G36*
G01*
X63706929Y-44949570D02*
X63706929Y-44949570D01*
G75*
G02*
X64520101Y-44949570I406586J-406586D01*
G01*
X64696877Y-45126346D01*
G75*
G02*
X64696877Y-45939518I-406586J-406586D01*
G01*
X64696877Y-45939518D01*
G75*
G02*
X63883705Y-45939518I-406586J406586D01*
G01*
X63706929Y-45762742D01*
G75*
G02*
X63706929Y-44949570I406586J406586D01*
G01*
G37*
G36*
G01*
X62999822Y-44242463D02*
X62999822Y-44242463D01*
G75*
G02*
X63812994Y-44242463I406586J-406586D01*
G01*
X63989770Y-44419239D01*
G75*
G02*
X63989770Y-45232411I-406586J-406586D01*
G01*
X63989770Y-45232411D01*
G75*
G02*
X63176598Y-45232411I-406586J406586D01*
G01*
X62999822Y-45055635D01*
G75*
G02*
X62999822Y-44242463I406586J406586D01*
G01*
G37*
G36*
G01*
X63353376Y-43181803D02*
X63353376Y-43181803D01*
G75*
G02*
X64166548Y-43181803I406586J-406586D01*
G01*
X64343324Y-43358579D01*
G75*
G02*
X64343324Y-44171751I-406586J-406586D01*
G01*
X64343324Y-44171751D01*
G75*
G02*
X63530152Y-44171751I-406586J406586D01*
G01*
X63353376Y-43994975D01*
G75*
G02*
X63353376Y-43181803I406586J406586D01*
G01*
G37*
G36*
G01*
X64060482Y-42474696D02*
X64060482Y-42474696D01*
G75*
G02*
X64873654Y-42474696I406586J-406586D01*
G01*
X65050430Y-42651472D01*
G75*
G02*
X65050430Y-43464644I-406586J-406586D01*
G01*
X65050430Y-43464644D01*
G75*
G02*
X64237258Y-43464644I-406586J406586D01*
G01*
X64060482Y-43287868D01*
G75*
G02*
X64060482Y-42474696I406586J406586D01*
G01*
G37*
G36*
G01*
X64767589Y-41767589D02*
X64767589Y-41767589D01*
G75*
G02*
X65580761Y-41767589I406586J-406586D01*
G01*
X65757537Y-41944365D01*
G75*
G02*
X65757537Y-42757537I-406586J-406586D01*
G01*
X65757537Y-42757537D01*
G75*
G02*
X64944365Y-42757537I-406586J406586D01*
G01*
X64767589Y-42580761D01*
G75*
G02*
X64767589Y-41767589I406586J406586D01*
G01*
G37*
G36*
G01*
X65474696Y-41060482D02*
X65474696Y-41060482D01*
G75*
G02*
X66287868Y-41060482I406586J-406586D01*
G01*
X66464644Y-41237258D01*
G75*
G02*
X66464644Y-42050430I-406586J-406586D01*
G01*
X66464644Y-42050430D01*
G75*
G02*
X65651472Y-42050430I-406586J406586D01*
G01*
X65474696Y-41873654D01*
G75*
G02*
X65474696Y-41060482I406586J406586D01*
G01*
G37*
G36*
G01*
X66181803Y-40353376D02*
X66181803Y-40353376D01*
G75*
G02*
X66994975Y-40353376I406586J-406586D01*
G01*
X67171751Y-40530152D01*
G75*
G02*
X67171751Y-41343324I-406586J-406586D01*
G01*
X67171751Y-41343324D01*
G75*
G02*
X66358579Y-41343324I-406586J406586D01*
G01*
X66181803Y-41166548D01*
G75*
G02*
X66181803Y-40353376I406586J406586D01*
G01*
G37*
G36*
G01*
X66888909Y-39646269D02*
X66888909Y-39646269D01*
G75*
G02*
X67702081Y-39646269I406586J-406586D01*
G01*
X67878857Y-39823045D01*
G75*
G02*
X67878857Y-40636217I-406586J-406586D01*
G01*
X67878857Y-40636217D01*
G75*
G02*
X67065685Y-40636217I-406586J406586D01*
G01*
X66888909Y-40459441D01*
G75*
G02*
X66888909Y-39646269I406586J406586D01*
G01*
G37*
G36*
G01*
X60701725Y-41944366D02*
X60701725Y-41944366D01*
G75*
G02*
X61514897Y-41944366I406586J-406586D01*
G01*
X61691673Y-42121142D01*
G75*
G02*
X61691673Y-42934314I-406586J-406586D01*
G01*
X61691673Y-42934314D01*
G75*
G02*
X60878501Y-42934314I-406586J406586D01*
G01*
X60701725Y-42757538D01*
G75*
G02*
X60701725Y-41944366I406586J406586D01*
G01*
G37*
G36*
G01*
X59994618Y-41237259D02*
X59994618Y-41237259D01*
G75*
G02*
X60807790Y-41237259I406586J-406586D01*
G01*
X60984566Y-41414035D01*
G75*
G02*
X60984566Y-42227207I-406586J-406586D01*
G01*
X60984566Y-42227207D01*
G75*
G02*
X60171394Y-42227207I-406586J406586D01*
G01*
X59994618Y-42050431D01*
G75*
G02*
X59994618Y-41237259I406586J406586D01*
G01*
G37*
G36*
G01*
X59287512Y-40530152D02*
X59287512Y-40530152D01*
G75*
G02*
X60100684Y-40530152I406586J-406586D01*
G01*
X60277460Y-40706928D01*
G75*
G02*
X60277460Y-41520100I-406586J-406586D01*
G01*
X60277460Y-41520100D01*
G75*
G02*
X59464288Y-41520100I-406586J406586D01*
G01*
X59287512Y-41343324D01*
G75*
G02*
X59287512Y-40530152I406586J406586D01*
G01*
G37*
G36*
G01*
X59641065Y-39469492D02*
X59641065Y-39469492D01*
G75*
G02*
X60454237Y-39469492I406586J-406586D01*
G01*
X60631013Y-39646268D01*
G75*
G02*
X60631013Y-40459440I-406586J-406586D01*
G01*
X60631013Y-40459440D01*
G75*
G02*
X59817841Y-40459440I-406586J406586D01*
G01*
X59641065Y-40282664D01*
G75*
G02*
X59641065Y-39469492I406586J406586D01*
G01*
G37*
G36*
G01*
X60348172Y-38762385D02*
X60348172Y-38762385D01*
G75*
G02*
X61161344Y-38762385I406586J-406586D01*
G01*
X61338120Y-38939161D01*
G75*
G02*
X61338120Y-39752333I-406586J-406586D01*
G01*
X61338120Y-39752333D01*
G75*
G02*
X60524948Y-39752333I-406586J406586D01*
G01*
X60348172Y-39575557D01*
G75*
G02*
X60348172Y-38762385I406586J406586D01*
G01*
G37*
G36*
G01*
X61055279Y-38055279D02*
X61055279Y-38055279D01*
G75*
G02*
X61868451Y-38055279I406586J-406586D01*
G01*
X62045227Y-38232055D01*
G75*
G02*
X62045227Y-39045227I-406586J-406586D01*
G01*
X62045227Y-39045227D01*
G75*
G02*
X61232055Y-39045227I-406586J406586D01*
G01*
X61055279Y-38868451D01*
G75*
G02*
X61055279Y-38055279I406586J406586D01*
G01*
G37*
G36*
G01*
X62823045Y-38408832D02*
X62823045Y-38408832D01*
G75*
G02*
X63636217Y-38408832I406586J-406586D01*
G01*
X63812993Y-38585608D01*
G75*
G02*
X63812993Y-39398780I-406586J-406586D01*
G01*
X63812993Y-39398780D01*
G75*
G02*
X62999821Y-39398780I-406586J406586D01*
G01*
X62823045Y-39222004D01*
G75*
G02*
X62823045Y-38408832I406586J406586D01*
G01*
G37*
G36*
G01*
X62115939Y-37701725D02*
X62115939Y-37701725D01*
G75*
G02*
X62929111Y-37701725I406586J-406586D01*
G01*
X63105887Y-37878501D01*
G75*
G02*
X63105887Y-38691673I-406586J-406586D01*
G01*
X63105887Y-38691673D01*
G75*
G02*
X62292715Y-38691673I-406586J406586D01*
G01*
X62115939Y-38514897D01*
G75*
G02*
X62115939Y-37701725I406586J406586D01*
G01*
G37*
G36*
G01*
X61408832Y-36994618D02*
X61408832Y-36994618D01*
G75*
G02*
X62222004Y-36994618I406586J-406586D01*
G01*
X62398780Y-37171394D01*
G75*
G02*
X62398780Y-37984566I-406586J-406586D01*
G01*
X62398780Y-37984566D01*
G75*
G02*
X61585608Y-37984566I-406586J406586D01*
G01*
X61408832Y-37807790D01*
G75*
G02*
X61408832Y-36994618I406586J406586D01*
G01*
G37*
G36*
G01*
X62469492Y-36641065D02*
X62469492Y-36641065D01*
G75*
G02*
X63282664Y-36641065I406586J-406586D01*
G01*
X63459440Y-36817841D01*
G75*
G02*
X63459440Y-37631013I-406586J-406586D01*
G01*
X63459440Y-37631013D01*
G75*
G02*
X62646268Y-37631013I-406586J406586D01*
G01*
X62469492Y-37454237D01*
G75*
G02*
X62469492Y-36641065I406586J406586D01*
G01*
G37*
G36*
G01*
X63176599Y-35933958D02*
X63176599Y-35933958D01*
G75*
G02*
X63989771Y-35933958I406586J-406586D01*
G01*
X64166547Y-36110734D01*
G75*
G02*
X64166547Y-36923906I-406586J-406586D01*
G01*
X64166547Y-36923906D01*
G75*
G02*
X63353375Y-36923906I-406586J406586D01*
G01*
X63176599Y-36747130D01*
G75*
G02*
X63176599Y-35933958I406586J406586D01*
G01*
G37*
G36*
G01*
X56105531Y-35933958D02*
X56105531Y-35933958D01*
G75*
G02*
X56918703Y-35933958I406586J-406586D01*
G01*
X57095479Y-36110734D01*
G75*
G02*
X57095479Y-36923906I-406586J-406586D01*
G01*
X57095479Y-36923906D01*
G75*
G02*
X56282307Y-36923906I-406586J406586D01*
G01*
X56105531Y-36747130D01*
G75*
G02*
X56105531Y-35933958I406586J406586D01*
G01*
G37*
G36*
G01*
X56812638Y-38055279D02*
X56812638Y-38055279D01*
G75*
G02*
X57625810Y-38055279I406586J-406586D01*
G01*
X57802586Y-38232055D01*
G75*
G02*
X57802586Y-39045227I-406586J-406586D01*
G01*
X57802586Y-39045227D01*
G75*
G02*
X56989414Y-39045227I-406586J406586D01*
G01*
X56812638Y-38868451D01*
G75*
G02*
X56812638Y-38055279I406586J406586D01*
G01*
G37*
G36*
G01*
X56105531Y-37348172D02*
X56105531Y-37348172D01*
G75*
G02*
X56918703Y-37348172I406586J-406586D01*
G01*
X57095479Y-37524948D01*
G75*
G02*
X57095479Y-38338120I-406586J-406586D01*
G01*
X57095479Y-38338120D01*
G75*
G02*
X56282307Y-38338120I-406586J406586D01*
G01*
X56105531Y-38161344D01*
G75*
G02*
X56105531Y-37348172I406586J406586D01*
G01*
G37*
G36*
G01*
X55398424Y-36641065D02*
X55398424Y-36641065D01*
G75*
G02*
X56211596Y-36641065I406586J-406586D01*
G01*
X56388372Y-36817841D01*
G75*
G02*
X56388372Y-37631013I-406586J-406586D01*
G01*
X56388372Y-37631013D01*
G75*
G02*
X55575200Y-37631013I-406586J406586D01*
G01*
X55398424Y-37454237D01*
G75*
G02*
X55398424Y-36641065I406586J406586D01*
G01*
G37*
G36*
G01*
X56812638Y-35226851D02*
X56812638Y-35226851D01*
G75*
G02*
X57625810Y-35226851I406586J-406586D01*
G01*
X57802586Y-35403627D01*
G75*
G02*
X57802586Y-36216799I-406586J-406586D01*
G01*
X57802586Y-36216799D01*
G75*
G02*
X56989414Y-36216799I-406586J406586D01*
G01*
X56812638Y-36040023D01*
G75*
G02*
X56812638Y-35226851I406586J406586D01*
G01*
G37*
G36*
G01*
X61055279Y-33812638D02*
X61055279Y-33812638D01*
G75*
G02*
X61868451Y-33812638I406586J-406586D01*
G01*
X62045227Y-33989414D01*
G75*
G02*
X62045227Y-34802586I-406586J-406586D01*
G01*
X62045227Y-34802586D01*
G75*
G02*
X61232055Y-34802586I-406586J406586D01*
G01*
X61055279Y-34625810D01*
G75*
G02*
X61055279Y-33812638I406586J406586D01*
G01*
G37*
G36*
G01*
X60348172Y-33105531D02*
X60348172Y-33105531D01*
G75*
G02*
X61161344Y-33105531I406586J-406586D01*
G01*
X61338120Y-33282307D01*
G75*
G02*
X61338120Y-34095479I-406586J-406586D01*
G01*
X61338120Y-34095479D01*
G75*
G02*
X60524948Y-34095479I-406586J406586D01*
G01*
X60348172Y-33918703D01*
G75*
G02*
X60348172Y-33105531I406586J406586D01*
G01*
G37*
G36*
G01*
X59641065Y-32398424D02*
X59641065Y-32398424D01*
G75*
G02*
X60454237Y-32398424I406586J-406586D01*
G01*
X60631013Y-32575200D01*
G75*
G02*
X60631013Y-33388372I-406586J-406586D01*
G01*
X60631013Y-33388372D01*
G75*
G02*
X59817841Y-33388372I-406586J406586D01*
G01*
X59641065Y-33211596D01*
G75*
G02*
X59641065Y-32398424I406586J406586D01*
G01*
G37*
G36*
G01*
X58933958Y-33105531D02*
X58933958Y-33105531D01*
G75*
G02*
X59747130Y-33105531I406586J-406586D01*
G01*
X59923906Y-33282307D01*
G75*
G02*
X59923906Y-34095479I-406586J-406586D01*
G01*
X59923906Y-34095479D01*
G75*
G02*
X59110734Y-34095479I-406586J406586D01*
G01*
X58933958Y-33918703D01*
G75*
G02*
X58933958Y-33105531I406586J406586D01*
G01*
G37*
G36*
G01*
X58226851Y-33812638D02*
X58226851Y-33812638D01*
G75*
G02*
X59040023Y-33812638I406586J-406586D01*
G01*
X59216799Y-33989414D01*
G75*
G02*
X59216799Y-34802586I-406586J-406586D01*
G01*
X59216799Y-34802586D01*
G75*
G02*
X58403627Y-34802586I-406586J406586D01*
G01*
X58226851Y-34625810D01*
G75*
G02*
X58226851Y-33812638I406586J406586D01*
G01*
G37*
G36*
G01*
X57519745Y-34519745D02*
X57519745Y-34519745D01*
G75*
G02*
X58332917Y-34519745I406586J-406586D01*
G01*
X58509693Y-34696521D01*
G75*
G02*
X58509693Y-35509693I-406586J-406586D01*
G01*
X58509693Y-35509693D01*
G75*
G02*
X57696521Y-35509693I-406586J406586D01*
G01*
X57519745Y-35332917D01*
G75*
G02*
X57519745Y-34519745I406586J406586D01*
G01*
G37*
%TD*%
D10*
%TO.C,U2*%
G36*
X47274659Y-71710732D02*
G01*
X48688873Y-73124946D01*
X47840345Y-73973474D01*
X46426131Y-72559260D01*
X47274659Y-71710732D01*
G37*
G36*
X49070710Y-69914680D02*
G01*
X50484924Y-71328894D01*
X49636396Y-72177422D01*
X48222182Y-70763208D01*
X49070710Y-69914680D01*
G37*
G36*
X50866762Y-68118629D02*
G01*
X52280976Y-69532843D01*
X51432448Y-70381371D01*
X50018234Y-68967157D01*
X50866762Y-68118629D01*
G37*
%TD*%
D11*
%TO.C,D41*%
X34250000Y-54000000D03*
D12*
X32250000Y-54000000D03*
%TD*%
D10*
%TO.C,U1*%
G36*
X36868450Y-69596016D02*
G01*
X36302765Y-70161701D01*
X35383526Y-69242462D01*
X35949211Y-68676777D01*
X36868450Y-69596016D01*
G37*
G36*
X37773547Y-68690919D02*
G01*
X37207862Y-69256604D01*
X36288623Y-68337365D01*
X36854308Y-67771680D01*
X37773547Y-68690919D01*
G37*
G36*
X38664502Y-67799965D02*
G01*
X38098817Y-68365650D01*
X37179578Y-67446411D01*
X37745263Y-66880726D01*
X38664502Y-67799965D01*
G37*
G36*
X39562527Y-66901939D02*
G01*
X38996842Y-67467624D01*
X38077603Y-66548385D01*
X38643288Y-65982700D01*
X39562527Y-66901939D01*
G37*
G36*
X40467624Y-65996842D02*
G01*
X39901939Y-66562527D01*
X38982700Y-65643288D01*
X39548385Y-65077603D01*
X40467624Y-65996842D01*
G37*
G36*
X41365650Y-65098817D02*
G01*
X40799965Y-65664502D01*
X39880726Y-64745263D01*
X40446411Y-64179578D01*
X41365650Y-65098817D01*
G37*
G36*
X42256604Y-64207862D02*
G01*
X41690919Y-64773547D01*
X40771680Y-63854308D01*
X41337365Y-63288623D01*
X42256604Y-64207862D01*
G37*
G36*
X43161701Y-63302765D02*
G01*
X42596016Y-63868450D01*
X41676777Y-62949211D01*
X42242462Y-62383526D01*
X43161701Y-63302765D01*
G37*
G36*
X47616474Y-67757538D02*
G01*
X47050789Y-68323223D01*
X46131550Y-67403984D01*
X46697235Y-66838299D01*
X47616474Y-67757538D01*
G37*
G36*
X46711377Y-68662635D02*
G01*
X46145692Y-69228320D01*
X45226453Y-68309081D01*
X45792138Y-67743396D01*
X46711377Y-68662635D01*
G37*
G36*
X45820422Y-69553589D02*
G01*
X45254737Y-70119274D01*
X44335498Y-69200035D01*
X44901183Y-68634350D01*
X45820422Y-69553589D01*
G37*
G36*
X44922397Y-70451615D02*
G01*
X44356712Y-71017300D01*
X43437473Y-70098061D01*
X44003158Y-69532376D01*
X44922397Y-70451615D01*
G37*
G36*
X44017300Y-71356712D02*
G01*
X43451615Y-71922397D01*
X42532376Y-71003158D01*
X43098061Y-70437473D01*
X44017300Y-71356712D01*
G37*
G36*
X43119274Y-72254737D02*
G01*
X42553589Y-72820422D01*
X41634350Y-71901183D01*
X42200035Y-71335498D01*
X43119274Y-72254737D01*
G37*
G36*
X42228320Y-73145692D02*
G01*
X41662635Y-73711377D01*
X40743396Y-72792138D01*
X41309081Y-72226453D01*
X42228320Y-73145692D01*
G37*
G36*
X41323223Y-74050789D02*
G01*
X40757538Y-74616474D01*
X39838299Y-73697235D01*
X40403984Y-73131550D01*
X41323223Y-74050789D01*
G37*
%TD*%
D13*
%TO.C,D4*%
X66750000Y-82250000D03*
X68500000Y-82250000D03*
X70250000Y-82250000D03*
X70250000Y-87750000D03*
X68500000Y-87750000D03*
X66750000Y-87750000D03*
%TD*%
%TO.C,R1*%
G36*
G01*
X31500000Y-66549600D02*
X31500000Y-67450400D01*
G75*
G02*
X31250400Y-67700000I-249600J0D01*
G01*
X30549600Y-67700000D01*
G75*
G02*
X30300000Y-67450400I0J249600D01*
G01*
X30300000Y-66549600D01*
G75*
G02*
X30549600Y-66300000I249600J0D01*
G01*
X31250400Y-66300000D01*
G75*
G02*
X31500000Y-66549600I0J-249600D01*
G01*
G37*
G36*
G01*
X33700000Y-66549600D02*
X33700000Y-67450400D01*
G75*
G02*
X33450400Y-67700000I-249600J0D01*
G01*
X32749600Y-67700000D01*
G75*
G02*
X32500000Y-67450400I0J249600D01*
G01*
X32500000Y-66549600D01*
G75*
G02*
X32749600Y-66300000I249600J0D01*
G01*
X33450400Y-66300000D01*
G75*
G02*
X33700000Y-66549600I0J-249600D01*
G01*
G37*
%TD*%
%TO.C,R9*%
G36*
G01*
X33827966Y-75535072D02*
X34464928Y-76172034D01*
G75*
G02*
X34464928Y-76525022I-176494J-176494D01*
G01*
X33969388Y-77020562D01*
G75*
G02*
X33616400Y-77020562I-176494J176494D01*
G01*
X32979438Y-76383600D01*
G75*
G02*
X32979438Y-76030612I176494J176494D01*
G01*
X33474978Y-75535072D01*
G75*
G02*
X33827966Y-75535072I176494J-176494D01*
G01*
G37*
G36*
G01*
X35383600Y-73979438D02*
X36020562Y-74616400D01*
G75*
G02*
X36020562Y-74969388I-176494J-176494D01*
G01*
X35525022Y-75464928D01*
G75*
G02*
X35172034Y-75464928I-176494J176494D01*
G01*
X34535072Y-74827966D01*
G75*
G02*
X34535072Y-74474978I176494J176494D01*
G01*
X35030612Y-73979438D01*
G75*
G02*
X35383600Y-73979438I176494J-176494D01*
G01*
G37*
%TD*%
%TO.C,R8*%
G36*
G01*
X42549600Y-78500000D02*
X43450400Y-78500000D01*
G75*
G02*
X43700000Y-78749600I0J-249600D01*
G01*
X43700000Y-79450400D01*
G75*
G02*
X43450400Y-79700000I-249600J0D01*
G01*
X42549600Y-79700000D01*
G75*
G02*
X42300000Y-79450400I0J249600D01*
G01*
X42300000Y-78749600D01*
G75*
G02*
X42549600Y-78500000I249600J0D01*
G01*
G37*
G36*
G01*
X42549600Y-76300000D02*
X43450400Y-76300000D01*
G75*
G02*
X43700000Y-76549600I0J-249600D01*
G01*
X43700000Y-77250400D01*
G75*
G02*
X43450400Y-77500000I-249600J0D01*
G01*
X42549600Y-77500000D01*
G75*
G02*
X42300000Y-77250400I0J249600D01*
G01*
X42300000Y-76549600D01*
G75*
G02*
X42549600Y-76300000I249600J0D01*
G01*
G37*
%TD*%
%TO.C,R7*%
G36*
G01*
X40549600Y-78500000D02*
X41450400Y-78500000D01*
G75*
G02*
X41700000Y-78749600I0J-249600D01*
G01*
X41700000Y-79450400D01*
G75*
G02*
X41450400Y-79700000I-249600J0D01*
G01*
X40549600Y-79700000D01*
G75*
G02*
X40300000Y-79450400I0J249600D01*
G01*
X40300000Y-78749600D01*
G75*
G02*
X40549600Y-78500000I249600J0D01*
G01*
G37*
G36*
G01*
X40549600Y-76300000D02*
X41450400Y-76300000D01*
G75*
G02*
X41700000Y-76549600I0J-249600D01*
G01*
X41700000Y-77250400D01*
G75*
G02*
X41450400Y-77500000I-249600J0D01*
G01*
X40549600Y-77500000D01*
G75*
G02*
X40300000Y-77250400I0J249600D01*
G01*
X40300000Y-76549600D01*
G75*
G02*
X40549600Y-76300000I249600J0D01*
G01*
G37*
%TD*%
%TO.C,R6*%
G36*
G01*
X38549600Y-78500000D02*
X39450400Y-78500000D01*
G75*
G02*
X39700000Y-78749600I0J-249600D01*
G01*
X39700000Y-79450400D01*
G75*
G02*
X39450400Y-79700000I-249600J0D01*
G01*
X38549600Y-79700000D01*
G75*
G02*
X38300000Y-79450400I0J249600D01*
G01*
X38300000Y-78749600D01*
G75*
G02*
X38549600Y-78500000I249600J0D01*
G01*
G37*
G36*
G01*
X38549600Y-76300000D02*
X39450400Y-76300000D01*
G75*
G02*
X39700000Y-76549600I0J-249600D01*
G01*
X39700000Y-77250400D01*
G75*
G02*
X39450400Y-77500000I-249600J0D01*
G01*
X38549600Y-77500000D01*
G75*
G02*
X38300000Y-77250400I0J249600D01*
G01*
X38300000Y-76549600D01*
G75*
G02*
X38549600Y-76300000I249600J0D01*
G01*
G37*
%TD*%
%TO.C,R5*%
G36*
G01*
X35327966Y-77035072D02*
X35964928Y-77672034D01*
G75*
G02*
X35964928Y-78025022I-176494J-176494D01*
G01*
X35469388Y-78520562D01*
G75*
G02*
X35116400Y-78520562I-176494J176494D01*
G01*
X34479438Y-77883600D01*
G75*
G02*
X34479438Y-77530612I176494J176494D01*
G01*
X34974978Y-77035072D01*
G75*
G02*
X35327966Y-77035072I176494J-176494D01*
G01*
G37*
G36*
G01*
X36883600Y-75479438D02*
X37520562Y-76116400D01*
G75*
G02*
X37520562Y-76469388I-176494J-176494D01*
G01*
X37025022Y-76964928D01*
G75*
G02*
X36672034Y-76964928I-176494J176494D01*
G01*
X36035072Y-76327966D01*
G75*
G02*
X36035072Y-75974978I176494J176494D01*
G01*
X36530612Y-75479438D01*
G75*
G02*
X36883600Y-75479438I176494J-176494D01*
G01*
G37*
%TD*%
%TO.C,R4*%
G36*
G01*
X32327966Y-74035072D02*
X32964928Y-74672034D01*
G75*
G02*
X32964928Y-75025022I-176494J-176494D01*
G01*
X32469388Y-75520562D01*
G75*
G02*
X32116400Y-75520562I-176494J176494D01*
G01*
X31479438Y-74883600D01*
G75*
G02*
X31479438Y-74530612I176494J176494D01*
G01*
X31974978Y-74035072D01*
G75*
G02*
X32327966Y-74035072I176494J-176494D01*
G01*
G37*
G36*
G01*
X33883600Y-72479438D02*
X34520562Y-73116400D01*
G75*
G02*
X34520562Y-73469388I-176494J-176494D01*
G01*
X34025022Y-73964928D01*
G75*
G02*
X33672034Y-73964928I-176494J176494D01*
G01*
X33035072Y-73327966D01*
G75*
G02*
X33035072Y-72974978I176494J176494D01*
G01*
X33530612Y-72479438D01*
G75*
G02*
X33883600Y-72479438I176494J-176494D01*
G01*
G37*
%TD*%
%TO.C,R3*%
G36*
G01*
X31500000Y-70549600D02*
X31500000Y-71450400D01*
G75*
G02*
X31250400Y-71700000I-249600J0D01*
G01*
X30549600Y-71700000D01*
G75*
G02*
X30300000Y-71450400I0J249600D01*
G01*
X30300000Y-70549600D01*
G75*
G02*
X30549600Y-70300000I249600J0D01*
G01*
X31250400Y-70300000D01*
G75*
G02*
X31500000Y-70549600I0J-249600D01*
G01*
G37*
G36*
G01*
X33700000Y-70549600D02*
X33700000Y-71450400D01*
G75*
G02*
X33450400Y-71700000I-249600J0D01*
G01*
X32749600Y-71700000D01*
G75*
G02*
X32500000Y-71450400I0J249600D01*
G01*
X32500000Y-70549600D01*
G75*
G02*
X32749600Y-70300000I249600J0D01*
G01*
X33450400Y-70300000D01*
G75*
G02*
X33700000Y-70549600I0J-249600D01*
G01*
G37*
%TD*%
%TO.C,R2*%
G36*
G01*
X31500000Y-68549600D02*
X31500000Y-69450400D01*
G75*
G02*
X31250400Y-69700000I-249600J0D01*
G01*
X30549600Y-69700000D01*
G75*
G02*
X30300000Y-69450400I0J249600D01*
G01*
X30300000Y-68549600D01*
G75*
G02*
X30549600Y-68300000I249600J0D01*
G01*
X31250400Y-68300000D01*
G75*
G02*
X31500000Y-68549600I0J-249600D01*
G01*
G37*
G36*
G01*
X33700000Y-68549600D02*
X33700000Y-69450400D01*
G75*
G02*
X33450400Y-69700000I-249600J0D01*
G01*
X32749600Y-69700000D01*
G75*
G02*
X32500000Y-69450400I0J249600D01*
G01*
X32500000Y-68549600D01*
G75*
G02*
X32749600Y-68300000I249600J0D01*
G01*
X33450400Y-68300000D01*
G75*
G02*
X33700000Y-68549600I0J-249600D01*
G01*
G37*
%TD*%
%TO.C,D24*%
X79250000Y-27750000D03*
X77500000Y-27750000D03*
X75750000Y-27750000D03*
X75750000Y-22250000D03*
X77500000Y-22250000D03*
X79250000Y-22250000D03*
%TD*%
D14*
%TO.C,D23*%
X87750000Y-30750000D03*
X87750000Y-32500000D03*
X87750000Y-34250000D03*
X82250000Y-34250000D03*
X82250000Y-32500000D03*
X82250000Y-30750000D03*
%TD*%
D13*
%TO.C,D22*%
X66750000Y-22250000D03*
X68500000Y-22250000D03*
X70250000Y-22250000D03*
X70250000Y-27750000D03*
X68500000Y-27750000D03*
X66750000Y-27750000D03*
%TD*%
D14*
%TO.C,D21*%
X82250000Y-43250000D03*
X82250000Y-41500000D03*
X82250000Y-39750000D03*
X87750000Y-39750000D03*
X87750000Y-41500000D03*
X87750000Y-43250000D03*
%TD*%
D13*
%TO.C,D20*%
X61250000Y-27750000D03*
X59500000Y-27750000D03*
X57750000Y-27750000D03*
X57750000Y-22250000D03*
X59500000Y-22250000D03*
X61250000Y-22250000D03*
%TD*%
D14*
%TO.C,D19*%
X87750000Y-48750000D03*
X87750000Y-50500000D03*
X87750000Y-52250000D03*
X82250000Y-52250000D03*
X82250000Y-50500000D03*
X82250000Y-48750000D03*
%TD*%
D13*
%TO.C,D18*%
X48750000Y-22250000D03*
X50500000Y-22250000D03*
X52250000Y-22250000D03*
X52250000Y-27750000D03*
X50500000Y-27750000D03*
X48750000Y-27750000D03*
%TD*%
D14*
%TO.C,D17*%
X82250000Y-61250000D03*
X82250000Y-59500000D03*
X82250000Y-57750000D03*
X87750000Y-57750000D03*
X87750000Y-59500000D03*
X87750000Y-61250000D03*
%TD*%
D13*
%TO.C,D16*%
X43250000Y-27750000D03*
X41500000Y-27750000D03*
X39750000Y-27750000D03*
X39750000Y-22250000D03*
X41500000Y-22250000D03*
X43250000Y-22250000D03*
%TD*%
D14*
%TO.C,D15*%
X87750000Y-66750000D03*
X87750000Y-68500000D03*
X87750000Y-70250000D03*
X82250000Y-70250000D03*
X82250000Y-68500000D03*
X82250000Y-66750000D03*
%TD*%
D13*
%TO.C,D14*%
X30750000Y-22250000D03*
X32500000Y-22250000D03*
X34250000Y-22250000D03*
X34250000Y-27750000D03*
X32500000Y-27750000D03*
X30750000Y-27750000D03*
%TD*%
D14*
%TO.C,D13*%
X82250000Y-79250000D03*
X82250000Y-77500000D03*
X82250000Y-75750000D03*
X87750000Y-75750000D03*
X87750000Y-77500000D03*
X87750000Y-79250000D03*
%TD*%
D13*
%TO.C,D12*%
X30750000Y-82250000D03*
X32500000Y-82250000D03*
X34250000Y-82250000D03*
X34250000Y-87750000D03*
X32500000Y-87750000D03*
X30750000Y-87750000D03*
%TD*%
D14*
%TO.C,D11*%
X22250000Y-79250000D03*
X22250000Y-77500000D03*
X22250000Y-75750000D03*
X27750000Y-75750000D03*
X27750000Y-77500000D03*
X27750000Y-79250000D03*
%TD*%
D13*
%TO.C,D10*%
X43250000Y-87750000D03*
X41500000Y-87750000D03*
X39750000Y-87750000D03*
X39750000Y-82250000D03*
X41500000Y-82250000D03*
X43250000Y-82250000D03*
%TD*%
D14*
%TO.C,D9*%
X27750000Y-66750000D03*
X27750000Y-68500000D03*
X27750000Y-70250000D03*
X22250000Y-70250000D03*
X22250000Y-68500000D03*
X22250000Y-66750000D03*
%TD*%
D13*
%TO.C,D8*%
X48750000Y-82250000D03*
X50500000Y-82250000D03*
X52250000Y-82250000D03*
X52250000Y-87750000D03*
X50500000Y-87750000D03*
X48750000Y-87750000D03*
%TD*%
D14*
%TO.C,D7*%
X22250000Y-61250000D03*
X22250000Y-59500000D03*
X22250000Y-57750000D03*
X27750000Y-57750000D03*
X27750000Y-59500000D03*
X27750000Y-61250000D03*
%TD*%
D13*
%TO.C,D6*%
X61250000Y-87750000D03*
X59500000Y-87750000D03*
X57750000Y-87750000D03*
X57750000Y-82250000D03*
X59500000Y-82250000D03*
X61250000Y-82250000D03*
%TD*%
D14*
%TO.C,D5*%
X27750000Y-48750000D03*
X27750000Y-50500000D03*
X27750000Y-52250000D03*
X22250000Y-52250000D03*
X22250000Y-50500000D03*
X22250000Y-48750000D03*
%TD*%
%TO.C,D3*%
X22250000Y-43250000D03*
X22250000Y-41500000D03*
X22250000Y-39750000D03*
X27750000Y-39750000D03*
X27750000Y-41500000D03*
X27750000Y-43250000D03*
%TD*%
D13*
%TO.C,D2*%
X79250000Y-87750000D03*
X77500000Y-87750000D03*
X75750000Y-87750000D03*
X75750000Y-82250000D03*
X77500000Y-82250000D03*
X79250000Y-82250000D03*
%TD*%
D14*
%TO.C,D1*%
X27750000Y-30750000D03*
X27750000Y-32500000D03*
X27750000Y-34250000D03*
X22250000Y-34250000D03*
X22250000Y-32500000D03*
X22250000Y-30750000D03*
%TD*%
D15*
%TO.C,Q1*%
X32250000Y-58250000D03*
X33200000Y-61250000D03*
X31300000Y-61250000D03*
%TD*%
%TO.C,C1*%
G36*
G01*
X37250000Y-60549600D02*
X37250000Y-61450400D01*
G75*
G02*
X37000400Y-61700000I-249600J0D01*
G01*
X36299600Y-61700000D01*
G75*
G02*
X36050000Y-61450400I0J249600D01*
G01*
X36050000Y-60549600D01*
G75*
G02*
X36299600Y-60300000I249600J0D01*
G01*
X37000400Y-60300000D01*
G75*
G02*
X37250000Y-60549600I0J-249600D01*
G01*
G37*
G36*
G01*
X39450000Y-60549600D02*
X39450000Y-61450400D01*
G75*
G02*
X39200400Y-61700000I-249600J0D01*
G01*
X38499600Y-61700000D01*
G75*
G02*
X38250000Y-61450400I0J249600D01*
G01*
X38250000Y-60549600D01*
G75*
G02*
X38499600Y-60300000I249600J0D01*
G01*
X39200400Y-60300000D01*
G75*
G02*
X39450000Y-60549600I0J-249600D01*
G01*
G37*
%TD*%
%TO.C,R13*%
G36*
G01*
X36850000Y-57374999D02*
X36850000Y-58625001D01*
G75*
G02*
X36600001Y-58875000I-249999J0D01*
G01*
X35799999Y-58875000D01*
G75*
G02*
X35550000Y-58625001I0J249999D01*
G01*
X35550000Y-57374999D01*
G75*
G02*
X35799999Y-57125000I249999J0D01*
G01*
X36600001Y-57125000D01*
G75*
G02*
X36850000Y-57374999I0J-249999D01*
G01*
G37*
G36*
G01*
X39950000Y-57374999D02*
X39950000Y-58625001D01*
G75*
G02*
X39700001Y-58875000I-249999J0D01*
G01*
X38899999Y-58875000D01*
G75*
G02*
X38650000Y-58625001I0J249999D01*
G01*
X38650000Y-57374999D01*
G75*
G02*
X38899999Y-57125000I249999J0D01*
G01*
X39700001Y-57125000D01*
G75*
G02*
X39950000Y-57374999I0J-249999D01*
G01*
G37*
%TD*%
D16*
%TO.C,J2*%
X78242102Y-35352102D03*
D10*
G36*
X72882233Y-31760000D02*
G01*
X74650000Y-29992233D01*
X76417767Y-31760000D01*
X74650000Y-33527767D01*
X72882233Y-31760000D01*
G37*
%TD*%
%TO.C,J1*%
G36*
G01*
X49491062Y-67693144D02*
X49491062Y-67693144D01*
G75*
G02*
X49491062Y-66491062I601041J601041D01*
G01*
X49491062Y-66491062D01*
G75*
G02*
X50693144Y-66491062I601041J-601041D01*
G01*
X50693144Y-66491062D01*
G75*
G02*
X50693144Y-67693144I-601041J-601041D01*
G01*
X50693144Y-67693144D01*
G75*
G02*
X49491062Y-67693144I-601041J601041D01*
G01*
G37*
G36*
G01*
X47695011Y-65897093D02*
X47695011Y-65897093D01*
G75*
G02*
X47695011Y-64695011I601041J601041D01*
G01*
X47695011Y-64695011D01*
G75*
G02*
X48897093Y-64695011I601041J-601041D01*
G01*
X48897093Y-64695011D01*
G75*
G02*
X48897093Y-65897093I-601041J-601041D01*
G01*
X48897093Y-65897093D01*
G75*
G02*
X47695011Y-65897093I-601041J601041D01*
G01*
G37*
G36*
G01*
X45898959Y-64101041D02*
X45898959Y-64101041D01*
G75*
G02*
X45898959Y-62898959I601041J601041D01*
G01*
X45898959Y-62898959D01*
G75*
G02*
X47101041Y-62898959I601041J-601041D01*
G01*
X47101041Y-62898959D01*
G75*
G02*
X47101041Y-64101041I-601041J-601041D01*
G01*
X47101041Y-64101041D01*
G75*
G02*
X45898959Y-64101041I-601041J601041D01*
G01*
G37*
G36*
G01*
X44102908Y-62304990D02*
X44102908Y-62304990D01*
G75*
G02*
X44102908Y-61102908I601041J601041D01*
G01*
X44102908Y-61102908D01*
G75*
G02*
X45304990Y-61102908I601041J-601041D01*
G01*
X45304990Y-61102908D01*
G75*
G02*
X45304990Y-62304990I-601041J-601041D01*
G01*
X45304990Y-62304990D01*
G75*
G02*
X44102908Y-62304990I-601041J601041D01*
G01*
G37*
G36*
X42907898Y-61109980D02*
G01*
X41705816Y-59907898D01*
X42907898Y-58705816D01*
X44109980Y-59907898D01*
X42907898Y-61109980D01*
G37*
%TD*%
%TO.C,R12*%
G36*
G01*
X34199851Y-64187111D02*
X33562889Y-63550149D01*
G75*
G02*
X33562889Y-63197161I176494J176494D01*
G01*
X34058429Y-62701621D01*
G75*
G02*
X34411417Y-62701621I176494J-176494D01*
G01*
X35048379Y-63338583D01*
G75*
G02*
X35048379Y-63691571I-176494J-176494D01*
G01*
X34552839Y-64187111D01*
G75*
G02*
X34199851Y-64187111I-176494J176494D01*
G01*
G37*
G36*
G01*
X32644217Y-65742745D02*
X32007255Y-65105783D01*
G75*
G02*
X32007255Y-64752795I176494J176494D01*
G01*
X32502795Y-64257255D01*
G75*
G02*
X32855783Y-64257255I176494J-176494D01*
G01*
X33492745Y-64894217D01*
G75*
G02*
X33492745Y-65247205I-176494J-176494D01*
G01*
X32997205Y-65742745D01*
G75*
G02*
X32644217Y-65742745I-176494J176494D01*
G01*
G37*
%TD*%
M02*
