M48
; DRILL file {KiCad 5.1.9+dfsg1-1+deb11u1} date Thu Jul 25 19:41:24 2024
; FORMAT={-:-/ absolute / inch / decimal}
; #@! TF.CreationDate,2024-07-25T19:41:24+02:00
; #@! TF.GenerationSoftware,Kicad,Pcbnew,5.1.9+dfsg1-1+deb11u1
; #@! TF.FileFunction,Plated,1,2,PTH
FMAT,2
INCH
T1C0.0118
T2C0.0394
T3C0.0512
%
G90
G05
T1
X0.8268Y-1.4567
X0.8268Y-2.874
X0.8661Y-0.9449
X0.8661Y-3.3465
X0.9055Y-1.5157
X0.9055Y-1.752
X0.9055Y-1.8701
X0.9055Y-2.2244
X0.9055Y-2.4606
X0.9055Y-2.5
X0.9055Y-2.9331
X0.9449Y-0.8661
X0.9449Y-2.8543
X0.9843Y-2.7657
X0.9843Y-1.5354
X0.9843Y-1.7717
X0.9843Y-1.9193
X0.9843Y-3.1201
X0.9843Y-3.4646
X0.9941Y-3.3465
X1.0236Y-2.2736
X1.0236Y-1.2106
X1.063Y-2.5787
X1.063Y-2.9331
X1.0827Y-2.1063
X1.1024Y-2.4606
X1.1024Y-1.5157
X1.1417Y-1.1417
X1.1417Y-2.5787
X1.1417Y-2.815
X1.1516Y-3.4449
X1.1614Y-1.063
X1.1614Y-3.1594
X1.1811Y-2.5394
X1.2008Y-3.1201
X1.2106Y-0.9449
X1.2106Y-3.3071
X1.2598Y-1.9685
X1.2598Y-2.5886
X1.2795Y-0.9843
X1.3484Y-1.0236
X1.3484Y-3.3465
X1.437Y-3.3858
X1.4862Y-2.5591
X1.4964Y-2.7359
X1.5059Y-3.4646
X1.5157Y-1.063
X1.5157Y-3.2677
X1.5157Y-3.3465
X1.5295Y-2.3484
X1.565Y-3.3071
X1.5748Y-2.4705
X1.6339Y-0.9843
X1.6929Y-2.5787
X1.7028Y-1.0236
X1.7028Y-3.3858
X1.752Y-3.3465
X1.752Y-3.189
X1.8012Y-3.3071
X1.811Y-0.8661
X1.8504Y-2.9921
X1.8602Y-3.4646
X1.8701Y-1.063
X1.9082Y-2.7054
X1.9193Y-0.9449
X1.9193Y-3.3465
X1.9882Y-0.9843
X1.9882Y-2.8445
X2.0571Y-1.0236
X2.0571Y-2.7756
X2.0571Y-3.3071
X2.1161Y-3.4252
X2.1752Y-3.3858
X2.2244Y-1.063
X2.2835Y-3.1102
X2.3425Y-0.9843
X2.4114Y-3.3071
X2.4114Y-1.0236
X2.5197Y-0.8661
X2.5689Y-3.4646
X2.5787Y-1.063
X2.628Y-3.3071
X2.7657Y-0.9843
X2.815Y-1.0236
X2.815Y-3.2283
X2.8642Y-3.3071
X2.8642Y-3.3465
X2.874Y-0.8661
X2.9331Y-1.063
X3.0807Y-0.9843
X3.1102Y-1.2205
X3.1201Y-0.9449
X3.1791Y-3.4646
X3.189Y-3.5039
X3.1988Y-3.1693
X3.2283Y-0.8661
X3.2283Y-1.8701
X3.2283Y-2.2244
X3.2677Y-1.3976
X3.2677Y-1.752
X3.2677Y-2.815
X3.2677Y-3.1693
X3.2677Y-3.2382
X3.3071Y-1.2106
X3.3071Y-1.6339
X3.3071Y-2.0571
X3.3071Y-2.4114
X3.3071Y-1.2795
X3.3465Y-1.565
X3.3465Y-1.9882
X3.3465Y-2.3425
X3.3858Y-0.8661
X3.3858Y-1.7028
X3.3858Y-2.815
X3.3858Y-2.9331
X3.4252Y-2.5787
X3.4252Y-2.8937
X3.4646Y-0.9449
X3.4646Y-1.1024
X3.4646Y-1.811
X3.5039Y-3.189
T2
X1.6893Y-2.3586
X1.76Y-2.4293
X1.8307Y-2.5
X1.9014Y-2.5707
X1.9721Y-2.6414
T3
X2.939Y-1.2504
X3.0804Y-1.3918
T0
M30
