%TF.GenerationSoftware,KiCad,Pcbnew,5.1.9+dfsg1-1+deb11u1*%
%TF.CreationDate,2024-07-25T19:41:34+02:00*%
%TF.ProjectId,label1,6c616265-6c31-42e6-9b69-6361645f7063,rev?*%
%TF.SameCoordinates,Original*%
%TF.FileFunction,Copper,L2,Bot*%
%TF.FilePolarity,Positive*%
%FSLAX46Y46*%
G04 Gerber Fmt 4.6, Leading zero omitted, Abs format (unit mm)*
G04 Created by KiCad (PCBNEW 5.1.9+dfsg1-1+deb11u1) date 2024-07-25 19:41:34*
%MOMM*%
%LPD*%
G01*
G04 APERTURE LIST*
%TA.AperFunction,NonConductor*%
%ADD10C,0.300000*%
%TD*%
%TA.AperFunction,ComponentPad*%
%ADD11C,2.500000*%
%TD*%
%TA.AperFunction,ComponentPad*%
%ADD12C,0.100000*%
%TD*%
%TA.AperFunction,ViaPad*%
%ADD13C,0.500000*%
%TD*%
%TA.AperFunction,Conductor*%
%ADD14C,0.700000*%
%TD*%
%TA.AperFunction,Conductor*%
%ADD15C,2.000000*%
%TD*%
%TA.AperFunction,Conductor*%
%ADD16C,0.250000*%
%TD*%
%TA.AperFunction,Conductor*%
%ADD17C,0.100000*%
%TD*%
G04 APERTURE END LIST*
D10*
X62316029Y-62280674D02*
X62417044Y-62280674D01*
X62669583Y-62230166D01*
X62821105Y-62179659D01*
X63023136Y-62078644D01*
X63326182Y-61876613D01*
X63528212Y-61674583D01*
X63730243Y-61371537D01*
X63831258Y-61169506D01*
X63881766Y-61017983D01*
X63932273Y-60765445D01*
X63932273Y-60664430D01*
X61911968Y-60967476D02*
X61962476Y-61118999D01*
X62164506Y-61321029D01*
X62316029Y-61371537D01*
X62417044Y-61371537D01*
X62568567Y-61321029D01*
X62871613Y-61017983D01*
X62922121Y-60866461D01*
X62922121Y-60765445D01*
X62871613Y-60613922D01*
X62669583Y-60411892D01*
X62518060Y-60361384D01*
X61103846Y-61068491D02*
X61103846Y-60967476D01*
X61154354Y-60714938D01*
X61204861Y-60563415D01*
X61305877Y-60361384D01*
X61507907Y-60058339D01*
X61709938Y-59856308D01*
X62012983Y-59654277D01*
X62215014Y-59553262D01*
X62366537Y-59502755D01*
X62619075Y-59452247D01*
X62720090Y-59452247D01*
X61709938Y-58947171D02*
X61709938Y-58846155D01*
X61659430Y-58694633D01*
X61406892Y-58442094D01*
X61255369Y-58391587D01*
X61154354Y-58391587D01*
X61002831Y-58442094D01*
X60901816Y-58543110D01*
X60800800Y-58745140D01*
X60800800Y-59957323D01*
X60144201Y-59300724D01*
X60548262Y-57583465D02*
X60447247Y-57482450D01*
X60295724Y-57431942D01*
X60194709Y-57431942D01*
X60043186Y-57482450D01*
X59790648Y-57633972D01*
X59538110Y-57886511D01*
X59386587Y-58139049D01*
X59336079Y-58290572D01*
X59336079Y-58391587D01*
X59386587Y-58543110D01*
X59487602Y-58644125D01*
X59639125Y-58694633D01*
X59740140Y-58694633D01*
X59891663Y-58644125D01*
X60144201Y-58492602D01*
X60396739Y-58240064D01*
X60548262Y-57987526D01*
X60598770Y-57836003D01*
X60598770Y-57734988D01*
X60548262Y-57583465D01*
X59689633Y-56926866D02*
X59689633Y-56825850D01*
X59639125Y-56674327D01*
X59386587Y-56421789D01*
X59235064Y-56371282D01*
X59134049Y-56371282D01*
X58982526Y-56421789D01*
X58881511Y-56522805D01*
X58780495Y-56724835D01*
X58780495Y-57937018D01*
X58123896Y-57280419D01*
X57921866Y-55664175D02*
X57214759Y-56371282D01*
X58578465Y-55512652D02*
X58073388Y-56522805D01*
X57416789Y-55866205D01*
X57063236Y-54098438D02*
X56457144Y-53492347D01*
X55699530Y-54856053D02*
X56760190Y-53795393D01*
X55042931Y-54199454D02*
X56103591Y-53138794D01*
X54588362Y-53744885D02*
X55143946Y-53189301D01*
X55295469Y-53138794D01*
X55446992Y-53189301D01*
X55598515Y-53340824D01*
X55649022Y-53492347D01*
X55649022Y-53593362D01*
X53729733Y-52785240D02*
X53780240Y-52936763D01*
X53982271Y-53138794D01*
X54133794Y-53189301D01*
X54285316Y-53138794D01*
X54689377Y-52734733D01*
X54739885Y-52583210D01*
X54689377Y-52431687D01*
X54487347Y-52229656D01*
X54335824Y-52179149D01*
X54184301Y-52229656D01*
X54083286Y-52330672D01*
X54487347Y-52936763D01*
X53022626Y-52179149D02*
X53174149Y-52229656D01*
X53275164Y-52229656D01*
X53426687Y-52179149D01*
X53729733Y-51876103D01*
X53780240Y-51724580D01*
X53780240Y-51623565D01*
X53729733Y-51472042D01*
X53578210Y-51320519D01*
X53426687Y-51270011D01*
X53325672Y-51270011D01*
X53174149Y-51320519D01*
X52871103Y-51623565D01*
X52820595Y-51775088D01*
X52820595Y-51876103D01*
X52871103Y-52027626D01*
X53022626Y-52179149D01*
X51608412Y-49653767D02*
X51406382Y-49552752D01*
X51305366Y-49552752D01*
X51153844Y-49603260D01*
X51002321Y-49754783D01*
X50951813Y-49906305D01*
X50951813Y-50007321D01*
X51002321Y-50158844D01*
X51406382Y-50562905D01*
X52467042Y-49502244D01*
X52113488Y-49148691D01*
X51961966Y-49098183D01*
X51860950Y-49098183D01*
X51709427Y-49148691D01*
X51608412Y-49249706D01*
X51557905Y-49401229D01*
X51557905Y-49502244D01*
X51608412Y-49653767D01*
X51961966Y-50007321D01*
X50194199Y-49350722D02*
X50345722Y-49401229D01*
X50446737Y-49401229D01*
X50598260Y-49350722D01*
X50901305Y-49047676D01*
X50951813Y-48896153D01*
X50951813Y-48795138D01*
X50901305Y-48643615D01*
X50749783Y-48492092D01*
X50598260Y-48441584D01*
X50497244Y-48441584D01*
X50345722Y-48492092D01*
X50042676Y-48795138D01*
X49992168Y-48946661D01*
X49992168Y-49047676D01*
X50042676Y-49199199D01*
X50194199Y-49350722D01*
X49386077Y-48542600D02*
X50093183Y-47835493D01*
X49891153Y-48037523D02*
X49941660Y-47886000D01*
X49941660Y-47784985D01*
X49891153Y-47633462D01*
X49790138Y-47532447D01*
X48729477Y-47886000D02*
X49436584Y-47178894D01*
X49335569Y-47279909D02*
X49335569Y-47178894D01*
X49285061Y-47027371D01*
X49133538Y-46875848D01*
X48982016Y-46825340D01*
X48830493Y-46875848D01*
X48274909Y-47431432D01*
X48830493Y-46875848D02*
X48881000Y-46724325D01*
X48830493Y-46572802D01*
X48678970Y-46421279D01*
X48527447Y-46370772D01*
X48375924Y-46421279D01*
X47820340Y-46976863D01*
X58669379Y-61432146D02*
X59730039Y-60371486D01*
X58214810Y-60977577D02*
X58770394Y-60421993D01*
X58921917Y-60371486D01*
X59073440Y-60421993D01*
X59224963Y-60573516D01*
X59275470Y-60725039D01*
X59275470Y-60826054D01*
X57255165Y-60017932D02*
X57810749Y-59462348D01*
X57962272Y-59411841D01*
X58113795Y-59462348D01*
X58315825Y-59664379D01*
X58366333Y-59815902D01*
X57305673Y-59967424D02*
X57356180Y-60118947D01*
X57608719Y-60371486D01*
X57760241Y-60421993D01*
X57911764Y-60371486D01*
X58012780Y-60270470D01*
X58063287Y-60118947D01*
X58012780Y-59967424D01*
X57760241Y-59714886D01*
X57709734Y-59563363D01*
X56346028Y-59007780D02*
X56396536Y-59159302D01*
X56598566Y-59361333D01*
X56750089Y-59411841D01*
X56851104Y-59411841D01*
X57002627Y-59361333D01*
X57305673Y-59058287D01*
X57356180Y-58906764D01*
X57356180Y-58805749D01*
X57305673Y-58654226D01*
X57103642Y-58452196D01*
X56952119Y-58401688D01*
X55840952Y-58603719D02*
X56901612Y-57543058D01*
X56143997Y-58098642D02*
X55436891Y-58199658D01*
X56143997Y-57492551D02*
X56143997Y-58300673D01*
X55790444Y-57138997D02*
X54881307Y-57644074D01*
X55184352Y-56936967D01*
X54477246Y-57240013D01*
X54982322Y-56330875D01*
X53871154Y-56633921D02*
X54578261Y-55926814D01*
X54931814Y-55573261D02*
X54931814Y-55674276D01*
X54830799Y-55674276D01*
X54830799Y-55573261D01*
X54931814Y-55573261D01*
X54830799Y-55674276D01*
X54073185Y-55421738D02*
X53366078Y-56128845D01*
X53972169Y-55522753D02*
X53972169Y-55421738D01*
X53921662Y-55270215D01*
X53770139Y-55118692D01*
X53618616Y-55068185D01*
X53467093Y-55118692D01*
X52911509Y-55674276D01*
X52406433Y-55169200D02*
X53467093Y-54108540D01*
X52709479Y-54664124D02*
X52002372Y-54765139D01*
X52709479Y-54058032D02*
X52709479Y-54866154D01*
X51194250Y-53856002D02*
X51244758Y-54007524D01*
X51446788Y-54209555D01*
X51598311Y-54260063D01*
X51749834Y-54209555D01*
X52153895Y-53805494D01*
X52204402Y-53653971D01*
X52153895Y-53502448D01*
X51951864Y-53300418D01*
X51800341Y-53249910D01*
X51648819Y-53300418D01*
X51547803Y-53401433D01*
X51951864Y-54007524D01*
X50487143Y-53249910D02*
X50638666Y-53300418D01*
X50790189Y-53249910D01*
X51699326Y-52340773D01*
X50184097Y-52744834D02*
X50083082Y-52744834D01*
X50083082Y-52845849D01*
X50184097Y-52845849D01*
X50184097Y-52744834D01*
X50083082Y-52845849D01*
X50285113Y-51633666D02*
X49578006Y-52340773D01*
X50184097Y-51734681D02*
X50184097Y-51633666D01*
X50133590Y-51482143D01*
X49982067Y-51330620D01*
X49830544Y-51280113D01*
X49679021Y-51330620D01*
X49123437Y-51886204D01*
X48466838Y-51229605D02*
X48618361Y-51280113D01*
X48769884Y-51229605D01*
X49679021Y-50320468D01*
D11*
%TO.P,J2,2*%
%TO.N,+5V*%
X78242102Y-35352102D03*
%TA.AperFunction,ComponentPad*%
D12*
%TO.P,J2,1*%
%TO.N,GND*%
G36*
X72882233Y-31760000D02*
G01*
X74650000Y-29992233D01*
X76417767Y-31760000D01*
X74650000Y-33527767D01*
X72882233Y-31760000D01*
G37*
%TD.AperFunction*%
%TD*%
%TO.P,J1,5*%
%TO.N,+5V*%
%TA.AperFunction,ComponentPad*%
G36*
G01*
X49491062Y-67693144D02*
X49491062Y-67693144D01*
G75*
G02*
X49491062Y-66491062I601041J601041D01*
G01*
X49491062Y-66491062D01*
G75*
G02*
X50693144Y-66491062I601041J-601041D01*
G01*
X50693144Y-66491062D01*
G75*
G02*
X50693144Y-67693144I-601041J-601041D01*
G01*
X50693144Y-67693144D01*
G75*
G02*
X49491062Y-67693144I-601041J601041D01*
G01*
G37*
%TD.AperFunction*%
%TO.P,J1,4*%
%TO.N,Net-(J1-Pad4)*%
%TA.AperFunction,ComponentPad*%
G36*
G01*
X47695011Y-65897093D02*
X47695011Y-65897093D01*
G75*
G02*
X47695011Y-64695011I601041J601041D01*
G01*
X47695011Y-64695011D01*
G75*
G02*
X48897093Y-64695011I601041J-601041D01*
G01*
X48897093Y-64695011D01*
G75*
G02*
X48897093Y-65897093I-601041J-601041D01*
G01*
X48897093Y-65897093D01*
G75*
G02*
X47695011Y-65897093I-601041J601041D01*
G01*
G37*
%TD.AperFunction*%
%TO.P,J1,3*%
%TO.N,Net-(J1-Pad3)*%
%TA.AperFunction,ComponentPad*%
G36*
G01*
X45898959Y-64101041D02*
X45898959Y-64101041D01*
G75*
G02*
X45898959Y-62898959I601041J601041D01*
G01*
X45898959Y-62898959D01*
G75*
G02*
X47101041Y-62898959I601041J-601041D01*
G01*
X47101041Y-62898959D01*
G75*
G02*
X47101041Y-64101041I-601041J-601041D01*
G01*
X47101041Y-64101041D01*
G75*
G02*
X45898959Y-64101041I-601041J601041D01*
G01*
G37*
%TD.AperFunction*%
%TO.P,J1,2*%
%TO.N,Net-(J1-Pad2)*%
%TA.AperFunction,ComponentPad*%
G36*
G01*
X44102908Y-62304990D02*
X44102908Y-62304990D01*
G75*
G02*
X44102908Y-61102908I601041J601041D01*
G01*
X44102908Y-61102908D01*
G75*
G02*
X45304990Y-61102908I601041J-601041D01*
G01*
X45304990Y-61102908D01*
G75*
G02*
X45304990Y-62304990I-601041J-601041D01*
G01*
X45304990Y-62304990D01*
G75*
G02*
X44102908Y-62304990I-601041J601041D01*
G01*
G37*
%TD.AperFunction*%
%TA.AperFunction,ComponentPad*%
%TO.P,J1,1*%
%TO.N,GND*%
G36*
X42907898Y-61109980D02*
G01*
X41705816Y-59907898D01*
X42907898Y-58705816D01*
X44109980Y-59907898D01*
X42907898Y-61109980D01*
G37*
%TD.AperFunction*%
%TD*%
D13*
%TO.N,GND*%
X37750000Y-65000000D03*
X40000012Y-62750000D03*
X50500000Y-72250000D03*
X22000000Y-85000000D03*
X25000000Y-88000000D03*
X47000000Y-76000000D03*
X58000000Y-79000000D03*
X89000000Y-81000000D03*
X81000000Y-89000000D03*
X88000000Y-46000000D03*
X88000000Y-28000000D03*
X82000000Y-22000000D03*
X86000000Y-22000000D03*
X88000000Y-24000000D03*
X73000000Y-22000000D03*
X64000000Y-22000000D03*
X46000000Y-22000000D03*
X79000000Y-31000000D03*
X32000000Y-50000000D03*
X24000000Y-22000000D03*
X22000000Y-24000000D03*
X29000000Y-29000000D03*
X21000000Y-37000000D03*
X21000000Y-73000000D03*
%TO.N,Net-(D1-Pad1)*%
X23000000Y-74500000D03*
X23000000Y-63500000D03*
%TO.N,Net-(D10-Pad2)*%
X44500002Y-81000000D03*
X82000000Y-56500000D03*
X82000000Y-47500000D03*
X71500004Y-82000000D03*
X30500001Y-79250001D03*
X30000000Y-64500000D03*
X81250000Y-80500006D03*
X29500000Y-27000000D03*
X38500000Y-27000000D03*
X47500000Y-27000000D03*
X56500000Y-27000000D03*
X65500000Y-27000000D03*
X74500000Y-27000000D03*
%TO.N,Net-(D10-Pad1)*%
X53750000Y-87000000D03*
X44500000Y-85000000D03*
X34250000Y-85000000D03*
X38500000Y-85000000D03*
X25250000Y-85000000D03*
X87000000Y-73500000D03*
X87000000Y-65500000D03*
X85000000Y-39750000D03*
X84000000Y-30750000D03*
X23000000Y-56500000D03*
X23000000Y-62500000D03*
X48750000Y-23999980D03*
%TO.N,+5V*%
X38850000Y-59650000D03*
X48467103Y-68717103D03*
%TO.N,Net-(U1-Pad10)*%
X43000000Y-65500000D03*
X52250000Y-70500000D03*
%TO.N,Net-(D1-Pad6)*%
X27999999Y-38499999D03*
X29500000Y-80250000D03*
X29000000Y-71500000D03*
X29000000Y-65500000D03*
X26000010Y-30750000D03*
X83000000Y-82250000D03*
%TO.N,Net-(D1-Pad5)*%
X23000000Y-44500036D03*
X65250002Y-88000000D03*
X80750002Y-88000002D03*
X24999995Y-70250005D03*
X25000000Y-79250000D03*
X86000000Y-43250000D03*
X23000000Y-38500004D03*
%TO.N,Net-(D1-Pad4)*%
X23000000Y-47500000D03*
X25000000Y-45000000D03*
X83000000Y-44499996D03*
X83000000Y-71500008D03*
X47250000Y-88000000D03*
X38250002Y-88000000D03*
X24000000Y-72500000D03*
X29250000Y-87500000D03*
X83000000Y-35500000D03*
X83000000Y-80499988D03*
X25000000Y-39000000D03*
%TO.N,Net-(D10-Pad6)*%
X25000000Y-48750000D03*
X86000000Y-74499994D03*
X86000000Y-71500000D03*
X55250000Y-86000000D03*
X48750000Y-85000012D03*
X36499989Y-85999989D03*
X43250000Y-86000000D03*
X84000000Y-41500000D03*
X84000010Y-32500000D03*
X26000000Y-57750014D03*
X30750000Y-24000000D03*
%TO.N,Net-(D10-Pad3)*%
X39750000Y-84000000D03*
X30750000Y-84000000D03*
X85000000Y-59500000D03*
X85000000Y-50499994D03*
X72750000Y-85000000D03*
X45750003Y-84000003D03*
X27000000Y-74500000D03*
X27000000Y-65500000D03*
X32500000Y-25000000D03*
X41500000Y-25000000D03*
X50500000Y-25000000D03*
X59500000Y-25000000D03*
X70250000Y-25000000D03*
X78250005Y-25000005D03*
%TO.N,Net-(R12-Pad1)*%
X38008471Y-69491529D03*
X32000000Y-65750000D03*
%TO.N,Net-(D14-Pad3)*%
X38500000Y-83000000D03*
X79250000Y-24000000D03*
X84000000Y-61250000D03*
X84000000Y-52250000D03*
X72750000Y-84000000D03*
X66749996Y-84000000D03*
X61249994Y-84000000D03*
X52250000Y-84000000D03*
X27999996Y-62500000D03*
X27500000Y-53500010D03*
X34250000Y-26000000D03*
X43250000Y-26000000D03*
X52250000Y-26000012D03*
X61250000Y-26000000D03*
X71500000Y-26000000D03*
%TD*%
D14*
%TO.N,GND*%
X40000000Y-62750000D02*
X40000012Y-62750000D01*
X37750000Y-65000000D02*
X39250000Y-63500000D01*
X39250000Y-63500000D02*
X40000000Y-62750000D01*
X49250000Y-71000000D02*
X50500000Y-72250000D01*
X46750000Y-71000000D02*
X49250000Y-71000000D01*
X39250000Y-63500000D02*
X46750000Y-71000000D01*
%TO.N,Net-(D1-Pad1)*%
X23000000Y-64249976D02*
X23000000Y-63500000D01*
X23000000Y-74500000D02*
X23000000Y-64249976D01*
%TO.N,Net-(D10-Pad2)*%
X82000000Y-56146447D02*
X82000000Y-47500000D01*
X82000000Y-56500000D02*
X82000000Y-56146447D01*
X50750000Y-81000000D02*
X51750000Y-82000000D01*
X51750000Y-82000000D02*
X71500004Y-82000000D01*
X44500002Y-81000000D02*
X50750000Y-81000000D01*
X44500002Y-81000000D02*
X32250000Y-81000000D01*
X32250000Y-81000000D02*
X30500001Y-79250001D01*
X30000000Y-78750000D02*
X30000000Y-64500000D01*
X30500001Y-79250001D02*
X30000000Y-78750000D01*
X71500004Y-82000000D02*
X79750006Y-82000000D01*
X82000000Y-79750006D02*
X81250000Y-80500006D01*
X82000000Y-56500000D02*
X82000000Y-79750006D01*
X79750006Y-82000000D02*
X81250000Y-80500006D01*
X29000000Y-27000000D02*
X29500000Y-27000000D01*
X27000000Y-29000000D02*
X29000000Y-27000000D01*
X29000000Y-37000000D02*
X27000000Y-35000000D01*
X29000000Y-52000000D02*
X29000000Y-37000000D01*
X30000000Y-53000000D02*
X29000000Y-52000000D01*
X27000000Y-35000000D02*
X27000000Y-29000000D01*
X30000000Y-64500000D02*
X30000000Y-53000000D01*
X29500000Y-27000000D02*
X38500000Y-27000000D01*
X38500000Y-27000000D02*
X47500000Y-27000000D01*
X47500000Y-27000000D02*
X56500000Y-27000000D01*
X56500000Y-27000000D02*
X65500000Y-27000000D01*
X65500000Y-27000000D02*
X74500000Y-27000000D01*
%TO.N,Net-(D10-Pad1)*%
X34250000Y-85000000D02*
X38500000Y-85000000D01*
X53750000Y-87000000D02*
X49250000Y-87000000D01*
X49250000Y-87000000D02*
X47250000Y-85000000D01*
X47250000Y-85000000D02*
X38500000Y-85000000D01*
X53750000Y-87000000D02*
X84500000Y-87000000D01*
X84500000Y-87000000D02*
X87000000Y-84500000D01*
X87000000Y-84500000D02*
X87000000Y-73500000D01*
X25250000Y-85000000D02*
X22000000Y-81750000D01*
X87000000Y-73500000D02*
X87000000Y-65500000D01*
X85000000Y-47500000D02*
X85000000Y-39750000D01*
X87000000Y-49500000D02*
X85000000Y-47500000D01*
X87000000Y-65500000D02*
X87000000Y-49500000D01*
X85000000Y-39750000D02*
X85000000Y-39750000D01*
X85000000Y-31750000D02*
X85000000Y-39750000D01*
X84000000Y-30750000D02*
X85000000Y-31750000D01*
X22000000Y-56999994D02*
X22499994Y-56500000D01*
X22499994Y-56500000D02*
X23000000Y-56500000D01*
X22000000Y-62500000D02*
X23000000Y-62500000D01*
X22000000Y-81750000D02*
X22000000Y-62500000D01*
X22000000Y-62500000D02*
X22000000Y-56999994D01*
X32499980Y-23999980D02*
X48750000Y-23999980D01*
X31500000Y-23000000D02*
X32499980Y-23999980D01*
X27000000Y-23000000D02*
X31500000Y-23000000D01*
X22000000Y-28000000D02*
X27000000Y-23000000D01*
X22000000Y-56999994D02*
X22000000Y-28000000D01*
%TO.N,+5V*%
X39400000Y-59650000D02*
X48467103Y-68717103D01*
X38850000Y-59650000D02*
X39400000Y-59650000D01*
D15*
X79500000Y-36610000D02*
X78242102Y-35352102D01*
X79500000Y-67092103D02*
X79500000Y-36610000D01*
X50092103Y-67092103D02*
X79500000Y-67092103D01*
D14*
%TO.N,Net-(U1-Pad10)*%
X51750000Y-70000000D02*
X52250000Y-70500000D01*
X47500000Y-70000000D02*
X51750000Y-70000000D01*
X43000000Y-65500000D02*
X47500000Y-70000000D01*
%TO.N,Net-(D1-Pad6)*%
X29500000Y-80250000D02*
X29000000Y-79750000D01*
X29000000Y-79750000D02*
X29000000Y-71500000D01*
X29000000Y-65500000D02*
X29000000Y-71500000D01*
X29000000Y-53500000D02*
X29000000Y-65500000D01*
X27999999Y-52499999D02*
X29000000Y-53500000D01*
X27999999Y-38499999D02*
X27999999Y-52499999D01*
X26000010Y-35500010D02*
X26000010Y-30750000D01*
X27999999Y-37499999D02*
X26000010Y-35500010D01*
X27999999Y-38499999D02*
X27999999Y-37499999D01*
X31250000Y-82000000D02*
X50250000Y-82000000D01*
X29500000Y-80250000D02*
X31250000Y-82000000D01*
X51250000Y-83000000D02*
X82250000Y-83000000D01*
X50250000Y-82000000D02*
X51250000Y-83000000D01*
X82250000Y-83000000D02*
X83000000Y-82250000D01*
%TO.N,Net-(D1-Pad5)*%
X25000000Y-81750000D02*
X25000000Y-79250000D01*
X48750000Y-88000000D02*
X47750000Y-87000000D01*
X24999995Y-70250005D02*
X24999995Y-79249995D01*
X24999995Y-79249995D02*
X25000000Y-79250000D01*
X65250002Y-88000000D02*
X48750000Y-88000000D01*
X47750000Y-87000000D02*
X30250000Y-87000000D01*
X30250000Y-87000000D02*
X25000000Y-81750000D01*
X86000000Y-47000000D02*
X86000000Y-43250000D01*
X88000000Y-49000000D02*
X86000000Y-47000000D01*
X88000000Y-85000000D02*
X88000000Y-49000000D01*
X84999998Y-88000002D02*
X88000000Y-85000000D01*
X80750002Y-88000002D02*
X84999998Y-88000002D01*
X24999995Y-55499995D02*
X24999995Y-63204382D01*
X24000000Y-47000000D02*
X24000000Y-54500000D01*
X23000000Y-46000000D02*
X24000000Y-47000000D01*
X24999995Y-63204382D02*
X24999995Y-70250005D01*
X24000000Y-54500000D02*
X24999995Y-55499995D01*
X23000000Y-44500036D02*
X23000000Y-46000000D01*
X23000000Y-44500036D02*
X23000000Y-38500004D01*
%TO.N,Net-(D1-Pad4)*%
X83000000Y-44499996D02*
X83000000Y-71500008D01*
X47250000Y-88000000D02*
X46896447Y-88000000D01*
X46896447Y-88000000D02*
X38250002Y-88000000D01*
X24000000Y-72500000D02*
X24000000Y-82250000D01*
X29750000Y-88000000D02*
X29250000Y-87500000D01*
X24000000Y-82250000D02*
X29250000Y-87500000D01*
X38250002Y-88000000D02*
X29750000Y-88000000D01*
X83000000Y-44499996D02*
X83000000Y-44146443D01*
X83000000Y-44146443D02*
X83000000Y-35500000D01*
X83000000Y-71500008D02*
X83000000Y-80499988D01*
X24000000Y-63750000D02*
X24000000Y-72500000D01*
X24000000Y-55988597D02*
X24000000Y-63750000D01*
X23000000Y-54988597D02*
X24000000Y-55988597D01*
X23000000Y-47500000D02*
X23000000Y-54988597D01*
X25000000Y-45000000D02*
X25000000Y-39000000D01*
%TO.N,Net-(D10-Pad6)*%
X86000000Y-84000000D02*
X84000000Y-86000000D01*
X86000000Y-74499994D02*
X86000000Y-84000000D01*
X84000000Y-86000000D02*
X55250000Y-86000000D01*
X55250000Y-86000000D02*
X49749988Y-86000000D01*
X49749988Y-86000000D02*
X48750000Y-85000012D01*
X43249989Y-85999989D02*
X43250000Y-86000000D01*
X36499989Y-85999989D02*
X43249989Y-85999989D01*
X86000000Y-74499994D02*
X86000000Y-71500000D01*
X84000000Y-32500010D02*
X84000010Y-32500000D01*
X84000000Y-41500000D02*
X84000000Y-32500010D01*
X84000000Y-48000000D02*
X84000000Y-41500000D01*
X86000000Y-50000000D02*
X84000000Y-48000000D01*
X86000000Y-71500000D02*
X86000000Y-50000000D01*
X36499989Y-85999989D02*
X30749989Y-85999989D01*
X25000000Y-54000000D02*
X26000000Y-55000000D01*
X25000000Y-48750000D02*
X25000000Y-54000000D01*
X26000000Y-81250000D02*
X26000000Y-55000000D01*
X30749989Y-85999989D02*
X26000000Y-81250000D01*
X27500000Y-24000000D02*
X30750000Y-24000000D01*
X23000000Y-28500000D02*
X27500000Y-24000000D01*
X23000000Y-37000000D02*
X23000000Y-28500000D01*
X24000000Y-38000000D02*
X23000000Y-37000000D01*
X24000000Y-45500000D02*
X24000000Y-38000000D01*
X25000000Y-46500000D02*
X24000000Y-45500000D01*
X25000000Y-48750000D02*
X25000000Y-46500000D01*
%TO.N,Net-(D10-Pad3)*%
X39750000Y-84000000D02*
X30750000Y-84000000D01*
X85000000Y-59500000D02*
X85000000Y-59146447D01*
X85000000Y-59146447D02*
X85000000Y-50499994D01*
X78750000Y-85000000D02*
X72750000Y-85000000D01*
X83500000Y-85000000D02*
X78750000Y-85000000D01*
X85000000Y-83500000D02*
X83500000Y-85000000D01*
X85000000Y-59500000D02*
X85000000Y-83500000D01*
X49250003Y-84000003D02*
X45750003Y-84000003D01*
X50250000Y-85000000D02*
X49250003Y-84000003D01*
X45750000Y-84000000D02*
X45750003Y-84000003D01*
X72750000Y-85000000D02*
X50250000Y-85000000D01*
X39750000Y-84000000D02*
X45750000Y-84000000D01*
X30250000Y-84000000D02*
X27000000Y-80750000D01*
X30750000Y-84000000D02*
X30250000Y-84000000D01*
X27000000Y-80750000D02*
X27000000Y-74500000D01*
X27000000Y-74146447D02*
X27000000Y-65500000D01*
X27000000Y-74500000D02*
X27000000Y-74146447D01*
X27000000Y-54522820D02*
X26000000Y-53522820D01*
X26000000Y-53522820D02*
X26000000Y-38500000D01*
X26000000Y-38500000D02*
X24000000Y-36500000D01*
X27000000Y-65500000D02*
X27000000Y-54522820D01*
X24000000Y-36500000D02*
X24000000Y-29000000D01*
X24000000Y-29000000D02*
X28000000Y-25000000D01*
X28000000Y-25000000D02*
X32500000Y-25000000D01*
X32500000Y-25000000D02*
X41500000Y-25000000D01*
X41500000Y-25000000D02*
X50500000Y-25000000D01*
X50500000Y-25000000D02*
X59500000Y-25000000D01*
X59500000Y-25000000D02*
X70250000Y-25000000D01*
X70250000Y-25000000D02*
X78250000Y-25000000D01*
X78250000Y-25000000D02*
X78250005Y-25000005D01*
%TO.N,Net-(R12-Pad1)*%
X35741529Y-69491529D02*
X32000000Y-65750000D01*
X38008471Y-69491529D02*
X35741529Y-69491529D01*
%TO.N,Net-(D14-Pad3)*%
X84000000Y-61250000D02*
X84000000Y-60896447D01*
X84000000Y-60896447D02*
X84000000Y-52250000D01*
X83000000Y-84000000D02*
X72750000Y-84000000D01*
X84000000Y-61250000D02*
X84000000Y-83000000D01*
X84000000Y-83000000D02*
X83000000Y-84000000D01*
X72750000Y-84000000D02*
X66749996Y-84000000D01*
X66749996Y-84000000D02*
X61249994Y-84000000D01*
X61249994Y-84000000D02*
X52250000Y-84000000D01*
X50750000Y-84000000D02*
X52250000Y-84000000D01*
X49750000Y-83000000D02*
X50750000Y-84000000D01*
X38500000Y-83000000D02*
X49750000Y-83000000D01*
X27999996Y-80249996D02*
X27999996Y-62500000D01*
X38500000Y-83000000D02*
X30750000Y-83000000D01*
X30750000Y-83000000D02*
X27999996Y-80249996D01*
X27999996Y-54000006D02*
X27500000Y-53500010D01*
X27999996Y-62500000D02*
X27999996Y-54000006D01*
X28500000Y-26000000D02*
X34250000Y-26000000D01*
X27500000Y-53500010D02*
X27000000Y-53000010D01*
X27000000Y-53000010D02*
X27000000Y-38000000D01*
X27000000Y-38000000D02*
X25000000Y-36000000D01*
X25000000Y-36000000D02*
X25000000Y-29500000D01*
X25000000Y-29500000D02*
X28500000Y-26000000D01*
X34250000Y-26000000D02*
X43250000Y-26000000D01*
X43250000Y-26000000D02*
X52249988Y-26000000D01*
X52249988Y-26000000D02*
X52250000Y-26000012D01*
X52250000Y-26000012D02*
X61249988Y-26000012D01*
X61249988Y-26000012D02*
X61250000Y-26000000D01*
X61250000Y-26000000D02*
X71500000Y-26000000D01*
X79250000Y-25500000D02*
X78750000Y-26000000D01*
X78750000Y-26000000D02*
X71500000Y-26000000D01*
X79250000Y-24000000D02*
X79250000Y-25500000D01*
%TD*%
D16*
%TO.N,GND*%
X84914405Y-20476527D02*
X85804253Y-20700042D01*
X86645645Y-21065888D01*
X87415992Y-21564249D01*
X88094590Y-22181726D01*
X88663234Y-22901754D01*
X89106641Y-23704983D01*
X89412906Y-24569850D01*
X89575034Y-25480029D01*
X89600000Y-26009428D01*
X89600000Y-31375000D01*
X85621627Y-31375000D01*
X85605732Y-31345263D01*
X85537830Y-31262525D01*
X85537823Y-31262518D01*
X85515131Y-31234868D01*
X85487482Y-31212177D01*
X84487474Y-30212170D01*
X84404736Y-30144269D01*
X84278787Y-30076947D01*
X84142124Y-30035492D01*
X84000000Y-30021494D01*
X83857876Y-30035492D01*
X83721213Y-30076947D01*
X83595264Y-30144269D01*
X83484868Y-30234868D01*
X83394269Y-30345264D01*
X83326947Y-30471213D01*
X83285492Y-30607876D01*
X83271494Y-30750000D01*
X83285492Y-30892124D01*
X83326947Y-31028787D01*
X83394269Y-31154736D01*
X83462170Y-31237474D01*
X83599696Y-31375000D01*
X76565245Y-31375000D01*
X75953728Y-30765631D01*
X75821146Y-30765631D01*
X75211777Y-31375000D01*
X74858223Y-31375000D01*
X75644369Y-30588854D01*
X75644369Y-30456272D01*
X74916448Y-29725785D01*
X74859347Y-29678923D01*
X74794201Y-29644102D01*
X74723512Y-29622659D01*
X74650000Y-29615419D01*
X74576488Y-29622659D01*
X74505799Y-29644102D01*
X74440653Y-29678923D01*
X74383552Y-29725785D01*
X73655631Y-30456272D01*
X73655631Y-30588854D01*
X74441777Y-31375000D01*
X74088223Y-31375000D01*
X73478854Y-30765631D01*
X73346272Y-30765631D01*
X72734755Y-31375000D01*
X66000000Y-31375000D01*
X65975614Y-31377402D01*
X65952165Y-31384515D01*
X65930554Y-31396066D01*
X65911612Y-31411612D01*
X60411612Y-36911612D01*
X60396066Y-36930554D01*
X60384515Y-36952165D01*
X60377402Y-36975614D01*
X60375000Y-37000000D01*
X60377402Y-37024386D01*
X60384515Y-37047835D01*
X60396066Y-37069446D01*
X60411612Y-37088388D01*
X72911612Y-49588388D01*
X72930554Y-49603934D01*
X72952165Y-49615485D01*
X72975614Y-49622598D01*
X73000000Y-49625000D01*
X73024386Y-49622598D01*
X73047835Y-49615485D01*
X73069446Y-49603934D01*
X73088388Y-49588388D01*
X78125001Y-44551775D01*
X78125000Y-65717103D01*
X50024554Y-65717103D01*
X49822556Y-65736998D01*
X49563367Y-65815622D01*
X49343742Y-65933015D01*
X49381633Y-65876307D01*
X49473976Y-65653371D01*
X49521052Y-65416704D01*
X49521052Y-65175400D01*
X49473976Y-64938733D01*
X49381633Y-64715797D01*
X49247571Y-64515160D01*
X49076944Y-64344533D01*
X48876307Y-64210471D01*
X48653371Y-64118128D01*
X48416704Y-64071052D01*
X48175400Y-64071052D01*
X47938733Y-64118128D01*
X47715797Y-64210471D01*
X47515160Y-64344533D01*
X47344533Y-64515160D01*
X47210471Y-64715797D01*
X47118128Y-64938733D01*
X47071052Y-65175400D01*
X47071052Y-65416704D01*
X47118128Y-65653371D01*
X47210471Y-65876307D01*
X47344533Y-66076944D01*
X47515160Y-66247571D01*
X47715797Y-66381633D01*
X47938733Y-66473976D01*
X48175400Y-66521052D01*
X48416704Y-66521052D01*
X48653371Y-66473976D01*
X48876307Y-66381633D01*
X48933015Y-66343742D01*
X48815622Y-66563367D01*
X48736998Y-66822556D01*
X48710450Y-67092103D01*
X48736998Y-67361650D01*
X48815622Y-67620839D01*
X48943301Y-67859708D01*
X49115127Y-68069079D01*
X49324498Y-68240905D01*
X49563367Y-68368584D01*
X49822556Y-68447208D01*
X50024554Y-68467103D01*
X79432451Y-68467103D01*
X79500000Y-68473756D01*
X79567549Y-68467103D01*
X79769547Y-68447208D01*
X80028736Y-68368584D01*
X80267605Y-68240905D01*
X80476976Y-68069079D01*
X80648802Y-67859708D01*
X80776481Y-67620839D01*
X80855105Y-67361650D01*
X80881653Y-67092103D01*
X80875000Y-67024554D01*
X80875000Y-36677538D01*
X80881652Y-36609999D01*
X80875000Y-36542460D01*
X80875000Y-36542451D01*
X80855105Y-36340453D01*
X80776481Y-36081264D01*
X80678745Y-35898414D01*
X80648802Y-35842394D01*
X80520035Y-35685492D01*
X80476976Y-35633024D01*
X80424506Y-35589963D01*
X79827499Y-34992956D01*
X79804654Y-34878107D01*
X79682159Y-34582376D01*
X79504322Y-34316225D01*
X79277979Y-34089882D01*
X79011828Y-33912045D01*
X78716097Y-33789550D01*
X78402151Y-33727102D01*
X78082053Y-33727102D01*
X77768107Y-33789550D01*
X77472376Y-33912045D01*
X77206225Y-34089882D01*
X76979882Y-34316225D01*
X76802045Y-34582376D01*
X76679550Y-34878107D01*
X76617102Y-35192053D01*
X76617102Y-35512151D01*
X76679550Y-35826097D01*
X76802045Y-36121828D01*
X76979882Y-36387979D01*
X77206225Y-36614322D01*
X77472376Y-36792159D01*
X77768107Y-36914654D01*
X77882956Y-36937499D01*
X78125001Y-37179544D01*
X78125001Y-43448225D01*
X67607922Y-32931146D01*
X73655631Y-32931146D01*
X73655631Y-33063728D01*
X74383552Y-33794215D01*
X74440653Y-33841077D01*
X74505799Y-33875898D01*
X74576488Y-33897341D01*
X74650000Y-33904581D01*
X74723512Y-33897341D01*
X74794201Y-33875898D01*
X74859347Y-33841077D01*
X74916448Y-33794215D01*
X75644369Y-33063728D01*
X75644369Y-32931146D01*
X74650000Y-31936777D01*
X73655631Y-32931146D01*
X67607922Y-32931146D01*
X66301776Y-31625000D01*
X72531311Y-31625000D01*
X72512659Y-31686488D01*
X72505419Y-31760000D01*
X72512659Y-31833512D01*
X72534102Y-31904201D01*
X72568923Y-31969347D01*
X72615785Y-32026448D01*
X73346272Y-32754369D01*
X73478854Y-32754369D01*
X74473223Y-31760000D01*
X74338223Y-31625000D01*
X74961777Y-31625000D01*
X74826777Y-31760000D01*
X75821146Y-32754369D01*
X75953728Y-32754369D01*
X76684215Y-32026448D01*
X76731077Y-31969347D01*
X76765898Y-31904201D01*
X76787341Y-31833512D01*
X76794581Y-31760000D01*
X76787341Y-31686488D01*
X76768689Y-31625000D01*
X83849696Y-31625000D01*
X83996532Y-31771836D01*
X83857886Y-31785492D01*
X83721223Y-31826947D01*
X83595274Y-31894269D01*
X83512536Y-31962170D01*
X83512524Y-31962182D01*
X83484869Y-31984878D01*
X83462173Y-32012533D01*
X83462170Y-32012536D01*
X83394269Y-32095274D01*
X83326947Y-32221223D01*
X83285492Y-32357886D01*
X83271494Y-32500010D01*
X83275001Y-32535617D01*
X83275001Y-34825798D01*
X83142125Y-34785491D01*
X83000000Y-34771493D01*
X82857876Y-34785491D01*
X82721213Y-34826947D01*
X82595264Y-34894269D01*
X82484869Y-34984868D01*
X82394270Y-35095263D01*
X82326948Y-35221212D01*
X82285492Y-35357875D01*
X82275001Y-35464393D01*
X82275000Y-44110836D01*
X82275000Y-46825798D01*
X82142125Y-46785491D01*
X82000000Y-46771493D01*
X81857876Y-46785491D01*
X81721213Y-46826947D01*
X81595264Y-46894269D01*
X81484869Y-46984868D01*
X81394270Y-47095263D01*
X81326948Y-47221212D01*
X81285492Y-47357875D01*
X81275001Y-47464393D01*
X81275000Y-56110840D01*
X81275000Y-56464394D01*
X81275001Y-79449700D01*
X80762530Y-79962172D01*
X80762525Y-79962176D01*
X79449702Y-81275000D01*
X52050305Y-81275000D01*
X51287832Y-80512528D01*
X51265132Y-80484868D01*
X51154737Y-80394269D01*
X51028788Y-80326947D01*
X50892125Y-80285491D01*
X50785607Y-80275000D01*
X50785597Y-80275000D01*
X50750000Y-80271494D01*
X50714403Y-80275000D01*
X32550305Y-80275000D01*
X31037835Y-78762531D01*
X31037831Y-78762526D01*
X30725000Y-78449696D01*
X30725000Y-65750000D01*
X31271494Y-65750000D01*
X31285492Y-65892124D01*
X31326947Y-66028787D01*
X31394269Y-66154736D01*
X31462170Y-66237474D01*
X35203701Y-69979006D01*
X35226397Y-70006661D01*
X35254052Y-70029357D01*
X35254054Y-70029359D01*
X35300772Y-70067699D01*
X35336792Y-70097260D01*
X35462741Y-70164582D01*
X35599404Y-70206038D01*
X35705922Y-70216529D01*
X35705931Y-70216529D01*
X35741528Y-70220035D01*
X35777125Y-70216529D01*
X38044078Y-70216529D01*
X38150596Y-70206038D01*
X38287259Y-70164582D01*
X38413208Y-70097260D01*
X38523603Y-70006661D01*
X38614202Y-69896266D01*
X38681524Y-69770317D01*
X38722980Y-69633654D01*
X38736978Y-69491529D01*
X38722980Y-69349404D01*
X38681524Y-69212741D01*
X38614202Y-69086792D01*
X38523603Y-68976397D01*
X38413208Y-68885798D01*
X38287259Y-68818476D01*
X38150596Y-68777020D01*
X38044078Y-68766529D01*
X36041834Y-68766529D01*
X32487474Y-65212170D01*
X32404736Y-65144269D01*
X32278787Y-65076947D01*
X32142124Y-65035492D01*
X32000000Y-65021494D01*
X31857876Y-65035492D01*
X31721213Y-65076947D01*
X31595264Y-65144269D01*
X31484868Y-65234868D01*
X31394269Y-65345264D01*
X31326947Y-65471213D01*
X31285492Y-65607876D01*
X31271494Y-65750000D01*
X30725000Y-65750000D01*
X30725000Y-59650000D01*
X38121493Y-59650000D01*
X38135491Y-59792125D01*
X38176947Y-59928788D01*
X38244269Y-60054737D01*
X38334868Y-60165132D01*
X38445263Y-60255731D01*
X38571212Y-60323053D01*
X38707875Y-60364509D01*
X38814393Y-60375000D01*
X39099696Y-60375000D01*
X47979628Y-69254933D01*
X48004080Y-69275000D01*
X47800305Y-69275000D01*
X43487474Y-64962170D01*
X43404736Y-64894269D01*
X43278787Y-64826947D01*
X43142124Y-64785492D01*
X43000000Y-64771494D01*
X42857876Y-64785492D01*
X42721213Y-64826947D01*
X42595264Y-64894269D01*
X42484868Y-64984868D01*
X42394269Y-65095264D01*
X42326947Y-65221213D01*
X42285492Y-65357876D01*
X42271494Y-65500000D01*
X42285492Y-65642124D01*
X42326947Y-65778787D01*
X42394269Y-65904736D01*
X42462170Y-65987474D01*
X46962172Y-70487477D01*
X46984868Y-70515132D01*
X47012523Y-70537828D01*
X47012525Y-70537830D01*
X47022545Y-70546053D01*
X47095263Y-70605731D01*
X47221212Y-70673053D01*
X47357875Y-70714509D01*
X47464393Y-70725000D01*
X47464402Y-70725000D01*
X47499999Y-70728506D01*
X47535596Y-70725000D01*
X51449696Y-70725000D01*
X51762525Y-71037830D01*
X51845263Y-71105731D01*
X51971212Y-71173053D01*
X52107875Y-71214508D01*
X52250000Y-71228506D01*
X52392124Y-71214508D01*
X52528787Y-71173053D01*
X52654736Y-71105731D01*
X52765132Y-71015132D01*
X52855731Y-70904736D01*
X52923053Y-70778787D01*
X52964508Y-70642124D01*
X52978506Y-70500000D01*
X52964508Y-70357875D01*
X52923053Y-70221212D01*
X52855731Y-70095263D01*
X52787830Y-70012525D01*
X52287832Y-69512528D01*
X52265132Y-69484868D01*
X52154737Y-69394269D01*
X52028788Y-69326947D01*
X51892125Y-69285491D01*
X51785607Y-69275000D01*
X51785597Y-69275000D01*
X51750000Y-69271494D01*
X51714403Y-69275000D01*
X48930125Y-69275000D01*
X48982235Y-69232235D01*
X49072834Y-69121839D01*
X49140156Y-68995890D01*
X49181611Y-68859227D01*
X49195609Y-68717102D01*
X49181611Y-68574978D01*
X49140156Y-68438315D01*
X49072834Y-68312366D01*
X49004933Y-68229628D01*
X44154653Y-63379348D01*
X45275000Y-63379348D01*
X45275000Y-63620652D01*
X45322076Y-63857319D01*
X45414419Y-64080255D01*
X45548481Y-64280892D01*
X45719108Y-64451519D01*
X45919745Y-64585581D01*
X46142681Y-64677924D01*
X46379348Y-64725000D01*
X46620652Y-64725000D01*
X46857319Y-64677924D01*
X47080255Y-64585581D01*
X47280892Y-64451519D01*
X47451519Y-64280892D01*
X47585581Y-64080255D01*
X47677924Y-63857319D01*
X47725000Y-63620652D01*
X47725000Y-63379348D01*
X47677924Y-63142681D01*
X47585581Y-62919745D01*
X47451519Y-62719108D01*
X47280892Y-62548481D01*
X47080255Y-62414419D01*
X46857319Y-62322076D01*
X46620652Y-62275000D01*
X46379348Y-62275000D01*
X46142681Y-62322076D01*
X45919745Y-62414419D01*
X45719108Y-62548481D01*
X45548481Y-62719108D01*
X45414419Y-62919745D01*
X45322076Y-63142681D01*
X45275000Y-63379348D01*
X44154653Y-63379348D01*
X42358602Y-61583297D01*
X43478949Y-61583297D01*
X43478949Y-61824601D01*
X43526025Y-62061268D01*
X43618368Y-62284204D01*
X43752430Y-62484841D01*
X43923057Y-62655468D01*
X44123694Y-62789530D01*
X44346630Y-62881873D01*
X44583297Y-62928949D01*
X44824601Y-62928949D01*
X45061268Y-62881873D01*
X45284204Y-62789530D01*
X45484841Y-62655468D01*
X45655468Y-62484841D01*
X45789530Y-62284204D01*
X45881873Y-62061268D01*
X45928949Y-61824601D01*
X45928949Y-61583297D01*
X45881873Y-61346630D01*
X45789530Y-61123694D01*
X45655468Y-60923057D01*
X45484841Y-60752430D01*
X45284204Y-60618368D01*
X45061268Y-60526025D01*
X44824601Y-60478949D01*
X44583297Y-60478949D01*
X44346630Y-60526025D01*
X44123694Y-60618368D01*
X43923057Y-60752430D01*
X43752430Y-60923057D01*
X43618368Y-61123694D01*
X43526025Y-61346630D01*
X43478949Y-61583297D01*
X42358602Y-61583297D01*
X41571506Y-60796201D01*
X42196372Y-60796201D01*
X42196372Y-60928783D01*
X42641450Y-61376427D01*
X42698551Y-61423289D01*
X42763697Y-61458110D01*
X42834386Y-61479553D01*
X42907898Y-61486794D01*
X42981410Y-61479553D01*
X43052099Y-61458110D01*
X43117245Y-61423289D01*
X43174346Y-61376427D01*
X43619424Y-60928783D01*
X43619424Y-60796201D01*
X42907898Y-60084675D01*
X42196372Y-60796201D01*
X41571506Y-60796201D01*
X40683203Y-59907898D01*
X41329002Y-59907898D01*
X41336243Y-59981410D01*
X41357686Y-60052099D01*
X41392507Y-60117245D01*
X41439369Y-60174346D01*
X41887013Y-60619424D01*
X42019595Y-60619424D01*
X42731121Y-59907898D01*
X43084675Y-59907898D01*
X43796201Y-60619424D01*
X43928783Y-60619424D01*
X44376427Y-60174346D01*
X44423289Y-60117245D01*
X44458110Y-60052099D01*
X44479553Y-59981410D01*
X44486794Y-59907898D01*
X44479553Y-59834386D01*
X44458110Y-59763697D01*
X44423289Y-59698551D01*
X44376427Y-59641450D01*
X43928783Y-59196372D01*
X43796201Y-59196372D01*
X43084675Y-59907898D01*
X42731121Y-59907898D01*
X42019595Y-59196372D01*
X41887013Y-59196372D01*
X41439369Y-59641450D01*
X41392507Y-59698551D01*
X41357686Y-59763697D01*
X41336243Y-59834386D01*
X41329002Y-59907898D01*
X40683203Y-59907898D01*
X39937832Y-59162528D01*
X39915132Y-59134868D01*
X39804737Y-59044269D01*
X39678788Y-58976947D01*
X39542125Y-58935491D01*
X39435607Y-58925000D01*
X39435597Y-58925000D01*
X39400000Y-58921494D01*
X39364403Y-58925000D01*
X38814393Y-58925000D01*
X38707875Y-58935491D01*
X38571212Y-58976947D01*
X38445263Y-59044269D01*
X38334868Y-59134868D01*
X38244269Y-59245263D01*
X38176947Y-59371212D01*
X38135491Y-59507875D01*
X38121493Y-59650000D01*
X30725000Y-59650000D01*
X30725000Y-58887013D01*
X42196372Y-58887013D01*
X42196372Y-59019595D01*
X42907898Y-59731121D01*
X43619424Y-59019595D01*
X43619424Y-58887013D01*
X43174346Y-58439369D01*
X43117245Y-58392507D01*
X43052099Y-58357686D01*
X42981410Y-58336243D01*
X42907898Y-58329002D01*
X42834386Y-58336243D01*
X42763697Y-58357686D01*
X42698551Y-58392507D01*
X42641450Y-58439369D01*
X42196372Y-58887013D01*
X30725000Y-58887013D01*
X30725000Y-53035600D01*
X30728506Y-53000000D01*
X30725000Y-52964400D01*
X30725000Y-52964393D01*
X30714509Y-52857875D01*
X30673053Y-52721212D01*
X30669470Y-52714509D01*
X30605732Y-52595263D01*
X30537830Y-52512525D01*
X30537828Y-52512523D01*
X30515132Y-52484868D01*
X30487477Y-52462172D01*
X29725000Y-51699696D01*
X29725000Y-48927973D01*
X44621693Y-48927973D01*
X61072027Y-65378307D01*
X65208602Y-61241733D01*
X48758267Y-44791398D01*
X44621693Y-48927973D01*
X29725000Y-48927973D01*
X29725000Y-37035596D01*
X29728506Y-36999999D01*
X29725000Y-36964402D01*
X29725000Y-36964393D01*
X29714509Y-36857875D01*
X29673053Y-36721212D01*
X29605731Y-36595263D01*
X29537830Y-36512525D01*
X29537828Y-36512523D01*
X29515132Y-36484868D01*
X29487477Y-36462172D01*
X27725000Y-34699696D01*
X27725000Y-29300304D01*
X29300305Y-27725000D01*
X74535607Y-27725000D01*
X74642125Y-27714509D01*
X74778788Y-27673053D01*
X74904737Y-27605731D01*
X75015132Y-27515132D01*
X75105731Y-27404737D01*
X75173053Y-27278788D01*
X75214509Y-27142125D01*
X75228507Y-27000000D01*
X75214509Y-26857875D01*
X75174202Y-26725000D01*
X78714403Y-26725000D01*
X78750000Y-26728506D01*
X78785597Y-26725000D01*
X78785607Y-26725000D01*
X78892125Y-26714509D01*
X79028788Y-26673053D01*
X79154737Y-26605731D01*
X79265132Y-26515132D01*
X79287832Y-26487472D01*
X79737477Y-26037828D01*
X79765132Y-26015132D01*
X79793675Y-25980353D01*
X79855731Y-25904737D01*
X79923053Y-25778788D01*
X79933255Y-25745155D01*
X79957636Y-25664781D01*
X80596468Y-25664781D01*
X80596468Y-26335219D01*
X80727264Y-26992774D01*
X80983829Y-27612177D01*
X81356304Y-28169625D01*
X81830375Y-28643696D01*
X82387823Y-29016171D01*
X83007226Y-29272736D01*
X83664781Y-29403532D01*
X84335219Y-29403532D01*
X84992774Y-29272736D01*
X85612177Y-29016171D01*
X86169625Y-28643696D01*
X86643696Y-28169625D01*
X87016171Y-27612177D01*
X87272736Y-26992774D01*
X87403532Y-26335219D01*
X87403532Y-25664781D01*
X87272736Y-25007226D01*
X87016171Y-24387823D01*
X86643696Y-23830375D01*
X86169625Y-23356304D01*
X85612177Y-22983829D01*
X84992774Y-22727264D01*
X84335219Y-22596468D01*
X83664781Y-22596468D01*
X83007226Y-22727264D01*
X82387823Y-22983829D01*
X81830375Y-23356304D01*
X81356304Y-23830375D01*
X80983829Y-24387823D01*
X80727264Y-25007226D01*
X80596468Y-25664781D01*
X79957636Y-25664781D01*
X79964509Y-25642125D01*
X79975000Y-25535607D01*
X79975000Y-25535597D01*
X79978506Y-25500000D01*
X79975000Y-25464403D01*
X79975000Y-23964393D01*
X79964509Y-23857875D01*
X79923053Y-23721212D01*
X79855731Y-23595263D01*
X79765131Y-23484868D01*
X79654736Y-23394269D01*
X79528787Y-23326947D01*
X79392124Y-23285491D01*
X79250000Y-23271493D01*
X79107875Y-23285491D01*
X78971212Y-23326947D01*
X78845263Y-23394269D01*
X78734868Y-23484869D01*
X78644269Y-23595264D01*
X78576947Y-23721213D01*
X78535491Y-23857876D01*
X78525000Y-23964394D01*
X78525000Y-24325798D01*
X78392125Y-24285491D01*
X78285607Y-24275000D01*
X78285597Y-24275000D01*
X78250000Y-24271494D01*
X78214403Y-24275000D01*
X49424196Y-24275000D01*
X49464509Y-24142105D01*
X49478507Y-23999980D01*
X49464509Y-23857855D01*
X49423053Y-23721192D01*
X49355731Y-23595243D01*
X49265132Y-23484848D01*
X49154737Y-23394249D01*
X49028788Y-23326927D01*
X48892125Y-23285471D01*
X48785607Y-23274980D01*
X32800285Y-23274980D01*
X32037832Y-22512528D01*
X32015132Y-22484868D01*
X31904737Y-22394269D01*
X31778788Y-22326947D01*
X31642125Y-22285491D01*
X31535607Y-22275000D01*
X31535597Y-22275000D01*
X31500000Y-22271494D01*
X31464403Y-22275000D01*
X27035597Y-22275000D01*
X27000000Y-22271494D01*
X26964403Y-22275000D01*
X26964393Y-22275000D01*
X26857875Y-22285491D01*
X26721212Y-22326947D01*
X26595263Y-22394269D01*
X26512525Y-22462170D01*
X26512523Y-22462172D01*
X26484868Y-22484868D01*
X26462172Y-22512523D01*
X21512523Y-27462173D01*
X21484869Y-27484868D01*
X21462173Y-27512523D01*
X21462170Y-27512526D01*
X21394269Y-27595264D01*
X21326947Y-27721213D01*
X21285492Y-27857876D01*
X21271494Y-28000000D01*
X21275001Y-28035607D01*
X21275000Y-56964397D01*
X21271494Y-56999994D01*
X21275000Y-57035591D01*
X21275000Y-57035600D01*
X21275001Y-57035610D01*
X21275000Y-62464392D01*
X21271493Y-62500000D01*
X21275001Y-62535618D01*
X21275000Y-81714403D01*
X21271494Y-81750000D01*
X21275000Y-81785597D01*
X21275000Y-81785606D01*
X21285491Y-81892124D01*
X21311695Y-81978507D01*
X21326947Y-82028787D01*
X21394269Y-82154736D01*
X21421932Y-82188443D01*
X21484868Y-82265131D01*
X21512524Y-82287828D01*
X24762525Y-85537830D01*
X24845263Y-85605731D01*
X24971212Y-85673053D01*
X25107875Y-85714508D01*
X25249999Y-85728506D01*
X25392124Y-85714508D01*
X25528787Y-85673053D01*
X25654736Y-85605731D01*
X25765132Y-85515132D01*
X25855731Y-85404736D01*
X25923053Y-85278787D01*
X25941772Y-85217077D01*
X28762525Y-88037830D01*
X28762530Y-88037834D01*
X29212172Y-88487477D01*
X29234868Y-88515132D01*
X29262523Y-88537828D01*
X29262525Y-88537830D01*
X29335303Y-88597557D01*
X29345263Y-88605731D01*
X29471212Y-88673053D01*
X29607875Y-88714509D01*
X29714393Y-88725000D01*
X29714403Y-88725000D01*
X29750000Y-88728506D01*
X29785597Y-88725000D01*
X47285607Y-88725000D01*
X47392125Y-88714509D01*
X47528788Y-88673053D01*
X47654737Y-88605731D01*
X47765132Y-88515132D01*
X47855731Y-88404737D01*
X47923053Y-88278788D01*
X47941773Y-88217077D01*
X48212172Y-88487477D01*
X48234868Y-88515132D01*
X48262523Y-88537828D01*
X48262525Y-88537830D01*
X48345263Y-88605732D01*
X48441791Y-88657327D01*
X48471212Y-88673053D01*
X48607875Y-88714509D01*
X48714393Y-88725000D01*
X48714400Y-88725000D01*
X48750000Y-88728506D01*
X48785600Y-88725000D01*
X65285609Y-88725000D01*
X65392127Y-88714509D01*
X65528790Y-88673053D01*
X65654739Y-88605731D01*
X65765134Y-88515132D01*
X65855733Y-88404737D01*
X65923055Y-88278788D01*
X65964511Y-88142125D01*
X65978509Y-88000000D01*
X65964511Y-87857875D01*
X65924204Y-87725000D01*
X80075801Y-87725000D01*
X80035493Y-87857877D01*
X80021495Y-88000002D01*
X80035493Y-88142127D01*
X80076949Y-88278790D01*
X80144271Y-88404739D01*
X80234870Y-88515134D01*
X80345265Y-88605733D01*
X80471214Y-88673055D01*
X80607877Y-88714511D01*
X80714395Y-88725002D01*
X84964401Y-88725002D01*
X84999998Y-88728508D01*
X85035595Y-88725002D01*
X85035605Y-88725002D01*
X85142123Y-88714511D01*
X85278786Y-88673055D01*
X85404735Y-88605733D01*
X85515130Y-88515134D01*
X85537830Y-88487474D01*
X88487482Y-85537823D01*
X88515131Y-85515132D01*
X88537823Y-85487482D01*
X88537830Y-85487475D01*
X88605732Y-85404737D01*
X88673053Y-85278788D01*
X88697915Y-85196827D01*
X88714509Y-85142125D01*
X88725000Y-85035607D01*
X88725000Y-85035606D01*
X88728507Y-85000000D01*
X88725000Y-84964393D01*
X88725000Y-49035596D01*
X88728506Y-48999999D01*
X88725000Y-48964402D01*
X88725000Y-48964393D01*
X88714509Y-48857875D01*
X88673053Y-48721212D01*
X88605731Y-48595263D01*
X88539969Y-48515132D01*
X88537830Y-48512525D01*
X88537828Y-48512523D01*
X88515132Y-48484868D01*
X88487477Y-48462172D01*
X86725000Y-46699696D01*
X86725000Y-43214393D01*
X86714509Y-43107875D01*
X86673053Y-42971212D01*
X86605731Y-42845263D01*
X86515132Y-42734868D01*
X86404737Y-42644269D01*
X86278788Y-42576947D01*
X86142125Y-42535491D01*
X86000000Y-42521493D01*
X85857876Y-42535491D01*
X85725000Y-42575798D01*
X85725000Y-39785607D01*
X85728507Y-39750000D01*
X85725000Y-39714393D01*
X85725000Y-31785600D01*
X85728506Y-31750000D01*
X85725000Y-31714400D01*
X85725000Y-31714393D01*
X85716196Y-31625000D01*
X89600000Y-31625000D01*
X89600001Y-83983572D01*
X89523473Y-84914404D01*
X89299958Y-85804253D01*
X88934110Y-86645647D01*
X88435751Y-87415992D01*
X87818274Y-88094589D01*
X87098241Y-88663237D01*
X86295017Y-89106641D01*
X85430147Y-89412907D01*
X84519971Y-89575034D01*
X83990573Y-89600000D01*
X26016415Y-89600000D01*
X25085596Y-89523473D01*
X24195747Y-89299958D01*
X23354353Y-88934110D01*
X22584008Y-88435751D01*
X21905411Y-87818274D01*
X21336763Y-87098241D01*
X20893359Y-86295017D01*
X20587093Y-85430147D01*
X20424966Y-84519971D01*
X20400000Y-83990573D01*
X20400000Y-26016415D01*
X20476527Y-25085595D01*
X20700042Y-24195747D01*
X21065888Y-23354355D01*
X21564249Y-22584008D01*
X22181726Y-21905410D01*
X22901754Y-21336766D01*
X23704983Y-20893359D01*
X24569850Y-20587094D01*
X25480029Y-20424966D01*
X26009428Y-20400000D01*
X83983585Y-20400000D01*
X84914405Y-20476527D01*
%TA.AperFunction,Conductor*%
D17*
G36*
X84914405Y-20476527D02*
G01*
X85804253Y-20700042D01*
X86645645Y-21065888D01*
X87415992Y-21564249D01*
X88094590Y-22181726D01*
X88663234Y-22901754D01*
X89106641Y-23704983D01*
X89412906Y-24569850D01*
X89575034Y-25480029D01*
X89600000Y-26009428D01*
X89600000Y-31375000D01*
X85621627Y-31375000D01*
X85605732Y-31345263D01*
X85537830Y-31262525D01*
X85537823Y-31262518D01*
X85515131Y-31234868D01*
X85487482Y-31212177D01*
X84487474Y-30212170D01*
X84404736Y-30144269D01*
X84278787Y-30076947D01*
X84142124Y-30035492D01*
X84000000Y-30021494D01*
X83857876Y-30035492D01*
X83721213Y-30076947D01*
X83595264Y-30144269D01*
X83484868Y-30234868D01*
X83394269Y-30345264D01*
X83326947Y-30471213D01*
X83285492Y-30607876D01*
X83271494Y-30750000D01*
X83285492Y-30892124D01*
X83326947Y-31028787D01*
X83394269Y-31154736D01*
X83462170Y-31237474D01*
X83599696Y-31375000D01*
X76565245Y-31375000D01*
X75953728Y-30765631D01*
X75821146Y-30765631D01*
X75211777Y-31375000D01*
X74858223Y-31375000D01*
X75644369Y-30588854D01*
X75644369Y-30456272D01*
X74916448Y-29725785D01*
X74859347Y-29678923D01*
X74794201Y-29644102D01*
X74723512Y-29622659D01*
X74650000Y-29615419D01*
X74576488Y-29622659D01*
X74505799Y-29644102D01*
X74440653Y-29678923D01*
X74383552Y-29725785D01*
X73655631Y-30456272D01*
X73655631Y-30588854D01*
X74441777Y-31375000D01*
X74088223Y-31375000D01*
X73478854Y-30765631D01*
X73346272Y-30765631D01*
X72734755Y-31375000D01*
X66000000Y-31375000D01*
X65975614Y-31377402D01*
X65952165Y-31384515D01*
X65930554Y-31396066D01*
X65911612Y-31411612D01*
X60411612Y-36911612D01*
X60396066Y-36930554D01*
X60384515Y-36952165D01*
X60377402Y-36975614D01*
X60375000Y-37000000D01*
X60377402Y-37024386D01*
X60384515Y-37047835D01*
X60396066Y-37069446D01*
X60411612Y-37088388D01*
X72911612Y-49588388D01*
X72930554Y-49603934D01*
X72952165Y-49615485D01*
X72975614Y-49622598D01*
X73000000Y-49625000D01*
X73024386Y-49622598D01*
X73047835Y-49615485D01*
X73069446Y-49603934D01*
X73088388Y-49588388D01*
X78125001Y-44551775D01*
X78125000Y-65717103D01*
X50024554Y-65717103D01*
X49822556Y-65736998D01*
X49563367Y-65815622D01*
X49343742Y-65933015D01*
X49381633Y-65876307D01*
X49473976Y-65653371D01*
X49521052Y-65416704D01*
X49521052Y-65175400D01*
X49473976Y-64938733D01*
X49381633Y-64715797D01*
X49247571Y-64515160D01*
X49076944Y-64344533D01*
X48876307Y-64210471D01*
X48653371Y-64118128D01*
X48416704Y-64071052D01*
X48175400Y-64071052D01*
X47938733Y-64118128D01*
X47715797Y-64210471D01*
X47515160Y-64344533D01*
X47344533Y-64515160D01*
X47210471Y-64715797D01*
X47118128Y-64938733D01*
X47071052Y-65175400D01*
X47071052Y-65416704D01*
X47118128Y-65653371D01*
X47210471Y-65876307D01*
X47344533Y-66076944D01*
X47515160Y-66247571D01*
X47715797Y-66381633D01*
X47938733Y-66473976D01*
X48175400Y-66521052D01*
X48416704Y-66521052D01*
X48653371Y-66473976D01*
X48876307Y-66381633D01*
X48933015Y-66343742D01*
X48815622Y-66563367D01*
X48736998Y-66822556D01*
X48710450Y-67092103D01*
X48736998Y-67361650D01*
X48815622Y-67620839D01*
X48943301Y-67859708D01*
X49115127Y-68069079D01*
X49324498Y-68240905D01*
X49563367Y-68368584D01*
X49822556Y-68447208D01*
X50024554Y-68467103D01*
X79432451Y-68467103D01*
X79500000Y-68473756D01*
X79567549Y-68467103D01*
X79769547Y-68447208D01*
X80028736Y-68368584D01*
X80267605Y-68240905D01*
X80476976Y-68069079D01*
X80648802Y-67859708D01*
X80776481Y-67620839D01*
X80855105Y-67361650D01*
X80881653Y-67092103D01*
X80875000Y-67024554D01*
X80875000Y-36677538D01*
X80881652Y-36609999D01*
X80875000Y-36542460D01*
X80875000Y-36542451D01*
X80855105Y-36340453D01*
X80776481Y-36081264D01*
X80678745Y-35898414D01*
X80648802Y-35842394D01*
X80520035Y-35685492D01*
X80476976Y-35633024D01*
X80424506Y-35589963D01*
X79827499Y-34992956D01*
X79804654Y-34878107D01*
X79682159Y-34582376D01*
X79504322Y-34316225D01*
X79277979Y-34089882D01*
X79011828Y-33912045D01*
X78716097Y-33789550D01*
X78402151Y-33727102D01*
X78082053Y-33727102D01*
X77768107Y-33789550D01*
X77472376Y-33912045D01*
X77206225Y-34089882D01*
X76979882Y-34316225D01*
X76802045Y-34582376D01*
X76679550Y-34878107D01*
X76617102Y-35192053D01*
X76617102Y-35512151D01*
X76679550Y-35826097D01*
X76802045Y-36121828D01*
X76979882Y-36387979D01*
X77206225Y-36614322D01*
X77472376Y-36792159D01*
X77768107Y-36914654D01*
X77882956Y-36937499D01*
X78125001Y-37179544D01*
X78125001Y-43448225D01*
X67607922Y-32931146D01*
X73655631Y-32931146D01*
X73655631Y-33063728D01*
X74383552Y-33794215D01*
X74440653Y-33841077D01*
X74505799Y-33875898D01*
X74576488Y-33897341D01*
X74650000Y-33904581D01*
X74723512Y-33897341D01*
X74794201Y-33875898D01*
X74859347Y-33841077D01*
X74916448Y-33794215D01*
X75644369Y-33063728D01*
X75644369Y-32931146D01*
X74650000Y-31936777D01*
X73655631Y-32931146D01*
X67607922Y-32931146D01*
X66301776Y-31625000D01*
X72531311Y-31625000D01*
X72512659Y-31686488D01*
X72505419Y-31760000D01*
X72512659Y-31833512D01*
X72534102Y-31904201D01*
X72568923Y-31969347D01*
X72615785Y-32026448D01*
X73346272Y-32754369D01*
X73478854Y-32754369D01*
X74473223Y-31760000D01*
X74338223Y-31625000D01*
X74961777Y-31625000D01*
X74826777Y-31760000D01*
X75821146Y-32754369D01*
X75953728Y-32754369D01*
X76684215Y-32026448D01*
X76731077Y-31969347D01*
X76765898Y-31904201D01*
X76787341Y-31833512D01*
X76794581Y-31760000D01*
X76787341Y-31686488D01*
X76768689Y-31625000D01*
X83849696Y-31625000D01*
X83996532Y-31771836D01*
X83857886Y-31785492D01*
X83721223Y-31826947D01*
X83595274Y-31894269D01*
X83512536Y-31962170D01*
X83512524Y-31962182D01*
X83484869Y-31984878D01*
X83462173Y-32012533D01*
X83462170Y-32012536D01*
X83394269Y-32095274D01*
X83326947Y-32221223D01*
X83285492Y-32357886D01*
X83271494Y-32500010D01*
X83275001Y-32535617D01*
X83275001Y-34825798D01*
X83142125Y-34785491D01*
X83000000Y-34771493D01*
X82857876Y-34785491D01*
X82721213Y-34826947D01*
X82595264Y-34894269D01*
X82484869Y-34984868D01*
X82394270Y-35095263D01*
X82326948Y-35221212D01*
X82285492Y-35357875D01*
X82275001Y-35464393D01*
X82275000Y-44110836D01*
X82275000Y-46825798D01*
X82142125Y-46785491D01*
X82000000Y-46771493D01*
X81857876Y-46785491D01*
X81721213Y-46826947D01*
X81595264Y-46894269D01*
X81484869Y-46984868D01*
X81394270Y-47095263D01*
X81326948Y-47221212D01*
X81285492Y-47357875D01*
X81275001Y-47464393D01*
X81275000Y-56110840D01*
X81275000Y-56464394D01*
X81275001Y-79449700D01*
X80762530Y-79962172D01*
X80762525Y-79962176D01*
X79449702Y-81275000D01*
X52050305Y-81275000D01*
X51287832Y-80512528D01*
X51265132Y-80484868D01*
X51154737Y-80394269D01*
X51028788Y-80326947D01*
X50892125Y-80285491D01*
X50785607Y-80275000D01*
X50785597Y-80275000D01*
X50750000Y-80271494D01*
X50714403Y-80275000D01*
X32550305Y-80275000D01*
X31037835Y-78762531D01*
X31037831Y-78762526D01*
X30725000Y-78449696D01*
X30725000Y-65750000D01*
X31271494Y-65750000D01*
X31285492Y-65892124D01*
X31326947Y-66028787D01*
X31394269Y-66154736D01*
X31462170Y-66237474D01*
X35203701Y-69979006D01*
X35226397Y-70006661D01*
X35254052Y-70029357D01*
X35254054Y-70029359D01*
X35300772Y-70067699D01*
X35336792Y-70097260D01*
X35462741Y-70164582D01*
X35599404Y-70206038D01*
X35705922Y-70216529D01*
X35705931Y-70216529D01*
X35741528Y-70220035D01*
X35777125Y-70216529D01*
X38044078Y-70216529D01*
X38150596Y-70206038D01*
X38287259Y-70164582D01*
X38413208Y-70097260D01*
X38523603Y-70006661D01*
X38614202Y-69896266D01*
X38681524Y-69770317D01*
X38722980Y-69633654D01*
X38736978Y-69491529D01*
X38722980Y-69349404D01*
X38681524Y-69212741D01*
X38614202Y-69086792D01*
X38523603Y-68976397D01*
X38413208Y-68885798D01*
X38287259Y-68818476D01*
X38150596Y-68777020D01*
X38044078Y-68766529D01*
X36041834Y-68766529D01*
X32487474Y-65212170D01*
X32404736Y-65144269D01*
X32278787Y-65076947D01*
X32142124Y-65035492D01*
X32000000Y-65021494D01*
X31857876Y-65035492D01*
X31721213Y-65076947D01*
X31595264Y-65144269D01*
X31484868Y-65234868D01*
X31394269Y-65345264D01*
X31326947Y-65471213D01*
X31285492Y-65607876D01*
X31271494Y-65750000D01*
X30725000Y-65750000D01*
X30725000Y-59650000D01*
X38121493Y-59650000D01*
X38135491Y-59792125D01*
X38176947Y-59928788D01*
X38244269Y-60054737D01*
X38334868Y-60165132D01*
X38445263Y-60255731D01*
X38571212Y-60323053D01*
X38707875Y-60364509D01*
X38814393Y-60375000D01*
X39099696Y-60375000D01*
X47979628Y-69254933D01*
X48004080Y-69275000D01*
X47800305Y-69275000D01*
X43487474Y-64962170D01*
X43404736Y-64894269D01*
X43278787Y-64826947D01*
X43142124Y-64785492D01*
X43000000Y-64771494D01*
X42857876Y-64785492D01*
X42721213Y-64826947D01*
X42595264Y-64894269D01*
X42484868Y-64984868D01*
X42394269Y-65095264D01*
X42326947Y-65221213D01*
X42285492Y-65357876D01*
X42271494Y-65500000D01*
X42285492Y-65642124D01*
X42326947Y-65778787D01*
X42394269Y-65904736D01*
X42462170Y-65987474D01*
X46962172Y-70487477D01*
X46984868Y-70515132D01*
X47012523Y-70537828D01*
X47012525Y-70537830D01*
X47022545Y-70546053D01*
X47095263Y-70605731D01*
X47221212Y-70673053D01*
X47357875Y-70714509D01*
X47464393Y-70725000D01*
X47464402Y-70725000D01*
X47499999Y-70728506D01*
X47535596Y-70725000D01*
X51449696Y-70725000D01*
X51762525Y-71037830D01*
X51845263Y-71105731D01*
X51971212Y-71173053D01*
X52107875Y-71214508D01*
X52250000Y-71228506D01*
X52392124Y-71214508D01*
X52528787Y-71173053D01*
X52654736Y-71105731D01*
X52765132Y-71015132D01*
X52855731Y-70904736D01*
X52923053Y-70778787D01*
X52964508Y-70642124D01*
X52978506Y-70500000D01*
X52964508Y-70357875D01*
X52923053Y-70221212D01*
X52855731Y-70095263D01*
X52787830Y-70012525D01*
X52287832Y-69512528D01*
X52265132Y-69484868D01*
X52154737Y-69394269D01*
X52028788Y-69326947D01*
X51892125Y-69285491D01*
X51785607Y-69275000D01*
X51785597Y-69275000D01*
X51750000Y-69271494D01*
X51714403Y-69275000D01*
X48930125Y-69275000D01*
X48982235Y-69232235D01*
X49072834Y-69121839D01*
X49140156Y-68995890D01*
X49181611Y-68859227D01*
X49195609Y-68717102D01*
X49181611Y-68574978D01*
X49140156Y-68438315D01*
X49072834Y-68312366D01*
X49004933Y-68229628D01*
X44154653Y-63379348D01*
X45275000Y-63379348D01*
X45275000Y-63620652D01*
X45322076Y-63857319D01*
X45414419Y-64080255D01*
X45548481Y-64280892D01*
X45719108Y-64451519D01*
X45919745Y-64585581D01*
X46142681Y-64677924D01*
X46379348Y-64725000D01*
X46620652Y-64725000D01*
X46857319Y-64677924D01*
X47080255Y-64585581D01*
X47280892Y-64451519D01*
X47451519Y-64280892D01*
X47585581Y-64080255D01*
X47677924Y-63857319D01*
X47725000Y-63620652D01*
X47725000Y-63379348D01*
X47677924Y-63142681D01*
X47585581Y-62919745D01*
X47451519Y-62719108D01*
X47280892Y-62548481D01*
X47080255Y-62414419D01*
X46857319Y-62322076D01*
X46620652Y-62275000D01*
X46379348Y-62275000D01*
X46142681Y-62322076D01*
X45919745Y-62414419D01*
X45719108Y-62548481D01*
X45548481Y-62719108D01*
X45414419Y-62919745D01*
X45322076Y-63142681D01*
X45275000Y-63379348D01*
X44154653Y-63379348D01*
X42358602Y-61583297D01*
X43478949Y-61583297D01*
X43478949Y-61824601D01*
X43526025Y-62061268D01*
X43618368Y-62284204D01*
X43752430Y-62484841D01*
X43923057Y-62655468D01*
X44123694Y-62789530D01*
X44346630Y-62881873D01*
X44583297Y-62928949D01*
X44824601Y-62928949D01*
X45061268Y-62881873D01*
X45284204Y-62789530D01*
X45484841Y-62655468D01*
X45655468Y-62484841D01*
X45789530Y-62284204D01*
X45881873Y-62061268D01*
X45928949Y-61824601D01*
X45928949Y-61583297D01*
X45881873Y-61346630D01*
X45789530Y-61123694D01*
X45655468Y-60923057D01*
X45484841Y-60752430D01*
X45284204Y-60618368D01*
X45061268Y-60526025D01*
X44824601Y-60478949D01*
X44583297Y-60478949D01*
X44346630Y-60526025D01*
X44123694Y-60618368D01*
X43923057Y-60752430D01*
X43752430Y-60923057D01*
X43618368Y-61123694D01*
X43526025Y-61346630D01*
X43478949Y-61583297D01*
X42358602Y-61583297D01*
X41571506Y-60796201D01*
X42196372Y-60796201D01*
X42196372Y-60928783D01*
X42641450Y-61376427D01*
X42698551Y-61423289D01*
X42763697Y-61458110D01*
X42834386Y-61479553D01*
X42907898Y-61486794D01*
X42981410Y-61479553D01*
X43052099Y-61458110D01*
X43117245Y-61423289D01*
X43174346Y-61376427D01*
X43619424Y-60928783D01*
X43619424Y-60796201D01*
X42907898Y-60084675D01*
X42196372Y-60796201D01*
X41571506Y-60796201D01*
X40683203Y-59907898D01*
X41329002Y-59907898D01*
X41336243Y-59981410D01*
X41357686Y-60052099D01*
X41392507Y-60117245D01*
X41439369Y-60174346D01*
X41887013Y-60619424D01*
X42019595Y-60619424D01*
X42731121Y-59907898D01*
X43084675Y-59907898D01*
X43796201Y-60619424D01*
X43928783Y-60619424D01*
X44376427Y-60174346D01*
X44423289Y-60117245D01*
X44458110Y-60052099D01*
X44479553Y-59981410D01*
X44486794Y-59907898D01*
X44479553Y-59834386D01*
X44458110Y-59763697D01*
X44423289Y-59698551D01*
X44376427Y-59641450D01*
X43928783Y-59196372D01*
X43796201Y-59196372D01*
X43084675Y-59907898D01*
X42731121Y-59907898D01*
X42019595Y-59196372D01*
X41887013Y-59196372D01*
X41439369Y-59641450D01*
X41392507Y-59698551D01*
X41357686Y-59763697D01*
X41336243Y-59834386D01*
X41329002Y-59907898D01*
X40683203Y-59907898D01*
X39937832Y-59162528D01*
X39915132Y-59134868D01*
X39804737Y-59044269D01*
X39678788Y-58976947D01*
X39542125Y-58935491D01*
X39435607Y-58925000D01*
X39435597Y-58925000D01*
X39400000Y-58921494D01*
X39364403Y-58925000D01*
X38814393Y-58925000D01*
X38707875Y-58935491D01*
X38571212Y-58976947D01*
X38445263Y-59044269D01*
X38334868Y-59134868D01*
X38244269Y-59245263D01*
X38176947Y-59371212D01*
X38135491Y-59507875D01*
X38121493Y-59650000D01*
X30725000Y-59650000D01*
X30725000Y-58887013D01*
X42196372Y-58887013D01*
X42196372Y-59019595D01*
X42907898Y-59731121D01*
X43619424Y-59019595D01*
X43619424Y-58887013D01*
X43174346Y-58439369D01*
X43117245Y-58392507D01*
X43052099Y-58357686D01*
X42981410Y-58336243D01*
X42907898Y-58329002D01*
X42834386Y-58336243D01*
X42763697Y-58357686D01*
X42698551Y-58392507D01*
X42641450Y-58439369D01*
X42196372Y-58887013D01*
X30725000Y-58887013D01*
X30725000Y-53035600D01*
X30728506Y-53000000D01*
X30725000Y-52964400D01*
X30725000Y-52964393D01*
X30714509Y-52857875D01*
X30673053Y-52721212D01*
X30669470Y-52714509D01*
X30605732Y-52595263D01*
X30537830Y-52512525D01*
X30537828Y-52512523D01*
X30515132Y-52484868D01*
X30487477Y-52462172D01*
X29725000Y-51699696D01*
X29725000Y-48927973D01*
X44621693Y-48927973D01*
X61072027Y-65378307D01*
X65208602Y-61241733D01*
X48758267Y-44791398D01*
X44621693Y-48927973D01*
X29725000Y-48927973D01*
X29725000Y-37035596D01*
X29728506Y-36999999D01*
X29725000Y-36964402D01*
X29725000Y-36964393D01*
X29714509Y-36857875D01*
X29673053Y-36721212D01*
X29605731Y-36595263D01*
X29537830Y-36512525D01*
X29537828Y-36512523D01*
X29515132Y-36484868D01*
X29487477Y-36462172D01*
X27725000Y-34699696D01*
X27725000Y-29300304D01*
X29300305Y-27725000D01*
X74535607Y-27725000D01*
X74642125Y-27714509D01*
X74778788Y-27673053D01*
X74904737Y-27605731D01*
X75015132Y-27515132D01*
X75105731Y-27404737D01*
X75173053Y-27278788D01*
X75214509Y-27142125D01*
X75228507Y-27000000D01*
X75214509Y-26857875D01*
X75174202Y-26725000D01*
X78714403Y-26725000D01*
X78750000Y-26728506D01*
X78785597Y-26725000D01*
X78785607Y-26725000D01*
X78892125Y-26714509D01*
X79028788Y-26673053D01*
X79154737Y-26605731D01*
X79265132Y-26515132D01*
X79287832Y-26487472D01*
X79737477Y-26037828D01*
X79765132Y-26015132D01*
X79793675Y-25980353D01*
X79855731Y-25904737D01*
X79923053Y-25778788D01*
X79933255Y-25745155D01*
X79957636Y-25664781D01*
X80596468Y-25664781D01*
X80596468Y-26335219D01*
X80727264Y-26992774D01*
X80983829Y-27612177D01*
X81356304Y-28169625D01*
X81830375Y-28643696D01*
X82387823Y-29016171D01*
X83007226Y-29272736D01*
X83664781Y-29403532D01*
X84335219Y-29403532D01*
X84992774Y-29272736D01*
X85612177Y-29016171D01*
X86169625Y-28643696D01*
X86643696Y-28169625D01*
X87016171Y-27612177D01*
X87272736Y-26992774D01*
X87403532Y-26335219D01*
X87403532Y-25664781D01*
X87272736Y-25007226D01*
X87016171Y-24387823D01*
X86643696Y-23830375D01*
X86169625Y-23356304D01*
X85612177Y-22983829D01*
X84992774Y-22727264D01*
X84335219Y-22596468D01*
X83664781Y-22596468D01*
X83007226Y-22727264D01*
X82387823Y-22983829D01*
X81830375Y-23356304D01*
X81356304Y-23830375D01*
X80983829Y-24387823D01*
X80727264Y-25007226D01*
X80596468Y-25664781D01*
X79957636Y-25664781D01*
X79964509Y-25642125D01*
X79975000Y-25535607D01*
X79975000Y-25535597D01*
X79978506Y-25500000D01*
X79975000Y-25464403D01*
X79975000Y-23964393D01*
X79964509Y-23857875D01*
X79923053Y-23721212D01*
X79855731Y-23595263D01*
X79765131Y-23484868D01*
X79654736Y-23394269D01*
X79528787Y-23326947D01*
X79392124Y-23285491D01*
X79250000Y-23271493D01*
X79107875Y-23285491D01*
X78971212Y-23326947D01*
X78845263Y-23394269D01*
X78734868Y-23484869D01*
X78644269Y-23595264D01*
X78576947Y-23721213D01*
X78535491Y-23857876D01*
X78525000Y-23964394D01*
X78525000Y-24325798D01*
X78392125Y-24285491D01*
X78285607Y-24275000D01*
X78285597Y-24275000D01*
X78250000Y-24271494D01*
X78214403Y-24275000D01*
X49424196Y-24275000D01*
X49464509Y-24142105D01*
X49478507Y-23999980D01*
X49464509Y-23857855D01*
X49423053Y-23721192D01*
X49355731Y-23595243D01*
X49265132Y-23484848D01*
X49154737Y-23394249D01*
X49028788Y-23326927D01*
X48892125Y-23285471D01*
X48785607Y-23274980D01*
X32800285Y-23274980D01*
X32037832Y-22512528D01*
X32015132Y-22484868D01*
X31904737Y-22394269D01*
X31778788Y-22326947D01*
X31642125Y-22285491D01*
X31535607Y-22275000D01*
X31535597Y-22275000D01*
X31500000Y-22271494D01*
X31464403Y-22275000D01*
X27035597Y-22275000D01*
X27000000Y-22271494D01*
X26964403Y-22275000D01*
X26964393Y-22275000D01*
X26857875Y-22285491D01*
X26721212Y-22326947D01*
X26595263Y-22394269D01*
X26512525Y-22462170D01*
X26512523Y-22462172D01*
X26484868Y-22484868D01*
X26462172Y-22512523D01*
X21512523Y-27462173D01*
X21484869Y-27484868D01*
X21462173Y-27512523D01*
X21462170Y-27512526D01*
X21394269Y-27595264D01*
X21326947Y-27721213D01*
X21285492Y-27857876D01*
X21271494Y-28000000D01*
X21275001Y-28035607D01*
X21275000Y-56964397D01*
X21271494Y-56999994D01*
X21275000Y-57035591D01*
X21275000Y-57035600D01*
X21275001Y-57035610D01*
X21275000Y-62464392D01*
X21271493Y-62500000D01*
X21275001Y-62535618D01*
X21275000Y-81714403D01*
X21271494Y-81750000D01*
X21275000Y-81785597D01*
X21275000Y-81785606D01*
X21285491Y-81892124D01*
X21311695Y-81978507D01*
X21326947Y-82028787D01*
X21394269Y-82154736D01*
X21421932Y-82188443D01*
X21484868Y-82265131D01*
X21512524Y-82287828D01*
X24762525Y-85537830D01*
X24845263Y-85605731D01*
X24971212Y-85673053D01*
X25107875Y-85714508D01*
X25249999Y-85728506D01*
X25392124Y-85714508D01*
X25528787Y-85673053D01*
X25654736Y-85605731D01*
X25765132Y-85515132D01*
X25855731Y-85404736D01*
X25923053Y-85278787D01*
X25941772Y-85217077D01*
X28762525Y-88037830D01*
X28762530Y-88037834D01*
X29212172Y-88487477D01*
X29234868Y-88515132D01*
X29262523Y-88537828D01*
X29262525Y-88537830D01*
X29335303Y-88597557D01*
X29345263Y-88605731D01*
X29471212Y-88673053D01*
X29607875Y-88714509D01*
X29714393Y-88725000D01*
X29714403Y-88725000D01*
X29750000Y-88728506D01*
X29785597Y-88725000D01*
X47285607Y-88725000D01*
X47392125Y-88714509D01*
X47528788Y-88673053D01*
X47654737Y-88605731D01*
X47765132Y-88515132D01*
X47855731Y-88404737D01*
X47923053Y-88278788D01*
X47941773Y-88217077D01*
X48212172Y-88487477D01*
X48234868Y-88515132D01*
X48262523Y-88537828D01*
X48262525Y-88537830D01*
X48345263Y-88605732D01*
X48441791Y-88657327D01*
X48471212Y-88673053D01*
X48607875Y-88714509D01*
X48714393Y-88725000D01*
X48714400Y-88725000D01*
X48750000Y-88728506D01*
X48785600Y-88725000D01*
X65285609Y-88725000D01*
X65392127Y-88714509D01*
X65528790Y-88673053D01*
X65654739Y-88605731D01*
X65765134Y-88515132D01*
X65855733Y-88404737D01*
X65923055Y-88278788D01*
X65964511Y-88142125D01*
X65978509Y-88000000D01*
X65964511Y-87857875D01*
X65924204Y-87725000D01*
X80075801Y-87725000D01*
X80035493Y-87857877D01*
X80021495Y-88000002D01*
X80035493Y-88142127D01*
X80076949Y-88278790D01*
X80144271Y-88404739D01*
X80234870Y-88515134D01*
X80345265Y-88605733D01*
X80471214Y-88673055D01*
X80607877Y-88714511D01*
X80714395Y-88725002D01*
X84964401Y-88725002D01*
X84999998Y-88728508D01*
X85035595Y-88725002D01*
X85035605Y-88725002D01*
X85142123Y-88714511D01*
X85278786Y-88673055D01*
X85404735Y-88605733D01*
X85515130Y-88515134D01*
X85537830Y-88487474D01*
X88487482Y-85537823D01*
X88515131Y-85515132D01*
X88537823Y-85487482D01*
X88537830Y-85487475D01*
X88605732Y-85404737D01*
X88673053Y-85278788D01*
X88697915Y-85196827D01*
X88714509Y-85142125D01*
X88725000Y-85035607D01*
X88725000Y-85035606D01*
X88728507Y-85000000D01*
X88725000Y-84964393D01*
X88725000Y-49035596D01*
X88728506Y-48999999D01*
X88725000Y-48964402D01*
X88725000Y-48964393D01*
X88714509Y-48857875D01*
X88673053Y-48721212D01*
X88605731Y-48595263D01*
X88539969Y-48515132D01*
X88537830Y-48512525D01*
X88537828Y-48512523D01*
X88515132Y-48484868D01*
X88487477Y-48462172D01*
X86725000Y-46699696D01*
X86725000Y-43214393D01*
X86714509Y-43107875D01*
X86673053Y-42971212D01*
X86605731Y-42845263D01*
X86515132Y-42734868D01*
X86404737Y-42644269D01*
X86278788Y-42576947D01*
X86142125Y-42535491D01*
X86000000Y-42521493D01*
X85857876Y-42535491D01*
X85725000Y-42575798D01*
X85725000Y-39785607D01*
X85728507Y-39750000D01*
X85725000Y-39714393D01*
X85725000Y-31785600D01*
X85728506Y-31750000D01*
X85725000Y-31714400D01*
X85725000Y-31714393D01*
X85716196Y-31625000D01*
X89600000Y-31625000D01*
X89600001Y-83983572D01*
X89523473Y-84914404D01*
X89299958Y-85804253D01*
X88934110Y-86645647D01*
X88435751Y-87415992D01*
X87818274Y-88094589D01*
X87098241Y-88663237D01*
X86295017Y-89106641D01*
X85430147Y-89412907D01*
X84519971Y-89575034D01*
X83990573Y-89600000D01*
X26016415Y-89600000D01*
X25085596Y-89523473D01*
X24195747Y-89299958D01*
X23354353Y-88934110D01*
X22584008Y-88435751D01*
X21905411Y-87818274D01*
X21336763Y-87098241D01*
X20893359Y-86295017D01*
X20587093Y-85430147D01*
X20424966Y-84519971D01*
X20400000Y-83990573D01*
X20400000Y-26016415D01*
X20476527Y-25085595D01*
X20700042Y-24195747D01*
X21065888Y-23354355D01*
X21564249Y-22584008D01*
X22181726Y-21905410D01*
X22901754Y-21336766D01*
X23704983Y-20893359D01*
X24569850Y-20587094D01*
X25480029Y-20424966D01*
X26009428Y-20400000D01*
X83983585Y-20400000D01*
X84914405Y-20476527D01*
G37*
%TD.AperFunction*%
%TD*%
M02*
